<?xml version="1.0" encoding="UTF-8" standalone="no"?>
<!-- Created with Inkscape (http://www.inkscape.org/) -->

<svg
   width="1920"
   height="1080"
   viewBox="0 0 507.99999 285.75"
   version="1.1"
   id="svg4465"
   xml:space="preserve"
   inkscape:version="1.2.2 (b0a8486541, 2022-12-01)"
   sodipodi:docname="Arcade.svg"
   xmlns:inkscape="http://www.inkscape.org/namespaces/inkscape"
   xmlns:sodipodi="http://sodipodi.sourceforge.net/DTD/sodipodi-0.dtd"
   xmlns="http://www.w3.org/2000/svg"
   xmlns:svg="http://www.w3.org/2000/svg"><sodipodi:namedview
     id="namedview4467"
     pagecolor="#ffffff"
     bordercolor="#666666"
     borderopacity="1.0"
     inkscape:showpageshadow="2"
     inkscape:pageopacity="0.0"
     inkscape:pagecheckerboard="0"
     inkscape:deskcolor="#d1d1d1"
     inkscape:document-units="mm"
     showgrid="false"
     showguides="false"
     inkscape:zoom="0.53043341"
     inkscape:cx="1111.3553"
     inkscape:cy="412.86992"
     inkscape:window-width="2560"
     inkscape:window-height="1510"
     inkscape:window-x="1920"
     inkscape:window-y="114"
     inkscape:window-maximized="1"
     inkscape:current-layer="layer1" /><defs
     id="defs4462" /><g
     inkscape:label="Layer 1"
     inkscape:groupmode="layer"
     id="layer1"><rect
       style="fill:#000000;fill-rule:evenodd;stroke:none;stroke-width:237.842;stroke-linecap:round;stroke-linejoin:round;stop-color:#000000"
       id="rect5360"
       width="507.99985"
       height="285.75"
       x="0"
       y="1.4210855e-14"
       ry="0" /><path
       style="fill:#c85093;stroke-width:0.635"
       d="m 159.66748,-22.301833 c 0.50465,-0.418824 1.56458,-0.668125 2.35539,-0.554003 1.62154,0.234005 1.34458,-0.747262 4.62887,16.3999938 1.88858,9.8603133 2.02675,11.2734967 1.22616,12.5412487 -1.03779,1.6433799 -2.28833,1.8313589 -3.38583,0.5089525 -0.58177,-0.7009892 -5.74214,-25.611024 -5.74214,-27.718347 0,-0.228992 0.4129,-0.759022 0.91755,-1.177845 z"
       id="path5410" /><path
       id="path6858"
       style="fill:#70c4d5;stroke-width:0.635"
       d="m 502.32076,225.29788 c -3.5065,-0.018 -7.66591,0.28547 -8.16384,0.78341 -2.1313,2.13137 -0.24769,4.10133 8.44548,8.83305 3.18727,1.73481 4.66638,2.84553 3.96978,2.98122 -0.6106,0.11894 -4.69797,-0.0903 -9.08317,-0.46509 -10.16727,-0.86887 -10.16584,-0.86862 -11.35124,0.31678 -1.2052,1.2052 -1.23352,1.61955 -0.20412,2.99413 0.6167,0.82356 20.96078,11.88323 22.5025,12.51138 1.3714,0.87465 2.96926,2.52489 3.84524,3.65921 -1.19136,-0.27292 -2.44324,-0.55315 -3.36232,-0.74942 -0.12445,-0.0163 -3.61813,-0.57867 -3.61813,-0.57867 -2.2495,-0.31875 -2.88634,-0.15886 -3.82664,0.96015 -1.27872,1.52166 -0.85046,2.63939 2.31149,5.12114 0.26111,0.21465 0.53583,0.42234 0.81907,0.6289 0.005,0.004 0.01,0.007 0.0145,0.0109 0.12145,0.0912 0.24577,0.18384 0.37362,0.27854 l 3.24653,2.23654 c 0.23948,0.009 0.67125,0.27102 0.94804,0.43978 0.87271,0.53206 0.9039,0.64998 1.52343,1.07228 -1.20231,-0.0212 -2.43203,-0.0561 -3.88452,-0.0605 -1.03118,-0.003 -1.84325,0.0445 -2.69958,0.33177 -0.42816,0.14357 -0.90654,0.34879 -1.37511,0.83974 -0.46857,0.49095 -0.80636,1.38177 -0.74,2.10788 0.13269,1.45223 0.89093,1.95799 1.51928,2.46858 0.62835,0.51059 1.36454,0.95442 2.26188,1.42007 1.0183,0.52841 2.39257,1.19455 3.67006,1.87689 1.0487,0.56014 2.02718,1.22162 2.5853,1.56502 0.27858,0.17141 0.36731,0.11243 0.5395,-0.0791 l 2.54358,-2.82921 c 0.22693,-0.25242 0.0446,-0.35854 -0.0773,-0.46273 -0.98837,-0.84463 -2.20786,-1.4876 -3.47184,-2.16273 -0.37665,-0.20118 -0.64096,-0.32748 -1.01182,-0.5178 0.45522,0.008 0.988,0.0207 1.4118,0.0217 1.55159,0.004 2.70974,0.10993 4.14651,-0.49609 0.35919,-0.15151 0.77584,-0.37389 1.16841,-0.82062 0.39258,-0.44674 0.6841,-1.17189 0.68161,-1.81229 -0.005,-1.28081 -0.61439,-1.90797 -1.15239,-2.47841 -1.07598,-1.14085 -2.66971,-2.22652 -5.29683,-3.82819 -0.042,-0.0256 -0.14903,-0.097 -0.19534,-0.12505 0.26507,0.0604 0.85231,0.14383 0.99788,0.18758 0.85403,0.25666 1.72593,0.39166 2.69751,0.10129 0.97155,-0.29037 1.87986,-1.22579 2.16575,-2.14044 0.5718,-1.82929 -0.0968,-3.19834 -0.9219,-4.65605 -3.60004,-5.01699 -7.92899,-7.50868 -12.4008,-9.77924 -2.27007,-1.15225 -4.12739,-2.20316 -4.12739,-2.33526 0,-0.1321 1.85732,-0.0497 4.12739,0.18293 l 3.63234,0.37207 c 0.003,3.3e-4 0.006,7.5e-4 0.009,0.001 0.58046,0.0691 1.05666,0.10933 1.63815,0.0997 0.58149,-0.01 1.00679,0.0101 1.71721,-0.10025 0.64879,-0.10046 1.64265,-0.52096 2.36316,-1.30431 0.89564,-0.94425 1.07715,-2.61237 0.75809,-3.49023 -0.33211,-0.9138 -0.79917,-1.44844 -1.24798,-1.95699 -0.89762,-1.01708 -1.94595,-1.93282 -2.13476,-2.15232 l -0.0119,-0.0139 -0.0119,-0.0155 c -1.38421,-1.5599 -2.84594,-2.20882 -3.5419,-2.62672 l -1.89963,-1.30069 1.42886,0.37827 c 1.3048,0.34512 1.42885,0.15929 1.42885,-2.13734 0,-1.70744 -0.32259,-2.63839 -1.00459,-2.90008 -0.70207,-0.26941 -2.57075,-0.3959 -4.67465,-0.40669 z"
       sodipodi:nodetypes="ssssssscccsscscscsccsssssssssssccssssscsssccsccccccssscccccssss" /><path
       id="path6854"
       style="fill:#70c4d5;stroke-width:0.635"
       d="m 501.28568,182.93405 c -0.44193,0.003 -0.85717,0.17117 -1.25367,0.50023 -1.4705,1.2204 -1.08849,2.92129 1.38441,6.16087 1.2686,1.66195 3.19776,4.59293 4.28656,6.51381 l 2.78799,4.92028 c 0.80825,1.42747 2.01771,4.10762 3.46796,8.34196 0.14662,0.71916 0.38879,1.63682 0.67593,2.78898 0.15854,0.63617 0.31404,1.27052 0.42943,1.77353 0.1154,0.50301 0.18967,1.02068 0.17415,0.82786 0.0951,1.1831 1.13091,2.06533 2.31407,1.97094 1.18419,-0.0951 2.06684,-1.13253 1.97094,-2.31666 -0.0463,-0.57516 -0.14251,-0.89072 -0.26975,-1.44539 -0.12725,-0.55466 -0.286,-1.20347 -0.447,-1.8495 -0.322,-1.29205 -0.6828,-2.77671 -0.68782,-2.80448 l -0.0289,-0.16019 -0.0527,-0.15452 c -2.39682,-7.00455 -4.35183,-10.3105 -6.35459,-14.30521 -2.00277,-3.99471 -2.55833,-4.88035 -3.93626,-6.88109 -1.81141,-2.63007 -3.2389,-3.88899 -4.46071,-3.88142 z"
       sodipodi:nodetypes="ssssccsscccssscccss" /><path
       style="fill:#70c4d5;stroke-width:0.635"
       d="m 439.13522,283.38903 c 2.0132,-4.07922 7.02931,-5.28392 10.35371,-2.48662 2.55494,2.14983 3.59007,5.32854 2.65645,8.15743 -1.96788,5.96274 -9.46003,6.87279 -12.70906,1.54375 -1.51907,-2.49157 -1.60585,-4.57085 -0.3011,-7.21456 z"
       id="path6846" /><path
       style="fill:#70c4d5;stroke-width:0.635"
       d="m 394.27476,170.78488 c 0.37105,-0.58584 3.79168,-1.27557 10.30903,-2.07869 5.36454,-0.66106 16.57781,-2.07616 24.91836,-3.14467 13.90771,-1.78171 15.24895,-1.85843 16.18174,-0.92564 0.77826,0.77826 0.85497,1.27523 0.32666,2.11642 -0.54316,0.86483 -3.11458,1.43522 -12.05424,2.67384 l -11.3638,1.57451 9.76754,0.75446 c 9.97488,0.77048 12.14256,1.45655 11.32593,3.58465 -0.19397,0.50549 -2.41378,1.77956 -4.93289,2.83126 l -4.58021,1.91217 8.49731,0.46307 c 9.79086,0.53357 11.5808,1.27618 9.08696,3.77002 -0.60221,0.60222 -2.0964,0.99786 -3.76848,0.99786 -2.62736,0 -10.96716,1.48057 -13.01366,2.31032 -1.43277,0.58092 1.66802,1.36205 10.97129,2.76384 4.46258,0.67241 8.39164,1.39429 8.73125,1.60418 0.76493,0.47275 0.81324,2.65071 0.069,3.11068 -0.30165,0.18643 -3.19722,0.63902 -6.43458,1.00576 -3.23737,0.36673 -6.29533,0.89579 -6.79547,1.17568 -1.09512,0.61286 2.90583,1.55779 12.50852,2.95421 8.1061,1.17879 8.255,1.22953 8.255,2.81306 0,1.71149 -1.43207,2.34293 -6.5146,2.87244 -4.96453,0.51722 -5.09332,1.31194 -0.31094,1.91877 5.01459,0.63629 5.55554,0.88784 5.55554,2.58344 0,1.14523 -0.63462,1.85556 -2.5147,2.81471 -3.37656,1.72259 -5.59144,1.69072 -5.85489,-0.0842 -0.15998,-1.07794 -1.00891,-1.58931 -4.01291,-2.41728 -7.90082,-2.17764 -9.78853,-4.3872 -5.48443,-6.4195 l 2.13557,-1.00837 -6.16511,-1.48504 c -9.37711,-2.25873 -11.07591,-4.66109 -4.89074,-6.91626 1.46146,-0.53286 2.65721,-1.15873 2.65721,-1.39081 0,-0.23208 -1.35731,-0.61206 -3.01625,-0.84438 -1.65894,-0.23234 -4.87362,-1.05496 -7.14375,-1.82806 -3.15518,-1.07451 -4.17251,-1.72091 -4.31857,-2.74397 -0.19613,-1.37379 0.96512,-2.07271 5.27107,-3.1725 1.74512,-0.44572 1.61188,-0.52472 -1.5875,-0.94131 -1.92087,-0.25012 -5.25507,-0.48302 -7.40931,-0.51756 -2.15425,-0.0345 -4.36882,-0.23624 -4.92125,-0.44824 -1.01461,-0.38934 -1.4085,-3.10356 -0.52819,-3.63961 0.26194,-0.1595 3.90525,-0.77702 8.09625,-1.37225 4.191,-0.59525 7.86016,-1.30756 8.1537,-1.58293 0.29354,-0.27537 -3.99271,-0.69361 -9.525,-0.92942 -24.18333,-1.0308 -27.611,-1.66018 -25.67645,-4.71461 z"
       id="path6838" /><path
       style="fill:#70c4d5;stroke-width:0.635"
       d="m 352.47297,95.235181 c 1.13896,-5.793415 3.25098,-5.976892 8.35728,-0.726033 2.03781,2.0955 3.76799,3.809999 3.84483,3.809999 0.0768,0 0.22906,-1.643062 0.33826,-3.651249 0.35001,-6.436563 2.51852,-8.683262 5.59313,-5.794813 0.85702,0.805129 2.75465,3.402743 4.21694,5.772467 1.46229,2.369731 2.80729,4.307637 2.98888,4.306468 0.18159,-0.0013 0.33016,-2.958103 0.33016,-6.570967 0,-10.640217 1.66858,-11.201106 9.72616,-3.269405 3.01573,2.968625 5.58113,5.3975 5.70089,5.3975 0.11975,0 0.0237,-2.224818 -0.21354,-4.94404 -0.47529,-5.448509 0.15313,-6.780631 3.00779,-6.375952 1.34993,0.191364 1.50268,0.627006 1.96518,5.604992 0.27582,2.968625 0.36608,7.511592 0.2006,10.095477 -0.47573,7.427845 -2.75797,8.346025 -6.60895,2.658895 -1.15327,-1.703157 -3.6714,-4.769578 -5.59583,-6.814265 l -3.49897,-3.717607 0.44496,6.667499 c 0.6983,10.463823 0.71545,10.216983 -0.77923,11.219933 -1.25568,0.84258 -1.55537,0.75024 -3.71269,-1.14391 -1.29071,-1.13326 -3.81929,-4.22116 -5.61906,-6.862 l -3.27231,-4.801522 -0.3175,4.127502 c -0.37462,4.87004 -0.80874,5.715 -2.93623,5.715 -1.10879,0 -2.63773,-1.09782 -5.04253,-3.62064 -1.89818,-1.99135 -3.45124,-3.848728 -3.45124,-4.127499 0,-0.278778 -0.28575,-0.506864 -0.635,-0.506864 -0.34925,0 -0.635,0.657225 -0.635,1.4605 0,2.729563 -2.24612,3.822673 -4.08214,1.986643 -1.09096,-1.09096 -1.12696,-1.765148 -0.31484,-5.896109 z"
       id="path6836" /><path
       style="fill:#70c4d5;stroke-width:0.635"
       d="m 349.91852,149.52716 c 0.74571,-2.56221 2.34096,-4.11746 5.05846,-4.93164 6.80894,-2.04001 11.66431,6.91551 6.60972,12.19137 -2.10037,2.19232 -4.22793,2.75207 -6.9925,1.83967 -3.5748,-1.17978 -5.74911,-5.41123 -4.67568,-9.0994 z"
       id="path6834" /><path
       style="fill:#70c4d5;stroke-width:0.635"
       d="m 255.58902,286.27782 c 0.56627,-0.46996 1.72779,-0.63707 2.8575,-0.41112 1.36402,0.2728 1.90343,0.13728 1.90343,-0.4782 0,-1.33814 1.71134,-2.43142 3.11074,-1.98727 2.20628,0.70025 7.02498,15.54232 7.05898,21.74238 0.0183,3.3354 1.05374,3.61077 1.43615,0.38194 0.478,-4.03599 2.79111,-10.14073 4.02123,-10.61276 1.84328,-0.70734 3.37962,0.86459 4.45463,4.5578 l 1.05836,3.63604 1.10175,-4.02005 c 1.23343,-4.5005 1.86561,-5.40721 3.54463,-5.08386 1.88499,0.36302 3.88726,4.0523 5.03838,9.28349 1.50331,6.83165 1.62836,7.11316 2.22934,5.01857 0.71638,-2.49676 1.78599,-3.61065 3.46712,-3.61065 1.74985,0 2.60493,1.93637 5.0467,11.42847 0.94313,3.66629 1.8278,6.779 1.96594,6.91714 0.29329,0.2933 0.42053,-0.10152 1.87642,-5.8223 1.27702,-5.01798 3.32784,-8.39581 5.09742,-8.39581 1.46746,0 3.46474,3.56747 3.46623,6.19125 0.001,2.55642 1.05754,2.1309 1.57601,-0.635 0.82443,-4.39797 2.02832,-6.50875 3.71232,-6.50875 2.70113,0 3.05693,1.2358 1.65653,5.75371 -0.69706,2.24884 -2.2583,8.07209 -3.46943,12.94057 -2.41355,9.70192 -3.25565,11.00357 -5.99716,9.26984 -0.69866,-0.44184 -0.99795,-2.28641 -1.18326,-7.29277 -0.13644,-3.68575 -0.44242,-6.70135 -0.67996,-6.70135 -0.23754,0 -0.75133,1.50018 -1.14175,3.33375 -1.18045,5.54398 -1.86799,6.82624 -3.66012,6.82624 -2.10446,0 -5.05729,-4.04469 -6.4395,-8.82061 -1.83218,-6.33073 -1.94152,-6.41842 -2.4617,-1.97438 -0.66388,5.67169 -1.24486,6.98499 -3.09003,6.98499 -2.76831,0 -3.75621,-2.66308 -4.90491,-13.22205 -0.38941,-3.57956 -0.92644,-7.28391 -1.19339,-8.23188 -0.4079,-1.44853 -0.5517,-1.11558 -0.90116,2.08644 -1.69719,15.55092 -2.04327,16.8275 -4.56207,16.8275 -2.16837,0 -2.68992,-1.67082 -3.53634,-11.32891 -0.38746,-4.42123 -0.81329,-8.15766 -0.94629,-8.30318 -0.61882,-0.67709 -0.84208,1.01775 -1.45863,11.07286 -0.8882,14.48527 -1.82868,17.70202 -5.06458,17.32258 -1.97855,-0.23201 -2.05487,-0.59843 -3.54493,-17.01835 -1.06574,-11.74419 -2.51484,-20.79949 -3.48979,-21.80755 -0.28461,-0.29427 -0.69364,3.42047 -0.90894,8.255 -0.75835,17.02812 -1.23145,21.2985 -2.44369,22.05765 -0.8065,0.50506 -1.416,0.50379 -2.2225,-0.004 -0.99792,-0.62906 -1.12865,-2.20497 -1.28184,-15.4527 -0.13899,-12.0186 -0.3449,-14.92652 -1.11125,-15.69286 -1.28515,-1.28514 -1.27546,-7.40158 0.0134,-8.47125 z"
       id="path6832" /><path
       style="fill:#70c4d5;stroke-width:0.635"
       d="m 255.58898,-18.522149 c 0.56627,-0.469954 1.72779,-0.63707 2.8575,-0.411127 1.36402,0.272804 1.90343,0.137291 1.90343,-0.478187 0,-1.338143 1.71134,-2.431424 3.11074,-1.987273 2.20628,0.700246 7.02498,15.5423223 7.05898,21.74237275 0.005,0.97516115 0.28672,2.20164515 0.62528,2.72552005 0.46942,0.7263764 0.61786,0.4784496 0.62528,-1.0443622 0.0159,-3.2586831 2.4531,-10.2459494 3.93626,-11.284794 2.02358,-1.4173686 3.46159,-0.2655443 4.7428,3.7989068 l 1.11045,3.5227783 1.06691,-3.8975597 c 1.19848,-4.378261 1.83865,-5.283201 3.50977,-4.961373 1.88499,0.363016 3.88726,4.0522975 5.03838,9.2834861 1.54474,7.0199332 1.5805,7.0888561 2.41243,4.6508449 0.40437,-1.1850153 1.34495,-2.5551286 2.09016,-3.04469767 2.46382,-1.61858813 3.34731,0.15965295 6.93401,13.95629367 0.61655,2.371617 1.31598,4.086117 1.55429,3.81 0.23831,-0.276111 0.79808,-2.216524 1.24394,-4.312024 1.33973,-6.2966151 3.9502,-10.4216351 6.07841,-9.6049648 1.21436,0.4659883 2.83691,4.1924347 2.83691,6.5154038 0,2.443105 0.75707,1.369416 2.2225,-3.152006 1.08362,-3.3433826 1.51095,-3.9464414 2.91186,-4.1092865 3.04715,-0.3542119 3.24239,0.9558514 1.16916,7.8452455 -1.0453,3.473583 -2.58692,9.283146 -3.42582,12.910139 -0.8389,3.626999 -1.80865,6.877913 -2.15499,7.224261 -0.34635,0.346348 -1.32856,0.454323 -2.1827,0.239954 -1.88525,-0.473171 -2.35001,-2.327358 -2.35001,-9.375622 0,-2.750344 -0.22676,-5.000625 -0.50392,-5.000625 -0.27715,0 -0.82334,1.500188 -1.21376,3.33375 -1.18045,5.543981 -1.86799,6.826249 -3.66012,6.826249 -2.11786,0 -5.12341,-4.136599 -6.42981,-8.849486 -1.52364,-5.496616 -1.68773,-5.658802 -2.28947,-2.263012 -1.17438,6.627373 -1.34747,6.984999 -3.38063,6.984999 -2.647,0 -3.30651,-1.770659 -4.75661,-12.770687 -0.67544,-5.1237384 -1.35472,-9.44252346 -1.50951,-9.59730787 -0.25646,-0.25646251 -0.54076,1.80774897 -1.37528,9.98549587 -0.86416,8.468258 -1.4988,10.159999 -3.81145,10.159999 -1.10462,0 -1.76385,-0.48126 -2.18825,-1.597514 -0.56471,-1.485315 -1.89946,-13.2731748 -1.90066,-16.7857341 -3.4e-4,-0.9952583 -0.22042,-1.3358627 -0.61087,-0.9454114 -0.33568,0.3356857 -0.90148,5.3220214 -1.25732,11.0807465 -0.62769,10.158247 -1.38445,14.703646 -2.72111,16.344162 -0.7685,0.943204 -3.42871,1.05678 -3.9769,0.169799 -0.21209,-0.343173 -0.93665,-6.41536 -1.61013,-13.493748 -1.34002,-14.0838609 -1.61892,-16.31136193 -2.66852,-21.3125313 -0.78746,-3.7520755 -1.75317,-4.9660357 -1.77476,-2.2309916 -0.008,0.9810489 -0.28601,7.60329812 -0.61836,14.7161089 -0.60819,13.016184 -0.96466,14.690114 -3.12831,14.690114 -2.41368,0 -2.58925,-1.08813 -2.58925,-16.0473565 0,-12.062982 -0.16136,-14.6847158 -0.9525,-15.4758545 -1.29638,-1.296375 -1.29524,-7.406831 0.001,-8.483093 z"
       id="path6830" /><path
       style="fill:#70c4d5;stroke-width:0.635"
       d="m 245.29273,190.52635 c 2.84072,-2.78795 4.8236,-3.33868 6.17182,-1.71416 0.64634,0.77878 0.54865,1.55109 -0.52206,4.1275 -0.72443,1.74319 -1.10528,3.16945 -0.84632,3.16945 0.25896,0 2.42862,-1.28588 4.82146,-2.8575 4.82781,-3.17092 6.32148,-3.48562 7.35734,-1.55011 0.56858,1.06242 0.33274,2.09154 -1.25868,5.49232 -1.0771,2.30172 -1.81749,4.3258 -1.64533,4.49797 0.40906,0.40906 5.84363,-4.24805 14.85102,-12.72643 7.11892,-6.70084 8.6049,-7.59032 10.13097,-6.06425 1.27718,1.27717 0.90858,2.6775 -3.07445,11.68029 -2.11005,4.76931 -3.72629,8.78164 -3.59165,8.91628 0.13466,0.13465 2.07537,-1.41597 4.31271,-3.4458 2.23734,-2.02984 4.99707,-4.33866 6.13274,-5.13072 2.65303,-1.85032 4.8542,-1.60031 5.10839,0.58021 0.33534,2.87662 -6.03895,17.62141 -7.87086,18.20663 -0.3837,0.12257 -1.38382,-0.33303 -2.2225,-1.01243 l -1.52488,-1.23529 1.77776,-3.6264 1.77776,-3.6264 -2.41276,1.92012 c -1.32702,1.05607 -3.12226,2.68076 -3.98943,3.61044 -4.28198,4.59065 -8.26583,5.20596 -8.26583,1.27668 0,-1.76999 2.40358,-9.37316 4.81246,-15.22311 0.28763,-0.6985 -2.0018,0.97541 -5.08763,3.7198 -6.18628,5.5018 -14.47805,11.2027 -16.29396,11.2027 -2.18826,0 -2.58345,-2.09973 -1.21615,-6.46155 0.69239,-2.20877 1.26258,-4.03518 1.26709,-4.05868 0.004,-0.0235 -2.00444,0.95631 -4.46433,2.17734 l -4.47252,2.22006 -1.29463,-1.29462 c -1.17966,-1.17967 -1.22414,-1.52987 -0.50085,-3.94397 0.60525,-2.02015 0.61763,-2.82547 0.0521,-3.39097 -1.3108,-1.3108 -0.80359,-2.70237 1.98117,-5.4354 z"
       id="path6828" /><path
       style="fill:#70c4d5;stroke-width:0.635"
       d="m 233.68988,148.93325 c 1.87953,-2.38945 5.06053,-3.27826 7.71437,-2.15552 4.36408,1.84628 6.01567,5.9904 4.04363,10.14616 -1.04582,2.20392 -4.10561,4.26025 -6.33918,4.26025 -1.6096,0 -4.60517,-1.73858 -5.70771,-3.31266 -1.44226,-2.05913 -1.28458,-6.9379 0.28889,-8.93823 z"
       id="path6826" /><path
       style="fill:#70c4d5;stroke-width:0.635"
       d="m 195.23205,183.43443 c 2.14507,-1.78025 4.31431,0.5029 10.53407,11.08721 1.84709,3.14325 4.0256,6.59922 4.84112,7.67993 1.65466,2.19272 1.85185,3.44449 0.72078,4.57557 -2.13269,2.13269 -3.90347,0.50859 -9.03465,-8.28627 -1.98652,-3.40492 -4.59545,-7.47933 -5.79761,-9.05424 -2.3585,-3.0898 -2.71763,-4.79556 -1.26371,-6.0022 z"
       id="path6824" /><path
       style="fill:#70c4d5;stroke-width:0.635"
       d="m 181.41432,237.67045 c 0.88881,-0.8888 1.84863,-1.00829 5.55625,-0.69174 2.46502,0.21047 7.19648,0.55189 10.51436,0.75874 l 6.0325,0.37608 -5.3975,-2.95316 c -6.83696,-3.74075 -9.525,-5.78839 -9.525,-7.2558 0,-2.45057 1.49697,-2.80113 10.18648,-2.38549 9.33077,0.44632 10.93895,0.97404 10.64783,3.49401 -0.19183,1.66037 -0.30543,1.70354 -4.48315,1.70354 -2.35749,0 -4.2863,0.0678 -4.28625,0.15077 5e-5,0.0829 2.07178,1.18566 4.60384,2.45052 6.77973,3.38673 8.84547,5.09929 8.60888,7.137 -0.17563,1.51269 -0.54416,1.7339 -3.68763,2.21344 -1.92087,0.29303 -6.13569,0.38986 -9.36625,0.21517 -3.23056,-0.17469 -5.87375,-0.24129 -5.87375,-0.148 0,0.0933 2.07169,1.24535 4.60375,2.56014 5.79721,3.01023 14.29445,8.61209 16.27016,10.72621 1.08271,1.15855 1.39772,2.04499 1.11999,3.15158 -0.33682,1.34198 -0.86341,1.59362 -4.10159,1.95998 -2.04334,0.23117 -4.26184,0.21621 -4.92999,-0.0333 -0.66815,-0.24947 0.42824,1.10952 2.43643,3.01997 5.0309,4.78606 4.83699,7.55398 -0.52919,7.55398 -2.1224,0 -2.7232,0.25532 -2.98855,1.27 -0.44799,1.71313 -2.34429,1.61912 -6.14017,-0.30441 -5.43059,-2.75188 -4.91022,-5.85302 1.03603,-6.17423 l 3.49634,-0.18886 -4.19195,-3.07266 c -5.09688,-3.73597 -5.83983,-4.88745 -4.3258,-6.70451 1.01978,-1.22388 1.45755,-1.28218 5.86454,-0.78108 2.61937,0.29784 4.83975,0.47967 4.93416,0.40406 0.43355,-0.34718 -6.12826,-4.20177 -15.41166,-9.05325 -11.85779,-6.19684 -12.93043,-7.14141 -10.67311,-9.39874 z"
       id="path6818" /><path
       style="fill:#70c4d5;stroke-width:0.635"
       d="m 134.34328,283.30795 c 1.10383,-2.1705 4.24167,-4.01382 6.83264,-4.01382 2.1666,0 5.26281,2.72745 6.15087,5.41828 1.8852,5.71221 -3.78879,11.17709 -9.23997,8.89944 -3.87659,-1.61974 -5.66149,-6.53258 -3.74354,-10.3039 z"
       id="path6816" /><path
       style="fill:#70c4d5;stroke-width:0.635"
       d="m 95.68712,52.829892 c 1.42469,-0.357575 2.00247,-0.07465 3.4925,1.710169 0.98197,1.176236 1.7854,2.363724 1.7854,2.638857 0,0.275126 0.2754,0.500233 0.61201,0.500233 0.33839,0 0.69325,-2.767882 0.79375,-6.191249 l 0.18174,-6.191249 1.74299,-0.200616 c 1.53553,-0.176733 2.05416,0.295662 4.35718,3.96875 1.4378,2.29315 2.76585,4.169365 2.95122,4.169365 0.52901,0 -0.29547,-6.993902 -2.19238,-18.597415 -1.84907,-11.310835 -1.75028,-12.630955 0.97557,-13.036815 1.12032,-0.166808 2.36035,1.34841 7.16314,8.752839 3.19455,4.925015 5.87914,8.873419 5.96577,8.774232 0.0866,-0.09919 -0.22189,-2.466339 -0.6856,-5.260339 -1.56236,-9.413817 -1.08161,-13.017499 1.73658,-13.017499 1.97624,0 11.53836,14.38139 11.18779,16.826381 -0.13152,0.917232 -0.74848,1.325892 -2.21606,1.467866 -1.8774,0.181616 -2.16146,-0.05518 -3.69394,-3.079388 -0.91308,-1.801876 -1.74347,-3.176289 -1.84531,-3.054248 -0.10185,0.122034 0.25574,3.427355 0.79464,7.345152 0.93412,6.79107 0.92535,7.18345 -0.18805,8.413749 -0.64233,0.709765 -1.44032,1.290485 -1.77331,1.290485 -0.96833,0 -5.96804,-5.681643 -8.81752,-10.020172 -1.44047,-2.193213 -2.73841,-3.868286 -2.88433,-3.722376 -0.14591,0.14591 0.17895,3.450374 0.72192,7.343254 1.13435,8.132984 1.28736,16.716938 0.32986,18.506038 -0.36154,0.675538 -1.21186,1.228255 -1.8896,1.228255 -1.23035,0 -4.76258,-3.395015 -6.09464,-5.857875 -0.60073,-1.110703 -0.80363,-0.630974 -1.38238,3.268371 -1.03864,6.997902 -2.59697,8.031974 -6.19099,4.108221 -1.1543,-1.260209 -2.3815,-2.116531 -2.72709,-1.902943 -1.88804,1.16687 -3.91796,-2.885954 -3.91796,-7.822367 0,-1.564285 0.32291,-2.010258 1.7071,-2.357666 z"
       id="path6810" /><path
       style="fill:#70c4d5;stroke-width:0.635"
       d="m 89.48147,170.77391 c 0.38152,-0.60256 3.69317,-1.26279 10.30902,-2.05528 5.36082,-0.64215 16.56994,-2.0534 24.90917,-3.13611 13.92047,-1.80735 15.24572,-1.88508 16.18173,-0.94906 0.78015,0.78015 0.85749,1.27761 0.32942,2.11884 -0.53974,0.85982 -2.88934,1.39373 -10.78424,2.45051 -5.55178,0.74314 -10.66564,1.47003 -11.36414,1.61532 -0.6985,0.14528 3.12276,0.58266 8.4917,0.97196 9.98589,0.72407 12.15529,1.40363 11.33177,3.54967 -0.19397,0.50549 -2.39024,1.76974 -4.8806,2.80943 l -4.52791,1.89033 5.84382,0.41481 c 3.2141,0.22814 7.07575,0.41481 8.58143,0.41481 2.05488,0 2.90123,0.30572 3.39369,1.2259 1.00212,1.87248 -0.74758,3.2191 -4.18265,3.2191 -2.52176,0 -10.3612,1.41059 -12.93875,2.32814 -1.65365,0.58865 1.41037,1.37884 10.51603,2.712 4.71065,0.68969 8.84364,1.42629 9.1844,1.6369 0.72893,0.4505 0.8315,2.64346 0.14332,3.06414 -0.26194,0.16012 -3.16519,0.61701 -6.45167,1.01532 -10.39567,1.25989 -9.59259,1.78675 6.61042,4.33672 6.29244,0.99029 7.00456,1.23668 7.18228,2.48506 0.2614,1.83612 -1.12119,2.48244 -6.51297,3.04459 -4.71971,0.49208 -4.62179,1.14716 0.28319,1.89451 4.59184,0.69965 5.08,0.94902 5.08,2.595 0,1.14523 -0.63462,1.85556 -2.5147,2.81471 -3.37656,1.72259 -5.59144,1.69072 -5.85489,-0.0842 -0.15998,-1.07794 -1.00891,-1.58931 -4.01291,-2.41728 -7.88872,-2.1743 -9.78775,-4.38757 -5.50127,-6.41155 l 2.11875,-1.00042 -5.29375,-1.32384 c -6.79421,-1.69909 -8.7313,-2.47273 -9.19104,-3.67081 -0.53075,-1.38309 0.63388,-2.5217 3.57072,-3.49094 1.402,-0.4627 2.54909,-1.05448 2.54909,-1.31505 0,-0.26058 -1.35731,-0.67338 -3.01625,-0.91734 -1.65894,-0.24395 -4.87362,-1.05658 -7.14375,-1.80583 -3.2533,-1.07375 -4.16966,-1.65865 -4.32655,-2.76157 -0.17141,-1.20494 0.31371,-1.55472 3.4925,-2.51826 l 3.69155,-1.11896 -3.4925,-0.4352 c -1.92087,-0.23935 -5.34987,-0.46783 -7.62,-0.50772 -4.82742,-0.0848 -5.90431,-0.5962 -5.61181,-2.66488 0.20247,-1.43193 0.65296,-1.57923 8.15181,-2.66558 4.36563,-0.63243 8.17766,-1.38695 8.4712,-1.6767 0.29354,-0.28975 -3.99271,-0.71975 -9.525,-0.95556 -24.20646,-1.03179 -27.61156,-1.65864 -25.66966,-4.72558 z"
       id="path6808" /><path
       style="fill:#70c4d5;stroke-width:0.635"
       d="m 47.65415,95.583841 c 1.02453,-6.120409 3.1166,-6.387141 8.42905,-1.074693 2.0955,2.0955 3.83737,3.809999 3.87082,3.809999 0.0335,0 0.15016,-1.643062 0.25936,-3.651249 0.52089,-9.578803 4.34281,-9.307067 10.34975,0.735869 1.16797,1.952708 2.27113,3.549422 2.45147,3.548253 0.18034,-0.0013 0.3279,-2.958103 0.3279,-6.570967 0,-10.640217 1.66857,-11.201106 9.72615,-3.269405 3.01574,2.968625 5.58114,5.3975 5.70089,5.3975 0.11976,0 0.0237,-2.224818 -0.21354,-4.94404 -0.47528,-5.448509 0.15314,-6.780631 3.0078,-6.375952 1.34993,0.191364 1.50267,0.627006 1.96518,5.604992 0.6088,6.552609 0.18352,14.349552 -0.85065,15.595662 -0.41736,0.50288 -1.1398,0.91434 -1.60543,0.91434 -0.46562,0 -2.95997,-2.64319 -5.54301,-5.873753 -2.58303,-3.230562 -5.35119,-6.445249 -6.15145,-7.143749 l -1.45503,-1.27 0.50938,6.667499 c 0.77615,10.159323 0.77323,10.203703 -0.74124,11.219933 -1.25568,0.84258 -1.55536,0.75024 -3.71268,-1.14391 -1.29072,-1.13326 -3.81929,-4.22116 -5.61906,-6.862 L 65.0875,96.096648 64.77,100.22415 c -0.37462,4.87004 -0.80874,5.715 -2.93623,5.715 -1.10879,0 -2.63773,-1.09782 -5.04253,-3.62064 C 54.89305,100.32716 53.34,98.469782 53.34,98.191011 c 0,-0.278778 -0.28575,-0.506864 -0.635,-0.506864 -0.34925,0 -0.635,0.704323 -0.635,1.565161 0,0.895652 -0.52357,1.845362 -1.224,2.220222 -1.25738,0.67293 -3.221,0.29106 -3.221,-0.62638 0,-0.28332 -0.10842,-0.895691 -0.24094,-1.360816 -0.13252,-0.465131 -0.011,-2.219452 0.27009,-3.898493 z"
       id="path6806" /><path
       style="fill:#70c4d5;stroke-width:0.635"
       d="m 46.38906,146.99756 c 0.71724,-0.91182 2.39063,-1.98339 3.71865,-2.38128 6.87437,-2.05961 11.76845,6.85842 6.67904,12.17061 -4.56892,4.76892 -11.70175,1.53897 -11.70175,-5.29889 0,-1.89574 0.4313,-3.3809 1.30406,-4.49044 z"
       id="path6804" /><path
       style="fill:#70c4d5;stroke-width:0.635"
       d="M 1.50906,10.484121 C 3.13412,5.7149793 5.02237,3.3024958 6.64329,3.9245017 7.89557,4.4050443 9.525,8.0988199 9.525,10.457095 c 0,2.443105 0.75706,1.369416 2.2225,-3.152006 1.08362,-3.3433826 1.51095,-3.9464414 2.91185,-4.1092865 2.8037,-0.3259112 3.23704,1.0216564 1.80953,5.6270697 C 15.77182,11.071705 14.21057,16.89496 12.99944,21.763441 10.5859,31.465363 9.74379,32.767012 7.00229,31.033278 6.30363,30.591445 6.00434,28.746872 5.81902,23.740507 5.68259,20.054764 5.37478,17.039155 5.13503,17.039155 c -0.23977,0 -0.77612,1.647012 -1.1919,3.660026 -0.75614,3.660857 -2.21682,6.499973 -3.34414,6.499973 -0.33549,0 -0.59178,-2.72361 -0.5826,-6.191249 0.0126,-4.782216 0.35237,-7.177271 1.49267,-10.523784 z"
       id="path4673" /><path
       id="path6930"
       style="fill:#d0d73e;stroke-width:0.635"
       d="m 509.26349,73.465283 c -2.01308,-0.04773 -3.5036,1.194553 -5.01417,1.963705 -3.24669,1.656325 -6.20799,4.208464 -8.40878,7.246586 -2.0836,2.876268 -2.20049,3.468948 -0.79169,4.009574 0.7094,0.272211 2.04088,-0.756991 4.38578,-3.389457 1.8521,-2.079216 4.53726,-4.308126 5.96656,-4.952669 3.17616,-2.388696 4.42643,-1.506083 7.64191,-1.628325 0.81266,-0.03295 1.14709,0.11426 1.50172,0.380856 0.35261,0.265074 0.73094,0.75915 1.18546,1.478462 1.26148,2.252783 2.74923,4.11917 3.4277,6.060612 0.61441,2.149032 0.5788,4.449383 -0.62891,6.019788 l -0.0114,0.0155 -0.0119,0.0155 c -0.62284,0.854794 -1.0605,1.732722 -1.50017,2.283581 -0.43967,0.55086 -0.63804,0.701641 -1.11518,0.689364 h -0.045 l -0.0465,0.0021 c -2.0155,0.07148 -4.0641,-0.137928 -5.379,-1.051099 -1.25021,-1.074505 -1.86766,-1.887699 -2.71302,-3.367236 -0.5543,-1.578214 -0.33182,-3.396317 0.87127,-4.316016 l 0.0155,-0.01188 0.0155,-0.01395 c 1.47025,-1.187107 2.31935,-1.068325 4.39456,-0.913639 0.41888,0.09865 0.90471,0.383344 1.12913,0.669726 0.23221,0.296322 0.27971,0.405155 0.13074,0.751892 l -0.014,0.03307 -0.0134,0.03359 c -0.13872,0.371383 -0.42156,0.84027 -0.67386,1.083655 -0.2523,0.243384 -0.31205,0.244941 -0.42013,0.224792 -1.74126,0.02506 -2.75504,1.994442 -0.5488,2.949174 1.23326,0.229904 2.35545,-0.342944 3.05097,-1.013891 0.68381,-0.659643 1.10241,-1.430688 1.37873,-2.158008 0.5597,-1.337966 0.21238,-2.8075 -0.52916,-3.753776 -0.74728,-0.953585 -1.79238,-1.551353 -2.92954,-1.783354 l -0.0956,-0.01964 -0.0961,-0.0057 c -2.23054,-0.161908 -4.44666,-0.191562 -6.62492,1.554427 -2.50153,1.920966 -2.79155,5.244476 -1.84743,7.803141 l 0.0429,0.113171 0.0584,0.10542 c 1.00435,1.780259 1.96289,3.044447 3.54139,4.386813 l 0.0506,0.04289 0.0548,0.03876 c 2.23698,1.585865 4.94414,1.686362 7.17941,1.611271 1.57357,0.03407 2.79997,-0.907466 3.52381,-1.81436 0.72623,-0.909889 1.19117,-1.853119 1.57975,-2.386418 1.99669,-2.623557 1.89307,-5.968169 1.10588,-8.687841 l -0.0103,-0.03514 -0.0134,-0.03514 c -0.91313,-2.65538 -2.60008,-4.670198 -3.69538,-6.638355 l -0.0196,-0.03721 -0.0233,-0.03307 c -0.50429,-0.799403 -1.05148,-1.63029 -1.92805,-2.289266 -0.87658,-0.658976 -2.07423,-1.035093 -3.42563,-0.980302 h -0.006 -0.006 c -0.83917,0.03998 -1.86,-0.162937 -2.99568,-0.230476 h -5.2e-4 c -0.21281,-0.01264 -0.42968,-0.02058 -0.65009,-0.02119 z"
       sodipodi:nodetypes="ccsssccscccccscccccscccscccsccscscccccccccscscccccccscccssc" /><path
       style="fill:#d0d73e;stroke-width:0.635"
       d="m 476.93963,206.26946 c 1.0375,-2.50685 3.1471,-4.39275 5.3829,-4.81219 6.7644,-1.26901 11.219,7.83538 6.1436,12.55634 -2.3124,2.1509 -4.7173,2.64717 -7.3986,1.52682 -3.5888,-1.49946 -5.5352,-5.87097 -4.1279,-9.27097 z"
       id="path6928" /><path
       style="fill:#d0d73e;stroke-width:0.635"
       d="m 453.71169,35.589136 c 1.9599,-4.510926 8.78768,-4.920774 11.78773,-0.707581 1.1062,1.553508 1.31877,2.554287 1.07699,5.070494 -0.49589,5.16086 -4.10123,7.76236 -8.80467,6.353174 -4.37296,-1.31017 -6.13085,-5.949937 -4.06005,-10.716087 z"
       id="path6922" /><path
       style="fill:#d0d73e;stroke-width:0.635"
       d="m 441.50934,228.77482 c 0.54626,-0.20962 1.63844,-0.28709 2.42708,-0.17215 1.20557,0.17569 1.57682,0.86618 2.33152,4.33646 0.49369,2.27013 1.1106,4.35446 1.37089,4.63185 0.26029,0.2774 1.68711,-1.06902 3.1707,-2.99203 4.55243,-5.9008 7.20825,-5.35789 7.21203,1.47429 l 0.002,3.8367 2.15021,-1.88791 c 1.18263,-1.03834 2.53391,-1.8879 3.00287,-1.8879 2.26308,0 3.05241,3.50374 2.39618,10.63625 -0.2651,2.88132 -0.40395,5.23875 -0.30855,5.23875 0.0954,0 1.12493,-1.03826 2.28787,-2.30724 1.86823,-2.0386 2.2759,-2.22085 3.50109,-1.56517 0.7926,0.42422 1.3866,1.35207 1.3866,2.1661 0,1.45397 -6.6091,10.29758 -8.47682,11.34281 -3.09913,1.73436 -4.66674,-2.88471 -3.86881,-11.39977 l 0.45101,-4.81295 -1.74057,1.36913 c -1.33325,1.04874 -2.01848,1.2204 -2.92815,0.73356 -1.59434,-0.85326 -2.48669,-2.65101 -2.48669,-5.00972 0,-2.28537 -0.61699,-2.45082 -2.28133,-0.61174 -1.98369,2.19195 -4.52366,3.25101 -5.9571,2.48386 -1.37472,-0.73573 -3.67269,-7.31189 -4.26987,-12.21921 -0.28843,-2.37013 -0.15615,-3.08315 0.62775,-3.38397 z"
       id="path6920" /><path
       style="fill:#d0d73e;stroke-width:0.635"
       d="m 422.55593,289.08528 c 0.90359,-6.66929 1.16251,-7.25115 3.22659,-7.25115 2.23634,0 2.92853,1.79916 2.23635,5.81278 -0.32199,1.86709 -0.77518,5.46829 -1.00708,8.00265 -0.3896,4.25786 -0.54481,4.63885 -2.04306,5.01489 -1.1706,0.29379 -1.85882,0.0823 -2.47514,-0.76055 -1.00133,-1.36941 -0.99171,-3.0388 0.0624,-10.81862 z"
       id="path6918" /><path
       style="fill:#d0d73e;stroke-width:0.635"
       d="m 397.68675,114.5759 c 2.648,-2.01972 7.34368,-4.15972 9.16711,-4.17781 2.09274,-0.0208 3.12773,2.29422 1.72078,3.84888 -0.60584,0.66944 -1.43124,1.21718 -1.83422,1.21718 -0.40298,0 -2.41969,1.01585 -4.48157,2.25745 -2.575,1.55059 -4.20371,2.14331 -5.20139,1.89291 -2.22514,-0.55847 -1.90723,-3.1039 0.62929,-5.03861 z"
       id="path6914" /><path
       style="fill:#d0d73e;stroke-width:0.635"
       d="m 367.45334,167.95748 c 0.23285,-0.23284 3.47469,-0.42334 7.20411,-0.42334 5.76263,0 6.93854,0.17436 7.83166,1.16125 1.46054,1.61387 1.32017,2.61572 -0.65538,4.67775 l -1.7063,1.781 h 5.16279 c 4.56643,0 5.27349,0.15804 6.1211,1.36818 1.48697,2.12294 0.34003,3.33071 -5.33563,5.61857 -2.81863,1.13619 -4.99531,2.19527 -4.83707,2.35351 0.15825,0.15824 3.81261,0.68744 8.12081,1.17601 11.59473,1.31487 15.74907,2.22699 16.4955,3.62171 1.30796,2.44394 -1.68615,4.65044 -13.24993,9.76449 -1.84249,0.81483 -3.34997,1.64808 -3.34997,1.85166 0,0.20359 3.94291,0.17 8.76202,-0.0746 7.77565,-0.3947 8.88364,-0.32314 9.8425,0.63572 2.59451,2.59451 0.9406,3.9544 -5.93477,4.87968 -3.86699,0.52041 -6.41758,0.52489 -9.45852,0.0166 -2.29005,-0.38279 -5.40816,-0.85502 -6.92914,-1.0494 -1.52097,-0.19438 -3.61037,-0.79037 -4.64311,-1.32442 -4.00226,-2.06965 -1.26284,-4.89022 9.20908,-9.48188 6.38839,-2.80115 6.24586,-3.09391 -1.83725,-3.77371 -6.19619,-0.52111 -15.36541,-2.11923 -16.91392,-2.94797 -2.16539,-1.15888 -1.40676,-3.53828 1.71061,-5.36519 1.57162,-0.92103 2.85132,-1.86176 2.84376,-2.09051 -0.008,-0.22875 -0.93625,-0.84454 -2.06375,-1.36841 -2.60951,-1.21247 -2.88023,-2.72001 -0.85258,-4.74766 l 1.60234,-1.60233 h -3.01913 c -1.66053,0 -3.36204,-0.3429 -3.78114,-0.762 -0.82138,-0.82138 -1.02862,-3.20471 -0.33866,-3.89466 z"
       id="path6912" /><path
       style="fill:#d0d73e;stroke-width:0.635"
       d="m 347.02477,224.76209 c 0.9704,-6.26336 2.55862,-7.9806 4.91725,-5.3167 0.79756,0.90078 0.87656,1.7727 0.41709,4.60375 -0.31174,1.92087 -0.78165,5.63562 -1.04423,8.25499 -0.46623,4.65078 -0.52051,4.76742 -2.31353,4.9721 -1.04288,0.11905 -2.06742,-0.15528 -2.37153,-0.635 -0.73358,-1.15716 -0.58805,-5.53448 0.39495,-11.87914 z"
       id="path6910" /><path
       style="fill:#d0d73e;stroke-width:0.635"
       d="m 340.65493,264.91397 c 0.89262,-1.27439 1.65851,-1.34653 19.05973,-1.79545 16.18556,-0.41755 18.29893,-0.35685 19.70751,0.56609 3.37607,2.21209 1.0564,4.42389 -5.35291,5.104 -4.4179,0.46879 -13.73891,3.18 -14.35394,4.17514 -0.20918,0.33846 -0.14915,0.62444 0.1334,0.6355 0.28255,0.0111 3.50357,0.42005 7.15783,0.90886 4.87715,0.65239 6.86099,1.18534 7.45961,2.004 1.31903,1.80388 -0.32491,3.53856 -4.1753,4.40574 -1.81466,0.4087 -3.43998,0.88368 -3.61181,1.05551 -0.17183,0.17183 1.05126,0.80193 2.71799,1.40024 5.55328,1.99347 5.8879,2.20008 5.8879,3.63566 0,0.7658 -0.45232,1.89219 -1.00518,2.50308 -0.92399,1.021 -0.89527,1.16954 0.35556,1.83896 0.96475,0.51632 1.30347,1.21405 1.16393,2.3976 -0.16415,1.39235 -0.82514,1.91209 -3.98338,3.13214 -2.08261,0.80452 -4.28256,1.30535 -4.88876,1.11295 -1.48654,-0.47181 -2.09789,-2.65591 -1.08503,-3.87633 0.69621,-0.83888 0.55841,-1.1826 -0.90003,-2.24499 -1.79316,-1.30622 -2.20831,-2.94833 -1.04062,-4.11602 0.48531,-0.48531 0.0313,-1.08331 -1.57709,-2.07736 -3.10709,-1.92029 -4.88431,-4.31794 -4.4584,-6.01487 0.30437,-1.21273 -0.0412,-1.48098 -2.82772,-2.19515 -5.45389,-1.39778 -5.89424,-3.48638 -1.44976,-6.8763 l 2.74524,-2.09384 h -7.54237 c -8.82224,0 -10.21704,-0.6146 -8.13637,-3.58516 z"
       id="path6908" /><path
       style="fill:#d0d73e;stroke-width:0.635"
       d="m 322.34809,123.76523 c 2.02341,-1.59162 3.58142,-1.65987 5.95008,-0.26067 1.66558,0.98388 1.8582,0.98388 2.84208,0 1.31839,-1.31839 2.47611,-1.34229 3.52964,-0.0729 0.97315,1.17257 1.85455,0.20282 1.87034,-2.0578 0.0128,-1.82526 2.37106,-3.51005 3.82447,-2.73221 0.59312,0.31743 2.02372,2.5184 3.1791,4.89105 l 2.1007,4.3139 0.88714,-3.01625 c 0.78059,-2.65403 1.09239,-3.01067 2.59647,-2.96983 3.17025,0.0861 5.42913,1.98593 6.63581,5.58115 0.82723,2.46466 0.94482,3.64715 0.4539,4.56443 -0.91712,1.71366 -3.55176,1.60244 -4.51827,-0.19075 -0.7271,-1.34898 -0.81467,-1.255 -1.56847,1.6832 -1.38959,5.41647 -3.26108,5.46074 -6.90226,0.16327 l -2.53935,-3.69445 -0.49499,2.38239 c -0.9536,4.58973 -3.48963,5.48071 -5.56895,1.95653 -1.03634,-1.75646 -1.54973,-2.06832 -3.04388,-1.84903 -1.37614,0.20197 -2.03594,-0.10044 -2.81575,-1.29059 -1.88717,-2.88018 -3.00783,-3.68391 -4.22687,-3.03151 -0.78979,0.42268 -1.53772,0.31638 -2.4959,-0.35476 -1.81312,-1.26996 -1.72595,-2.4177 0.30496,-4.01521 z"
       id="path6904" /><path
       style="fill:#d0d73e;stroke-width:0.635"
       d="m 320.39897,282.95336 c 1.05911,-1.95194 3.91755,-3.66044 6.1182,-3.65686 2.11636,0.003 5.52003,2.27675 6.23861,4.16676 1.58454,4.16764 0.10191,8.36264 -3.57171,10.10588 -6.20674,2.94529 -12.20827,-4.30687 -8.7851,-10.61578 z"
       id="path6902" /><path
       style="fill:#d0d73e;stroke-width:0.635"
       d="m 242.12286,56.423661 c 5.32471,-9.222161 10.75102,-15.430085 12.97824,-14.847651 2.67122,0.698538 2.38154,2.536901 -0.99709,6.327635 -1.7384,1.95044 -5.09683,6.965917 -7.46318,11.145506 -4.68984,8.283492 -5.984,9.554158 -7.93371,7.789697 -0.66944,-0.605841 -1.20405,-1.414431 -1.18801,-1.796866 0.016,-0.382429 2.08772,-4.260678 4.60375,-8.618321 z"
       id="path6898" /><path
       style="fill:#d0d73e;stroke-width:0.635"
       d="m 231.09335,80.785605 c 0.99015,-2.306135 3.81458,-4.056455 6.54574,-4.056455 2.01678,0 2.94752,0.42966 4.67686,2.158999 1.84285,1.842853 2.159,2.596032 2.159,5.1435 0,2.547467 -0.31615,3.300647 -2.159,5.143499 -1.7505,1.750505 -2.6497,2.159 -4.75248,2.159 -3.74385,0 -6.4619,-2.547486 -6.79714,-6.370599 -0.13682,-1.560296 0.0103,-3.440372 0.32702,-4.177944 z"
       id="path6896" /><path
       style="fill:#d0d73e;stroke-width:0.635"
       d="m 191.32198,82.340022 c 2.63191,-3.450679 7.46273,-7.13352 10.58359,-8.068551 8.2163,-2.461666 15.22848,2.40157 15.25391,10.579226 0.0201,6.465087 -3.82612,10.921282 -9.43051,10.926076 -2.37656,0.0019 -3.12624,-0.350419 -5.23875,-2.462917 -2.16678,-2.166792 -2.46529,-2.827934 -2.46529,-5.460231 0,-2.531586 0.30512,-3.279959 1.97216,-4.837208 2.29862,-2.147239 5.4327,-2.455703 7.42731,-0.731018 2.003,1.731937 2.30232,3.696963 0.79301,5.206269 -1.52411,1.524108 -2.75815,1.656518 -3.795,0.407194 -0.58715,-0.707479 -0.46735,-1.088384 0.57111,-1.815744 1.72482,-1.208113 0.40157,-2.488952 -1.735,-1.679391 -3.51997,1.333735 -3.25682,5.94981 0.4484,7.865852 6.94213,3.589915 11.93859,-8.646457 5.68071,-13.912112 -4.14962,-3.49168 -11.26121,-1.344796 -16.92169,5.108403 -2.23038,2.542737 -3.48116,3.501536 -4.2053,3.223654 -1.46937,-0.563849 -1.30156,-1.251534 1.06134,-4.349502 z"
       id="path6894" /><path
       style="fill:#d0d73e;stroke-width:0.635"
       d="m 172.31577,205.95164 c 1.25246,-2.75627 3.13082,-4.18822 5.99842,-4.57284 2.22669,-0.29867 2.80145,-0.0778 4.97054,1.91002 2.2216,2.03595 2.4527,2.54755 2.4527,5.42983 0,2.62885 -0.3128,3.50858 -1.79914,5.06 -2.21834,2.31544 -4.89751,2.92067 -7.71595,1.74305 -3.72434,-1.55613 -5.53384,-5.98895 -3.90657,-9.57006 z"
       id="path6892" /><path
       style="fill:#d0d73e;stroke-width:0.635"
       d="m 149.17816,35.043366 c 0.7372,-1.208989 2.11575,-2.294407 3.49013,-2.747994 4.8628,-1.604867 9.24929,1.88346 9.25427,7.359395 0.004,4.918348 -4.23032,8.064772 -8.95088,6.650456 -4.54538,-1.361827 -6.42595,-6.944721 -3.79352,-11.261857 z"
       id="path6886" /><path
       style="fill:#d0d73e;stroke-width:0.635"
       d="m 136.71587,228.77233 c 0.54267,-0.20825 1.63727,-0.2846 2.43244,-0.16966 1.22946,0.1777 1.58212,0.85026 2.35713,4.49521 0.50124,2.35744 1.11461,4.28625 1.36303,4.28625 0.24843,0 1.89116,-1.57162 3.65054,-3.4925 1.75937,-1.92087 3.62445,-3.4925 4.14463,-3.4925 1.79066,0 2.65996,1.95718 2.59452,5.84139 l -0.0637,3.77806 2.01419,-1.95222 c 4.49988,-4.36146 6.48015,-1.27089 5.56424,8.68402 -0.2651,2.88132 -0.39137,5.23875 -0.28061,5.23875 0.11077,0 1.07951,-1.00012 2.15277,-2.2225 2.27448,-2.59049 2.64533,-2.66698 4.40394,-0.90838 1.26114,1.26114 1.27015,1.38275 0.22329,3.01625 -0.59996,0.93618 -2.53809,3.50163 -4.30695,5.70102 -2.80909,3.4928 -3.45704,3.97498 -5.11974,3.81 -1.65541,-0.16426 -1.97538,-0.5201 -2.45389,-2.72889 -0.30264,-1.397 -0.36751,-4.93211 -0.14416,-7.85581 l 0.40609,-5.31581 -1.66741,1.31158 c -0.91707,0.72137 -2.08836,1.15004 -2.60286,0.95261 -1.24883,-0.47922 -2.79349,-3.55972 -2.79349,-5.57103 0,-1.97516 -0.68544,-2.05391 -2.28283,-0.26228 -1.71476,1.92327 -4.74706,3.1089 -6.09971,2.38499 -1.22429,-0.65522 -3.41228,-7.11479 -4.05754,-11.97896 -0.33796,-2.54769 -0.2267,-3.24539 0.56604,-3.54959 z"
       id="path6884" /><path
       style="fill:#d0d73e;stroke-width:0.635"
       d="m 117.56762,289.94632 c 0.74733,-6.52757 1.39318,-8.11219 3.30632,-8.11219 2.60286,0 3.03499,1.20507 2.30267,6.42128 -0.36224,2.58017 -0.86544,6.40572 -1.11823,8.50122 -0.41042,3.4022 -0.62553,3.83344 -2.00971,4.02905 -0.95227,0.13457 -1.86995,-0.21836 -2.37943,-0.91511 -0.9158,-1.25244 -0.93047,-2.68464 -0.10162,-9.92425 z"
       id="path6882" /><path
       style="fill:#d0d73e;stroke-width:0.635"
       d="m 92.88683,114.5759 c 2.61553,-1.99496 7.33629,-4.15948 9.11169,-4.17781 1.84024,-0.019 3.2113,1.69479 2.39332,2.99156 -1.02275,1.62141 -11.02342,6.61251 -12.38413,6.18063 -1.94782,-0.61821 -1.49646,-3.18243 0.87912,-4.99438 z"
       id="path6878" /><path
       style="fill:#d0d73e;stroke-width:0.635"
       d="m 62.65335,167.95748 c 0.23283,-0.23284 3.47467,-0.42334 7.20408,-0.42334 5.76264,0 6.93855,0.17436 7.83167,1.16125 1.46054,1.61387 1.32017,2.61572 -0.65538,4.67775 l -1.70631,1.781 h 5.12105 c 5.55243,0 6.81425,0.64433 6.43655,3.28678 -0.16567,1.15912 -1.27752,1.89394 -5.5168,3.64609 -6.05761,2.50367 -5.87244,2.80677 2.13431,3.49364 7.69234,0.6599 16.13058,2.30229 17.17025,3.34196 2.26573,2.26572 0.95224,3.48822 -8.77172,8.16405 -4.09532,1.96925 -7.44603,3.71202 -7.44603,3.87282 0,0.1608 4.20356,0.20682 9.34125,0.10226 l 9.34126,-0.1901 0.63698,1.78364 c 0.8377,2.3457 0.22626,2.68717 -6.52865,3.64603 -4.02867,0.57187 -6.4452,0.58873 -9.56678,0.0667 -2.29711,-0.38412 -5.421,-0.85744 -6.94197,-1.05182 -5.09337,-0.65093 -7.50138,-2.74894 -5.95144,-5.18527 0.46205,-0.72631 9.80308,-5.51773 14.04193,-7.20273 1.82988,-0.7274 1.97173,-0.92057 0.9525,-1.29707 -0.65867,-0.2433 -3.34071,-0.63801 -5.96008,-0.87711 -6.64593,-0.60667 -15.764,-2.16082 -17.20648,-2.93281 -2.22563,-1.19113 -1.50515,-3.54973 1.64898,-5.39817 1.57162,-0.92103 2.85131,-1.86177 2.84376,-2.09052 -0.008,-0.22875 -0.93625,-0.84454 -2.06375,-1.36841 -2.64889,-1.23076 -2.88393,-2.75704 -0.73175,-4.75161 l 1.72469,-1.59839 h -3.14073 c -1.7274,0 -3.48362,-0.3429 -3.90272,-0.762 -0.82138,-0.82138 -1.02863,-3.20471 -0.33867,-3.89466 z"
       id="path6876" /><path
       style="fill:#d0d73e;stroke-width:0.635"
       d="m 41.71769,228.17663 c 0.53399,-5.91775 1.50531,-9.13556 2.89033,-9.57515 2.36234,-0.74977 3.55664,1.52264 2.91938,5.55477 -0.29427,1.86196 -0.74989,5.52851 -1.01247,8.14788 -0.46623,4.65078 -0.52051,4.76742 -2.31353,4.9721 -2.8617,0.32667 -3.21688,-0.9746 -2.48371,-9.0996 z"
       id="path6874" /><path
       style="fill:#d0d73e;stroke-width:0.635"
       d="m 36.03627,264.53735 c 0.91897,-0.81342 4.21462,-1.0632 19.04673,-1.44359 16.05451,-0.41173 18.10232,-0.35066 19.52625,0.58234 0.87493,0.57327 1.59077,1.44815 1.59077,1.94416 0,1.30129 -2.5279,2.87887 -4.61306,2.87887 -4.43959,0 -17.84285,3.79076 -16.86406,4.76955 0.16095,0.16095 3.39954,0.69741 7.19687,1.19212 5.17434,0.67412 7.11191,1.1835 7.7331,2.03303 1.33365,1.82387 -0.29266,3.55258 -4.16194,4.42402 -1.81466,0.4087 -3.43998,0.88368 -3.61181,1.05551 -0.17183,0.17183 1.05126,0.80193 2.71799,1.40024 5.55329,1.99347 5.88791,2.20008 5.88791,3.63566 0,0.7658 -0.45233,1.89219 -1.00518,2.50308 -0.924,1.021 -0.89528,1.16954 0.35555,1.83896 0.96475,0.51632 1.30347,1.21405 1.16393,2.3976 -0.16414,1.39235 -0.82514,1.91209 -3.98338,3.13214 -2.08261,0.80452 -4.28256,1.30535 -4.88876,1.11295 -1.48654,-0.47181 -2.09789,-2.65591 -1.08503,-3.87633 0.69621,-0.83888 0.55841,-1.1826 -0.90003,-2.24499 -1.79315,-1.30622 -2.20831,-2.94833 -1.04062,-4.11602 0.48531,-0.48531 0.009,-1.09679 -1.65292,-2.12422 -2.66344,-1.6461 -4.73415,-4.64965 -4.31378,-6.25713 0.22363,-0.85514 -0.4009,-1.26642 -2.8929,-1.9051 -5.45762,-1.39875 -5.89884,-3.48655 -1.45337,-6.87723 l 2.74522,-2.09384 h -7.54237 c -7.41012,0 -9.06636,-0.41123 -9.06636,-2.25108 0,-0.3999 0.50006,-1.16971 1.11125,-1.7107 z"
       id="path6872" /><path
       style="fill:#d0d73e;stroke-width:0.635"
       d="m 17.54813,123.76523 c 2.02342,-1.59162 3.58143,-1.65987 5.95009,-0.26067 1.66558,0.98388 1.8582,0.98388 2.84208,0 1.30377,-1.30377 2.49247,-1.34192 3.71516,-0.11923 0.82491,0.8249 0.98125,0.81873 1.31536,-0.0519 0.20855,-0.54345 0.37918,-1.52003 0.37918,-2.17016 0,-1.62627 2.43687,-3.25895 3.78629,-2.53677 0.57746,0.30906 2.01289,2.51003 3.18985,4.89105 l 2.13992,4.32914 0.68962,-2.36747 c 0.37929,-1.30211 1.15169,-2.82954 1.71644,-3.39429 0.94576,-0.94576 1.24583,-0.90529 3.8011,0.5126 2.36915,1.31462 2.95165,2.06079 3.98889,5.10968 0.99968,2.93844 1.0702,3.74428 0.3985,4.55362 -1.18498,1.42781 -3.52619,1.20488 -4.67736,-0.44539 -0.98427,-1.41101 -0.99705,-1.41219 -1.02995,-0.0948 -0.061,2.44221 -1.39375,5.27663 -2.67188,5.68229 -1.57995,0.50146 -3.14932,-0.86818 -5.41785,-4.72832 l -1.71777,-2.92297 -0.66915,2.5413 c -0.36804,1.39771 -0.90033,2.8979 -1.18288,3.33375 -0.96158,1.4833 -2.98846,0.84864 -4.27986,-1.34014 -1.04232,-1.76659 -1.5461,-2.07757 -2.93535,-1.812 -1.04503,0.19977 -1.93883,-0.028 -2.37158,-0.60432 -3.07933,-4.10109 -3.48031,-4.42412 -4.68877,-3.77738 -0.88609,0.47422 -1.57051,0.39119 -2.57504,-0.31241 -1.81311,-1.26996 -1.72594,-2.4177 0.30496,-4.01521 z"
       id="path6868" /><path
       style="fill:#d0d73e;stroke-width:0.635"
       d="m 15.25832,283.26689 c 0.69395,-1.72605 4.19604,-3.96712 6.20448,-3.97039 7.53327,-0.0122 9.83755,10.99069 2.98293,14.24342 -4.58324,2.17489 -9.87843,-1.19859 -9.80046,-6.24372 0.0222,-1.43251 0.29801,-3.2457 0.61305,-4.02931 z"
       id="path6866" /><path
       style="fill:#c85093;stroke-width:0.635"
       d="m 506.22203,145.43614 c 1.3127,-1.31274 1.778,-0.84749 1.778,1.778 0,1.397 -0.2286,2.54 -0.508,2.54 -0.8577,0 -2.032,-1.46783 -2.032,-2.54 0,-0.5588 0.3429,-1.3589 0.762,-1.778 z"
       id="path5484" /><path
       style="fill:#c85093;stroke-width:0.635"
       d="m 502.77103,137.33808 c 0.2565,-0.36772 1.538,-1.4732 2.8477,-2.45662 l 2.3813,-1.78805 v 4.82215 4.82215 l -1.6303,-0.61982 c -3.9517,-1.50246 -4.9554,-2.83556 -3.5987,-4.77981 z"
       id="path5482" /><path
       style="fill:#c85093;stroke-width:0.635"
       d="m 492.17583,119.7504 c 0.356,-0.61119 1.1454,-1.11125 1.7544,-1.11125 1.0004,0 10.6164,-2.62073 13.0685,-3.56166 0.8488,-0.32572 1.0012,0.24838 1.0012,3.77059 v 4.1548 l -2.5142,1.41305 c -2.9003,1.63008 -2.7876,2.47821 0.3292,2.47821 2.1372,0 2.185,0.0573 2.185,2.62205 v 2.62205 l -4.6037,-0.42936 c -9.7788,-0.912 -13.1227,-3.40177 -8.9631,-6.67365 1.4894,-1.17158 1.535,-1.31609 0.4159,-1.31609 -0.6915,0 -1.7302,-0.52256 -2.3082,-1.16124 -1.2174,-1.34521 -1.2172,-1.34433 -0.365,-2.8075 z"
       id="path5480" /><path
       style="fill:#c85093;stroke-width:0.635"
       d="m 481.00423,176.43099 c 1.3486,-1.11924 3.4497,-0.39841 6.5341,2.24166 2.7265,2.33378 3.2902,3.87394 1.9197,5.24449 -1.2317,1.23167 -2.3395,0.9044 -5.4811,-1.61925 -4.2936,-3.44897 -4.765,-4.37939 -2.9727,-5.8669 z"
       id="path5478" /><path
       style="fill:#c85093;stroke-width:0.635"
       d="m 477.99623,48.25153 c 2.5408,-1.331398 5.1071,1.586972 12.4782,14.190121 1.6341,2.794 3.3155,5.580062 3.7363,6.191249 1.4968,2.173656 -1.6488,4.696371 -3.7164,2.980436 -0.5141,-0.426625 -2.8384,-3.950658 -5.1653,-7.831181 -2.3268,-3.880529 -5.1787,-8.311032 -6.3373,-9.845566 -2.3521,-3.114948 -2.6503,-4.817948 -0.9955,-5.685059 z"
       id="path5476" /><path
       style="fill:#c85093;stroke-width:0.635"
       d="m 476.37683,269.89613 c 1.0873,-1.08721 2.6902,-0.94168 3.8469,0.34925 2.8183,3.14549 7.2002,14.28767 9.9682,25.34705 1.7576,7.0221 1.7075,8.3397 -0.336,8.85261 -0.8987,0.22555 -1.9113,0.13285 -2.2502,-0.20601 -0.3388,-0.33887 -1.574,-4.30416 -2.7448,-8.81176 -2.3437,-9.0232 -4.7362,-15.47687 -7.4624,-20.12984 -1.975,-3.37075 -2.1463,-4.27662 -1.0217,-5.4013 z"
       id="path5474" /><path
       style="fill:#c85093;stroke-width:0.635"
       d="m 464.46742,282.49814 c 0.50465,-0.41882 1.5714,-0.66813 2.37056,-0.554 1.36601,0.19506 1.61427,1.04203 4.14625,14.14534 2.5006,12.94035 2.6193,14.01969 1.6586,15.08125 -2.35026,2.59697 -3.72256,1.06068 -5.01034,-5.60901 -1.38667,-7.18181 -4.08262,-21.73784 -4.08262,-22.0429 0,-0.14255 0.4129,-0.60186 0.91755,-1.02068 z"
       id="path5470" /><path
       style="fill:#c85093;stroke-width:0.635"
       d="m 464.312,-22.203841 c 0.4191,-0.4191 1.39706,-0.762 2.17325,-0.762 1.72162,0 2.15711,1.253306 4.08191,11.747499 0.76867,4.1909998 1.77287,9.4773743 2.23157,11.74749906 0.721,3.56852824 0.7048,4.32624824 -0.12,5.59509244 -1.1751,1.8079273 -2.8451,1.5791623 -3.81688,-0.522859 C 468.32596,4.4422235 463.55,-19.674979 463.55,-21.221896 c 0,-0.12097 0.3429,-0.562845 0.762,-0.981945 z"
       id="path5468" /><path
       style="fill:#c85093;stroke-width:0.635"
       d="m 459.23201,164.48614 c 1.98347,-1.98347 4.15503,-0.40319 7.90417,5.75202 4.36285,7.16272 5.22795,11.87393 2.38114,12.96636 -1.20496,0.46239 -3.42731,-1.5439 -3.42731,-3.0941 0,-1.52903 -2.04727,-5.55286 -5.16938,-10.16019 -2.68936,-3.96872 -2.80613,-4.34657 -1.68862,-5.46409 z"
       id="path5466" /><path
       style="fill:#c85093;stroke-width:0.635"
       d="m 420.72808,80.118195 c 1.58223,-0.607162 8.7562,0.336645 13.43871,1.767999 8.31916,2.543009 14.59012,7.247863 17.61391,13.215028 3.22724,6.368658 1.6268,15.010358 -3.59828,19.429208 -7.61659,6.44134 -19.48207,6.83307 -25.08341,0.8281 -5.90012,-6.32527 -3.64418,-16.504268 4.40296,-19.866574 3.27853,-1.369853 6.17637,-1.227042 9.36997,0.461766 6.70843,3.54751 6.47035,12.790928 -0.36464,14.156198 -3.29919,0.659 -7.02763,-3.59743 -5.18305,-5.91702 0.87914,-1.10554 2.3814,-0.98995 3.79822,0.29225 1.03522,0.93686 1.28056,0.95866 1.78652,0.15875 0.88166,-1.39388 0.75672,-1.80068 -1.07426,-3.49757 -2.50624,-2.322707 -6.67806,-2.186595 -9.16362,0.29897 -3.42812,3.42811 -2.13419,10.29822 2.33941,12.42108 5.65673,2.6843 14.68415,-0.0843 18.26085,-5.6004 2.12366,-3.27518 2.16635,-6.63937 0.13946,-10.992525 -3.02869,-6.504749 -13.84834,-12.289306 -22.98638,-12.289306 -1.22815,0 -2.78571,-0.295802 -3.46124,-0.657339 -1.48411,-0.794271 -1.64464,-3.667741 -0.23513,-4.208615 z"
       id="path5462" /><path
       style="fill:#c85093;stroke-width:0.635"
       d="m 383.85648,18.742301 c 1.98453,-5.7726 4.81754,-7.70467 10.67608,-7.280902 3.17045,0.22933 4.05241,0.563975 5.29569,2.009368 2.97577,3.459549 1.10007,10.382077 -3.51606,12.97649 -7.22324,4.059682 -14.87333,-0.672573 -12.45571,-7.704956 z"
       id="path5450" /><path
       style="fill:#c85093;stroke-width:0.635"
       d="m 349.92859,206.55967 c 0.79841,-0.49345 18.00731,-0.39037 19.32625,0.11575 1.28886,0.49458 1.82453,2.6676 0.92482,3.75169 -0.602,0.72537 -2.65371,0.92203 -9.61921,0.92203 -4.88894,0 -9.40403,-0.29438 -10.08224,-0.65734 -1.31797,-0.70536 -1.68078,-3.43304 -0.54962,-4.13213 z"
       id="path5448" /><path
       style="fill:#c85093;stroke-width:0.635"
       d="m 315.5345,172.48069 c 3.51599,6.84833 13.57767,5.76158 17.57962,-1.89877 1.00636,-1.92631 1.20034,-4.95278 0.31746,-4.95278 -0.3181,0 -1.2003,-1.28476 -1.96046,-2.85503 -2.02775,-4.18878 -4.0869,-5.5892 -7.7117,-5.24469 -7.12017,0.67671 -11.48242,8.60642 -8.22492,14.95127 z"
       id="path5444" /><path
       style="fill:#c85093;stroke-width:0.635"
       d="m 302.39886,60.715245 c 1.26482,-1.264825 1.75037,-1.299299 12.81162,-0.909631 11.83849,0.417055 21.36305,1.655597 22.96671,2.986519 0.50202,0.416636 0.91276,1.298232 0.91276,1.959102 0,1.262767 -1.53119,2.371902 -6.89281,4.992915 -3.12219,1.526273 -4.143,2.484349 -2.47344,2.321439 2.00563,-0.195707 12.96787,1.037203 13.96447,1.570558 1.18849,0.636061 1.53137,3.396825 0.50096,4.033647 -0.33869,0.209328 -2.83901,0.641312 -5.55625,0.959968 -2.71723,0.318655 -6.51206,1.054652 -8.43293,1.635543 l -3.4925,1.056164 4.30163,1.08472 c 5.24041,1.321447 6.02536,1.962023 5.04387,4.116158 -0.49023,1.075938 -1.57784,1.807451 -3.44352,2.316067 -3.28554,0.895693 -2.56491,1.297267 4.44258,2.475668 3.66752,0.616737 4.8335,1.089774 5.61098,2.276367 1.23515,1.885073 0.74633,2.669794 -2.57947,4.140949 -2.15088,0.951439 -12.17868,3.127752 -14.41175,3.127752 -0.3035,0 -0.55182,0.55463 -0.55182,1.23252 0,1.74017 -0.45316,1.89787 -7.32065,2.5476 -6.96498,0.65895 -7.91935,0.47243 -7.91935,-1.54781 0,-1.79043 0.95467,-2.5692 3.81,-3.107978 1.22237,-0.230657 2.65279,-0.985812 3.1787,-1.678127 0.7076,-0.931513 2.31719,-1.457128 6.19125,-2.021776 2.87928,-0.419659 5.23505,-0.922718 5.23505,-1.117905 0,-0.195186 -1.8761,-0.892181 -4.16912,-1.548866 -5.52962,-1.583614 -7.13967,-2.872422 -6.1906,-4.955406 0.42035,-0.92256 1.56495,-1.797965 2.82241,-2.158594 l 2.1153,-0.60666 -3.92034,-1.429429 c -6.07004,-2.213248 -6.25613,-5.272633 -0.39475,-6.489452 1.9183,-0.398234 3.34019,-0.871696 3.15976,-1.052125 -0.18043,-0.180435 -2.6831,-0.59154 -5.56149,-0.913574 -5.49116,-0.61435 -6.91117,-1.249731 -6.91117,-3.092418 0,-1.632852 1.12086,-2.240439 5.60184,-3.036621 2.2079,-0.392296 6.01726,-1.345393 8.46527,-2.117997 3.72429,-1.175404 4.2611,-1.512132 3.28816,-2.062588 -0.89463,-0.506152 -14.63511,-1.109783 -23.78996,-1.045121 -1.65301,0.01168 -1.90929,-2.443696 -0.4114,-3.941578 z"
       id="path5438" /><path
       style="fill:#c85093;stroke-width:0.635"
       d="m 293.4253,241.55076 c 7.81589,-11.68573 20.34223,-18.47243 30.07483,-16.29436 8.00015,1.79035 13.00223,7.77904 13.54361,16.21494 0.50957,7.94018 -2.36541,14.53568 -8.16851,18.73943 -6.22031,4.50597 -15.52829,2.38422 -18.94812,-4.31921 -2.90048,-5.6854 -2.18625,-10.82044 2.10136,-15.10805 3.09746,-3.09747 6.17194,-3.96129 10.0081,-2.81195 4.47831,1.34174 6.44061,6.92009 3.67229,10.43944 -1.06226,1.35044 -1.85005,1.67313 -4.08471,1.67313 -2.29019,0 -2.84481,-0.24008 -3.20958,-1.38933 -0.43185,-1.36067 0.99742,-3.15966 3.06263,-3.85482 0.60572,-0.20389 0.58599,-0.5057 -0.0863,-1.32008 -2.45937,-2.97935 -8.336,1.46125 -8.336,6.299 0,4.3452 5.37935,8.44692 9.9528,7.58893 2.693,-0.5052 5.62298,-3.00636 7.37117,-6.29232 2.0672,-3.88558 2.02171,-12.42761 -0.0842,-15.81487 -2.07089,-3.33091 -5.79679,-5.15441 -10.60519,-5.19031 -7.37398,-0.055 -16.88423,6.32137 -22.88226,15.34208 -2.61869,3.93837 -3.04376,4.25203 -4.61948,3.40873 -2.22011,-1.18817 -2.0042,-2.46361 1.23752,-7.31038 z"
       id="path5434" /><path
       style="fill:#c85093;stroke-width:0.635"
       d="m 274.43128,119.17015 c 3.88259,-3.62688 7.45225,-4.51873 8.38258,-2.09433 0.60209,1.56903 -0.19215,2.62247 -3.76651,4.99572 -3.89586,2.5867 -4.2515,2.66779 -5.63454,1.28475 -1.41753,-1.41752 -1.26228,-2.0556 1.01847,-4.18614 z"
       id="path5432" /><path
       style="fill:#c85093;stroke-width:0.635"
       d="m 253.47341,139.27959 c 0.60047,-7.40755 1.30031,-9.02006 3.59823,-8.29073 1.91811,0.60879 2.1187,1.99699 1.39356,9.6439 -0.35982,3.79439 -0.65444,11.38324 -0.65474,16.86413 -5e-4,9.48344 -0.0667,10.01157 -1.36871,10.92355 -0.98477,0.68976 -1.69654,0.78256 -2.54,0.33116 -1.07498,-0.57532 -1.16449,-1.53049 -1.08307,-11.55855 0.0488,-6.01227 0.34345,-14.07333 0.65473,-17.91346 z"
       id="path5430" /><path
       style="fill:#c85093;stroke-width:0.635"
       d="m 187.45193,119.40115 c 0.4191,-0.4191 1.25975,-0.762 1.86812,-0.762 0.60836,0 4.48027,-1.02727 8.60425,-2.28281 8.6689,-2.63924 12.67838,-3.03805 13.75804,-1.36844 1.12503,1.73977 -0.009,2.88206 -7.04946,7.09785 -3.95708,2.36964 -6.12961,4.02301 -5.6702,4.31522 0.40961,0.26056 4.23514,0.47811 8.50116,0.48345 6.77409,0.009 7.83284,0.15254 8.3599,1.13737 0.89136,1.66551 0.0514,2.68768 -5.35486,6.51612 -4.43339,3.13952 -4.73875,3.49016 -3.37307,3.87333 0.82589,0.23172 2.71606,0.4498 4.20037,0.48461 2.5415,0.0596 5.23875,1.67623 5.23875,3.13987 0,0.83453 -1.95786,2.35735 -4.9946,3.88476 l -2.77209,1.39431 2.13709,1.42858 c 1.17541,0.78572 3.3383,2.09413 4.80644,2.90757 3.01543,1.67076 3.65111,2.72865 2.70354,4.4992 -1.06805,1.99567 -3.08396,1.39454 -10.45288,-3.11693 -7.87933,-4.82398 -8.66486,-6.04381 -5.43145,-8.43438 l 1.94704,-1.4395 -2.96733,-1.12638 c -1.63203,-0.61951 -3.24171,-1.40075 -3.57706,-1.7361 -1.21222,-1.21222 0.20505,-3.5992 3.43348,-5.78271 l 3.28609,-2.2225 -5.01288,-0.4425 c -10.65722,-0.94073 -14.37009,-3.47733 -9.93414,-6.78691 1.60141,-1.19479 1.63591,-1.30452 0.41592,-1.32297 -1.34349,-0.0203 -3.43217,-1.82127 -3.43217,-2.95936 0,-0.33922 0.3429,-0.95965 0.762,-1.37875 z"
       id="path5422" /><path
       style="fill:#c85093;stroke-width:0.635"
       d="m 176.20418,176.43099 c 1.3486,-1.11924 3.4497,-0.39841 6.53403,2.24166 2.72649,2.33378 3.29027,3.87394 1.91972,5.24449 -1.23167,1.23167 -2.3395,0.9044 -5.48113,-1.61925 -4.29356,-3.44897 -4.76497,-4.37939 -2.97262,-5.8669 z"
       id="path5420" /><path
       style="fill:#c85093;stroke-width:0.635"
       d="m 173.51368,48.208724 c 2.13015,-0.804354 3.13588,0.02686 6.61862,5.470068 10.30002,16.098054 10.60511,16.767344 8.30388,18.216548 -1.79122,1.128026 -2.98387,-0.0898 -7.77875,-7.942884 -2.44475,-4.004037 -5.37369,-8.538584 -6.50875,-10.076776 -2.42417,-3.285147 -2.6076,-4.922094 -0.635,-5.666956 z"
       id="path5418" /><path
       style="fill:#c85093;stroke-width:0.635"
       d="m 171.57693,269.89613 c 1.08722,-1.08721 2.69018,-0.94168 3.84683,0.34925 2.8183,3.14549 7.20019,14.28767 9.96822,25.34705 1.75756,7.0221 1.70754,8.3397 -0.33604,8.85261 -0.89869,0.22555 -1.91089,0.13321 -2.24932,-0.20522 -0.33843,-0.33843 -1.33128,-3.43673 -2.20633,-6.88511 -2.30382,-9.0789 -4.4572,-15.16717 -7.29118,-20.61442 -2.73347,-5.25409 -2.85239,-5.72395 -1.73218,-6.84416 z"
       id="path5416" /><path
       style="fill:#c85093;stroke-width:0.635"
       d="m 159.66748,282.49814 c 0.50465,-0.41882 1.56458,-0.66813 2.35539,-0.554 1.62154,0.234 1.34458,-0.74727 4.62887,16.39999 1.8515,9.66668 2.01563,11.29136 1.26156,12.48723 -0.86234,1.36756 -3.01256,1.43164 -3.82689,0.11404 -0.302,-0.48865 -5.30298,-26.10079 -5.32806,-27.28727 -0.004,-0.21917 0.40448,-0.74117 0.90913,-1.15999 z"
       id="path5412" /><path
       style="fill:#c85093;stroke-width:0.635"
       d="m 154.61418,164.36599 c 1.69961,-1.41055 3.73552,-0.17557 6.49396,3.93925 5.23504,7.8092 6.82292,13.88783 3.87245,14.82428 -1.53414,0.48691 -3.69066,-1.53204 -3.69066,-3.45525 0,-1.2784 -5.19426,-10.28246 -6.60916,-11.45671 -1.26954,-1.05362 -1.30022,-2.82776 -0.0666,-3.85157 z"
       id="path5406" /><path
       style="fill:#c85093;stroke-width:0.635"
       d="m 115.92825,80.118195 c 1.57477,-0.604304 8.74299,0.333515 13.43871,1.758175 5.22986,1.586719 12.14032,5.546013 14.43068,8.267947 6.53831,7.770348 6.46571,18.314003 -0.16621,24.136913 -7.59854,6.67159 -19.63645,7.18353 -25.33225,1.0773 -7.22619,-7.74679 -1.63422,-20.849382 8.89807,-20.849382 7.29362,0 12.52528,8.287192 8.35811,13.239592 -2.97974,3.54121 -7.70644,3.04586 -9.23233,-0.96755 -1.1215,-2.94975 1.56988,-4.49483 3.99951,-2.29604 1.03522,0.93686 1.28056,0.95866 1.78652,0.15875 0.8699,-1.37527 0.75818,-1.78527 -0.95268,-3.49611 -1.20737,-1.20738 -2.22325,-1.558643 -4.50773,-1.558643 -2.4803,0 -3.24194,0.3135 -4.79136,1.972153 -3.36254,3.59962 -2.10198,10.19092 2.3533,12.30508 5.49921,2.60956 14.7281,-0.18277 18.235,-5.51723 1.5232,-2.31699 1.75462,-3.22501 1.5376,-6.03301 -0.6694,-8.661226 -10.26958,-15.863338 -23.05679,-17.297371 -2.52589,-0.283267 -4.90726,-0.709549 -5.29195,-0.947299 -1.05294,-0.650755 -0.83991,-3.518275 0.2937,-3.953275 z"
       id="path5400" /><path
       style="fill:#c85093;stroke-width:0.635"
       d="m 80.23514,16.086656 c 2.0003,-3.528219 4.84303,-4.894224 9.55442,-4.591145 3.17787,0.204425 3.98421,0.516763 5.30836,2.05618 1.3236,1.53877 1.51588,2.288051 1.26288,4.921104 -0.52821,5.497131 -4.1053,8.81197 -9.96663,9.235941 -3.54817,0.256654 -3.91748,0.149783 -5.72353,-1.656264 -2.43275,-2.432749 -2.59545,-6.156001 -0.4355,-9.965816 z"
       id="path5392" /><path
       style="fill:#c85093;stroke-width:0.635"
       d="m 54.24714,206.26914 c 8.05982,0 9.97409,0.17695 10.795,0.99785 1.09437,1.09438 1.18968,1.57338 0.61242,3.07771 -0.32576,0.84891 -1.74507,1.00444 -9.16616,1.00444 -10.37548,0 -12.0384,-0.43641 -12.0384,-3.15929 v -1.92071 z"
       id="path5384" /><path
       style="fill:#c85093;stroke-width:0.635"
       d="m 5.83797,163.58965 c 0.7991,-3.00532 4.99516,-7.7902 8.31823,-9.4855 1.98995,-1.0152 3.40638,-1.25151 6.26291,-1.04489 4.67733,0.33833 7.7198,2.63293 10.22395,7.7108 0.97348,1.97399 2.04941,3.58908 2.39095,3.58908 0.85723,0 0.77814,3.44827 -0.15125,6.59383 -1.03055,3.48795 -6.29098,8.74839 -9.77894,9.77893 -5.69654,1.6831 -9.72416,0.80209 -13.62198,-2.9797 -4.11908,-3.99645 -5.21471,-8.25481 -3.64387,-14.16255 z"
       id="path5368" /><path
       style="fill:#c85093;stroke-width:0.635"
       d="m 1.54382,228.78187 c 2.6223165,-1.5208 7.73332,-3.42251 11.35861,-3.84859 4.19717,-0.4933 9.32822,0.87749 12.85558,3.43444 7.42606,5.38306 8.83947,19.01684 2.83131,27.31086 -2.36751,3.26827 -6.728939,6.00244 -8.70203,6.47055 -1.902761,0.45143 -3.173507,0.45919 -4.75535,0.31333 -1.273821,-0.11746 -1.603721,-0.0826 -3.71866,-0.94833 -0.654939,-0.2681 -2.53752,-1.25082 -4.0663,-2.7796 -2.22817,-2.22816 -2.92647,-3.48707 -3.51993,-6.34575 -0.40718,-1.96139 -0.56104,-4.21101 -0.3419,-4.99915 1.49448,-5.3751 4.82253,-8.96545 9.04465,-9.75753 1.20873,-0.22676 3.32681,-0.074 4.70681,0.33946 4.47832,1.34174 6.44062,6.92009 3.6723,10.43944 -1.05897,1.34626 -1.85207,1.67313 -4.05956,1.67313 -1.95757,0 -2.85802,-0.29849 -3.14332,-1.04197 -0.45892,-1.19591 1.30598,-4.25388 2.15298,-3.7304 0.94711,0.58534 1.44476,-0.9387 0.6279,-1.92294 -2.42002,-2.91595 -8.23191,1.62382 -8.23191,6.43008 0,2.72815 2.26965,5.73416 5.22118,6.91514 6.93739,2.77578 13.04817,-2.93337 13.69206,-12.79217 0.24847,-3.8043 0.0649,-5.03511 -1.11387,-7.47022 -3.75467,-7.75612 -14.537547,-8.47171 -24.18127,-1.6048 -0.6243667,0.44459 -1.24873333,0.88917 -2.971304,0.57324 -1.7225706,-0.31594 -0.7579285,-4.68643 2.642024,-6.65822 z"
       id="path5364"
       sodipodi:nodetypes="sssssssssssssssssssscscs" /><path
       style="fill:#c85093;stroke-width:0.635"
       d="m 7.56174,59.584151 c 7.50161,0 21.7683,1.499222 24.63369,2.588641 1.78181,0.677443 2.53039,2.29348 1.68396,3.635343 -0.33699,0.534251 -2.65378,2.039747 -5.14841,3.345548 -5.19142,2.717419 -5.14355,2.760694 3.84522,3.476212 5.77871,0.46 7.4288,1.231227 7.4288,3.472135 0,1.611585 -0.30175,1.734369 -6.075,2.472004 -2.77063,0.353993 -6.60913,1.126007 -8.53,1.715586 l -3.4925,1.071968 4.1275,1.033304 c 4.97355,1.245108 5.715,1.66638 5.715,3.247091 0,1.380262 -1.96506,2.846438 -4.72598,3.52618 -1.78293,0.438957 -1.8043,0.483762 -0.46668,0.978586 0.771,0.28521 3.32632,0.845953 5.67848,1.246105 4.29212,0.730174 6.49918,1.932844 6.49918,3.541547 0,1.979612 -6.08233,4.159408 -15.67857,5.618919 -2.08019,0.31637 -2.70394,0.70249 -2.8575,1.7688 -0.22258,1.54562 -2.26831,2.06369 -9.63941,2.44112 -3.61743,0.18523 -4.48495,0.0335 -5.07676,-0.88784 -1.06484,-1.65783 0.21625,-3.20859 3.14875,-3.81156 1.36454,-0.28058 2.932,-1.101723 3.48325,-1.824766 0.76986,-1.009796 2.20545,-1.473473 6.19125,-1.999704 2.85394,-0.376796 5.18899,-0.852373 5.18899,-1.05683 0,-0.204464 -1.8761,-0.909047 -4.16912,-1.565732 -5.52962,-1.583614 -7.13967,-2.872422 -6.1906,-4.955406 0.42141,-0.92489 1.56561,-1.798155 2.83192,-2.161324 l 2.12482,-0.609391 -3.94533,-1.47546 c -4.01653,-1.50208 -5.49752,-3.241649 -4.03009,-4.733747 0.39477,-0.401409 2.20909,-1.187031 4.03183,-1.745837 l 3.31407,-1.016006 -3.175,-0.441211 C 6.8759,75.448482 5.50203,75.092736 4.83341,74.0304 3.54245,71.979293 5.09757,70.89249 11.04696,69.688004 18.05484,68.269217 23.05654,66.511696 22.28424,65.739396 21.96632,65.421471 16.8223,65.007622 10.85309,64.819732 L 0,64.478121 c -1.7133163,0.206964 -2.7097081,-4.752081 0,-4.89397 z"
       id="path4669"
       sodipodi:nodetypes="sssssssscssssssssscssssssscssscscsssccs" /><path
       style="fill:#354793;stroke-width:0.635"
       d="m 501.49123,20.142324 c 2.7067,-2.179872 5.2784,-4.233468 5.715,-4.563541 0.6122,-0.462839 0.783,0.18034 0.7467,2.811373 -0.046,3.354476 -0.1045,3.456609 -3.486,6.110249 -3.7411,2.935852 -6.1892,3.433108 -7.2396,1.470494 -0.3615,-0.675538 -0.6573,-1.371555 -0.6573,-1.546707 0,-0.175152 2.2145,-2.101989 4.9212,-4.281868 z"
       id="path6762" /><path
       style="fill:#354793;stroke-width:0.635"
       d="m 484.66373,150.56576 c 1.9167,-1.48235 2.4058,-1.31201 5.4075,1.88335 7.674,8.16888 8.0331,8.68044 7.3862,10.52007 -1.0968,3.11874 -2.9848,2.23613 -8.5214,-3.98361 -5.0082,-5.62614 -5.8188,-7.2237 -4.2723,-8.41981 z"
       id="path6744" /><path
       style="fill:#354793;stroke-width:0.635"
       d="m 485.57703,16.404156 c 0.8584,-3.667125 1.6803,-7.2789159 1.8264,-8.0262092 0.3633,-1.8578765 2.0518,-2.3649747 3.8818,-1.1658726 1.7545,1.1495404 1.7241,1.5783241 -0.8543,12.0495808 -1.7552,7.128179 -2.5028,8.296814 -4.9196,7.69023 -2.0507,-0.514705 -2.0444,-1.533334 0.066,-10.547729 z"
       id="path6742" /><path
       style="fill:#354793;stroke-width:0.635"
       d="m 460.62213,129.67436 c 1.22445,-2.71802 3.35452,-4.05022 6.47598,-4.05022 3.23072,0 5.60572,1.71407 6.61582,4.77463 0.9758,2.95653 0.3016,5.61711 -2.0087,7.92743 -2.02583,2.0258 -4.67916,2.46885 -7.76323,1.29628 -3.2627,-1.24047 -4.95634,-6.31552 -3.31987,-9.94812 z"
       id="path6726" /><path
       style="fill:#354793;stroke-width:0.635"
       d="m 451.127,4.8770651 c 0.85085,-0.3876738 1.97326,-0.541293 2.49425,-0.3413696 0.93784,0.3598862 6.11874,15.1178375 6.11874,17.4294215 0,1.565141 -1.21584,2.694038 -2.90153,2.694038 -1.21142,0 -1.73209,-1.091464 -4.318,-9.051689 -1.61726,-4.978425 -2.94047,-9.2708027 -2.94047,-9.5386139 0,-0.2678049 0.69615,-0.8041132 1.54701,-1.191787 z"
       id="path6694" /><path
       style="fill:#354793;stroke-width:0.635"
       d="m 446.24624,67.977212 c 1.35596,-1.55288 10.31044,-2.678061 21.31272,-2.678061 7.58477,0 9.96107,0.747445 9.96107,3.133254 0,2.08073 -1.4854,2.629167 -6.1134,2.257165 l -4.36414,-0.350793 3.4925,1.485023 c 2.42814,1.032466 3.55114,1.885315 3.68504,2.798534 0.2678,1.826901 -1.4903,3.369919 -3.88915,3.41341 -1.11011,0.02013 -3.16139,0.241643 -4.55839,0.492252 l -2.54,0.455657 6.47818,2.739606 c 3.56296,1.506785 6.80126,3.12893 7.19626,3.604774 1.0472,1.261859 0.1668,3.297358 -1.6945,3.917816 -1.5269,0.508934 -1.4254,0.616541 1.8688,1.981892 4.3807,1.815694 4.9742,3.364243 2.2608,5.898902 -1.3943,1.302486 -1.8071,2.144319 -1.5101,3.079957 0.6462,2.03604 -0.2183,3.82755 -1.847,3.82755 -0.7972,0 -2.6528,-0.87178 -4.1237,-1.93729 -2.16131,-1.56562 -2.63642,-2.263263 -2.47655,-3.636527 0.11892,-1.021556 0.79197,-1.993868 1.68755,-2.437955 1.4341,-0.711079 1.3426,-0.817162 -2.44779,-2.837421 -2.16569,-1.154303 -4.37394,-2.764644 -4.90723,-3.578542 -0.87491,-1.335291 -0.86841,-1.591627 0.0666,-2.624785 0.5699,-0.629742 1.03619,-1.297972 1.03619,-1.48496 0,-0.186989 -1.35731,-0.849293 -3.01625,-1.471778 -11.31804,-4.246911 -14.17257,-8.232323 -6.92908,-9.674198 l 2.64283,-0.526079 -4.7625,-0.859682 c -4.66486,-0.84206 -7.62,-2.069515 -7.62,-3.165074 0,-0.302508 0.50006,-1.122699 1.11125,-1.822647 z"
       id="path6676" /><path
       style="fill:#354793;stroke-width:0.635"
       d="m 420.2464,219.14717 c 0.51886,-0.8166 6.85558,-2.30864 12.96356,-3.05238 3.4988,-0.42603 3.66081,-0.38038 4.39886,1.23947 1.09563,2.40462 -0.24014,3.47487 -5.22997,4.19039 -2.23931,0.32111 -5.42018,0.83911 -7.06859,1.1511 -4.1459,0.7847 -6.68173,-0.98231 -5.06386,-3.52858 z"
       id="path6582" /><path
       style="fill:#354793;stroke-width:0.635"
       d="m 398.43507,263.05173 c 0.85814,-0.21538 1.82043,-0.29226 2.13842,-0.17085 0.31798,0.12141 2.61625,2.63745 5.10724,5.5912 4.75226,5.63507 5.5018,7.71679 3.2185,8.93877 -1.63514,0.8751 -1.82559,0.72306 -7.5703,-6.04349 -4.76295,-5.61015 -5.47869,-7.66688 -2.89386,-8.31563 z"
       id="path6512" /><path
       style="fill:#354793;stroke-width:0.635"
       d="m 398.36771,133.8068 c 1.6598,-0.75625 4.43469,0.42406 12.26626,5.21751 2.28846,1.40069 4.3069,2.40064 4.48542,2.22212 0.17853,-0.17853 -0.85305,-1.80365 -2.29239,-3.61139 -2.78645,-3.49962 -3.19282,-5.02749 -1.67274,-6.28905 1.23023,-1.021 3.00883,-0.53782 9.25367,2.51387 6.53425,3.19313 7.58208,3.52245 7.58208,2.383 0,-1.29231 2.33189,-3.21445 3.40167,-2.80394 1.34969,0.51792 4.18798,4.4703 4.8381,6.73713 0.49098,1.71196 0.36718,2.11428 -0.90768,2.9496 -1.22821,0.80475 -1.99478,0.84533 -4.56291,0.24153 -1.69767,-0.39914 -4.29801,-1.26849 -5.77851,-1.93188 -1.48051,-0.66338 -2.86497,-1.20616 -3.07659,-1.20616 -0.21162,0 0.37521,1.29679 1.30407,2.88177 1.84814,3.15362 1.9018,5.17954 0.16581,6.26088 -0.87335,0.544 -2.19002,0.3204 -5.91258,-1.00412 -2.63396,-0.93719 -4.69267,-1.50869 -4.57489,-1.27 0.11778,0.23868 0.76701,1.52093 1.44275,2.84943 1.58292,3.11205 0.82806,4.49631 -2.59605,4.76069 -1.36163,0.10513 -2.76144,0.55146 -3.11069,0.99185 -1.57269,1.98309 -2.98829,1.74414 -5.44736,-0.9195 -4.94795,-5.3596 -3.60964,-9.64952 2.24932,-7.21014 0.68583,0.28554 -0.95723,-1.95827 -3.65125,-4.98626 -5.16015,-5.79985 -5.87815,-7.65033 -3.40551,-8.77694 z"
       id="path6510" /><path
       style="fill:#354793;stroke-width:0.635"
       d="m 388.98273,216.15699 c 0.54882,-0.54882 1.21345,-0.99785 1.47696,-0.99785 0.83953,0 14.17935,-1.83592 18.94437,-2.60725 4.97003,-0.80453 6.52081,-0.32231 6.52081,2.02766 0,1.48621 -1.28009,2.14716 -6.0325,3.11476 -2.0955,0.42665 -4.20625,0.89405 -4.69055,1.03866 -0.4843,0.1446 0.6587,1.04271 2.54,1.99579 2.96817,1.5037 3.42055,1.97964 3.42055,3.59873 0,1.65707 -0.37257,2.01563 -3.32945,3.20425 l -3.32946,1.33838 5.41544,1.80015 c 5.73627,1.90681 7.67582,3.51022 6.62384,5.47587 -0.32545,0.60811 -1.64338,1.35436 -2.92874,1.65834 l -2.33703,0.5527 5.15612,3.117 c 2.83586,1.71435 5.31687,3.53592 5.51335,4.04794 0.71809,1.87133 -0.41141,3.27703 -3.52046,4.38126 -1.72486,0.61262 -3.13611,1.28709 -3.13611,1.49884 0,0.21175 2.07169,1.20408 4.60375,2.20519 6.69947,2.64879 12.18292,6.05933 12.42221,7.72624 0.15539,1.08249 -0.3872,1.66543 -2.50053,2.68648 -3.58059,1.72995 -6.55221,1.70548 -7.79172,-0.0642 -0.67357,-0.96165 -0.7781,-1.7049 -0.35179,-2.50146 0.72396,-1.35273 1.16998,-1.06121 -6.69942,-4.37876 -8.40407,-3.54296 -10.4775,-4.84883 -10.4775,-6.59889 0,-1.74376 1.1122,-2.91727 2.82575,-2.98151 0.71596,-0.0269 2.44475,-0.4154 3.84175,-0.86347 l 2.54,-0.81467 -5.49107,-2.62903 c -3.02009,-1.44596 -5.76186,-2.62903 -6.09283,-2.62903 -0.33097,0 -1.10043,-0.55102 -1.70992,-1.22449 -1.55542,-1.71872 -0.75933,-3.7133 1.74542,-4.37312 l 2.0234,-0.53302 -3.09697,-1.37968 c -1.70333,-0.75883 -3.27496,-1.38919 -3.4925,-1.40081 -1.03743,-0.0554 -3.25303,-2.54422 -3.25303,-3.65416 0,-1.61481 0.95776,-2.35659 4.33888,-3.36042 l 2.75138,-0.81686 -2.75138,-1.07564 c -1.51326,-0.5916 -4.03726,-1.28683 -5.60888,-1.54496 -1.57162,-0.25813 -3.35756,-0.73194 -3.96875,-1.05292 -1.3808,-0.72516 -1.43594,-2.66351 -0.11339,-3.98606 z"
       id="path6486" /><path
       style="fill:#354793;stroke-width:0.635"
       d="m 374.00229,129.6806 c 0.91648,-2.26826 3.76892,-4.05646 6.47064,-4.05646 5.92074,0 8.5397,5.14262 5.91371,11.61224 -1.09246,2.69146 -6.97506,3.90615 -9.69403,2.00172 -2.82109,-1.97597 -4.02521,-6.25368 -2.69032,-9.5575 z"
       id="path6460" /><path
       style="fill:#354793;stroke-width:0.635"
       d="m 359.67299,246.4048 c 3.27272,-6.23179 4.6298,-7.872 6.30457,-7.61987 2.33198,0.35107 2.79301,2.19155 1.20428,4.8077 -0.78958,1.3002 -2.36121,4.28482 -3.4925,6.63249 -2.09489,4.34734 -3.28651,5.33972 -5.54939,4.62151 -1.90851,-0.60574 -1.55241,-2.56664 1.53304,-8.44183 z"
       id="path6432" /><path
       style="fill:#354793;stroke-width:0.635"
       d="m 350.64695,-3.1538426 c 0.4191,-0.4190999 1.37863,-0.7619999 2.13229,-0.7619999 1.07837,0 1.98805,1.1836608 4.27015,5.5562495 1.59492,3.0559372 3.55399,6.7392352 4.35348,8.1850983 1.23345,2.2307037 1.32509,2.7836997 0.60509,3.6512497 -1.00946,1.21633 -3.44817,1.344085 -4.36475,0.228651 -1.24991,-1.521079 -7.75826,-14.24528848 -7.75826,-15.1678519 0,-0.511168 0.3429,-1.2722967 0.762,-1.6913967 z"
       id="path6412" /><path
       style="fill:#354793;stroke-width:0.635"
       d="m 339.89418,29.74478 c 0.94135,-1.826787 2.65481,-2.357386 4.00202,-1.239297 0.5144,0.426904 1.7151,2.164708 2.66825,3.861784 0.95314,1.697081 1.88989,3.085883 2.08167,3.086239 0.19177,3.56e-4 0.71026,-0.999287 1.1522,-2.221427 0.44193,-1.22214 1.33588,-2.506986 1.98656,-2.85522 2.53942,-1.359058 3.52358,0.108503 6.81151,10.157294 l 1.76606,5.3975 0.18245,-6.643694 c 0.19204,-6.992657 0.92314,-8.913805 3.39216,-8.913805 1.52666,0 2.62022,2.250205 4.59296,9.450812 0.89782,3.277076 1.7634,6.089326 1.92353,6.249447 0.16012,0.160128 0.49125,-1.043374 0.73584,-2.674435 0.33773,-2.252091 0.80298,-3.128804 1.93384,-3.644055 2.09545,-0.954755 3.09668,0.07657 4.65506,4.795037 2.21161,6.696302 3.41945,19.721351 2.03178,21.910291 -0.30411,0.479717 -1.32864,0.754044 -2.37152,0.635 -1.82631,-0.208483 -1.83791,-0.237356 -2.17511,-5.416943 -0.36121,-5.548458 -0.84575,-6.96125 -1.49723,-4.365555 -0.4533,1.806093 -2.3595,3.083027 -3.78547,2.535828 -0.52316,-0.200755 -1.64187,-2.091277 -2.48602,-4.201153 l -1.53482,-3.836149 -0.4088,5.314689 c -0.30694,3.990473 -0.68478,5.517026 -1.51644,6.126784 -2.7623,2.025269 -4.48529,-0.784993 -8.09331,-13.200493 -1.25709,-4.325746 -2.41768,-7.997055 -2.5791,-8.158472 -0.16141,-0.161417 -0.47609,0.619556 -0.69928,1.735492 -0.22318,1.115937 -0.95871,2.324888 -1.63449,2.686558 -1.97737,1.058259 -4.01073,-0.812781 -6.45005,-5.935173 -1.40878,-2.958325 -2.72839,-4.837518 -3.68316,-5.24501 -1.75192,-0.747719 -2.18691,-3.090609 -1.00107,-5.391874 z"
       id="path6398" /><path
       style="fill:#354793;stroke-width:0.635"
       d="m 326.5487,198.83865 c 0.43656,-0.33054 4.07987,-1.52878 8.09625,-2.66277 4.01638,-1.13398 8.42107,-2.48664 9.78821,-3.00592 2.31678,-0.87997 2.56943,-0.8604 3.71773,0.28789 1.58301,1.58301 1.00102,3.5651 -1.3033,4.43877 -0.94883,0.35974 -4.29689,1.40906 -7.44014,2.33181 -3.14325,0.92276 -6.54345,1.94503 -7.556,2.27172 -2.86254,0.92357 -4.72144,0.70681 -5.43916,-0.63427 -0.86032,-1.60752 -0.82929,-2.29604 0.13641,-3.02723 z"
       id="path6380" /><path
       style="fill:#354793;stroke-width:0.635"
       d="m 302.83816,202.71702 c 0.90516,-2.00103 1.78201,-2.84213 3.80807,-3.6528 2.29958,-0.92011 2.89734,-0.94235 4.73131,-0.17607 3.1508,1.31648 4.85241,3.85286 4.85241,7.23289 0,2.45184 -0.32066,3.15806 -2.26771,4.99437 -1.691,1.59482 -2.83689,2.13873 -4.50578,2.13873 -2.8244,0 -5.68875,-1.66437 -6.49202,-3.77227 -1.25929,-3.30456 -1.27642,-4.22225 -0.12628,-6.76485 z"
       id="path6304" /><path
       style="fill:#354793;stroke-width:0.635"
       d="m 299.8787,42.602964 c 1.0381,-0.819626 14.51148,-1.576387 15.61306,-0.876948 1.30828,0.830682 0.60503,3.445916 -1.16681,4.339133 -2.09315,1.055185 -13.43516,1.099845 -14.478,0.05702 -0.98976,-0.989762 -0.97411,-2.725026 0.0318,-3.519189 z"
       id="path6298" /><path
       style="fill:#354793;stroke-width:0.635"
       d="m 295.75119,272.11285 c 1.48807,-0.84749 7.99973,-1.89394 12.16703,-1.95528 l 4.81922,-0.0709 v 1.83579 c 0,1.00969 -0.42863,2.04862 -0.9525,2.30874 -0.52388,0.26012 -4.0432,0.95351 -7.82073,1.54087 -5.34016,0.83033 -7.0708,0.8998 -7.77875,0.31226 -0.95508,-0.79265 -1.25176,-3.50586 -0.43427,-3.97144 z"
       id="path6288" /><path
       style="fill:#354793;stroke-width:0.635"
       d="m 292.82674,131.60597 c 0.87203,-1.79714 3.81922,-3.44183 6.16756,-3.44183 2.72723,0 4.78726,1.08452 6.0182,3.16834 2.81312,4.76222 -0.29657,11.43666 -5.32845,11.43666 -3.21947,0 -5.23226,-0.9771 -6.52665,-3.16833 -1.16485,-1.97192 -1.32886,-5.93768 -0.33066,-7.99484 z"
       id="path6270" /><path
       style="fill:#354793;stroke-width:0.635"
       d="m 279.52695,160.04114 c 1.32568,-1.32568 2.88114,-0.8396 6.02563,1.88305 1.68018,1.45478 4.91224,3.83735 7.18237,5.29462 5.11181,3.28143 5.97278,4.28178 5.45631,6.33958 -0.6386,2.54441 -2.67481,1.98111 -9.26631,-2.56344 -9.33362,-6.43512 -11.44998,-8.90183 -9.398,-10.95381 z"
       id="path6218" /><path
       style="fill:#354793;stroke-width:0.635"
       d="m 260.15502,54.913327 c 1.9258,-0.561201 15.06458,-0.721182 15.91118,-0.193739 0.43656,0.271983 0.79375,1.199096 0.79375,2.060257 0,2.294452 -2.25681,2.872169 -10.41248,2.665476 l -7.05002,-0.17867 -0.19493,-2.009476 c -0.14518,-1.496581 0.0979,-2.094814 0.9525,-2.343848 z"
       id="path6136" /><path
       style="fill:#354793;stroke-width:0.635"
       d="m 255.90495,100.85915 c 1.43338,-1.433382 3.18639,-1.639617 4.318,-0.508 0.95751,0.95751 0.95082,0.85823 -0.19737,-2.926673 -1.22761,-4.046715 -1.20033,-6.993438 0.0746,-8.051501 0.86472,-0.717645 1.39996,-0.628104 3.51221,0.587547 l 2.49202,1.434223 -0.42654,-1.776546 c -0.23459,-0.977106 -0.51915,-1.885562 -0.63236,-2.018791 -0.1132,-0.133236 0.0799,-0.776173 0.42917,-1.42875 1.18128,-2.207241 3.88222,-1.435754 8.68657,2.481205 1.48431,1.210151 2.69875,2.009222 2.69875,1.775726 0,-0.233502 -1.42875,-3.1393 -3.175,-6.457327 -3.40124,-6.462654 -3.73957,-7.887054 -2.1807,-9.18081 1.22927,-1.020203 4.57344,3.62e-4 7.72631,2.357895 1.17826,0.881037 1.90679,1.153909 1.70973,0.640378 -0.4423,-1.152607 1.36521,-2.963576 2.9579,-2.963576 1.45681,0 4.54201,4.575016 8.23492,12.211493 2.79697,5.783783 3.02898,7.149382 1.36586,8.039455 -1.75224,0.937768 -4.33597,-0.752856 -9.17777,-6.005328 -2.35744,-2.557392 -4.28625,-4.41598 -4.28625,-4.130192 0,0.285782 0.70321,1.777784 1.56268,3.315551 1.9954,3.570147 4.50479,10.325423 4.97656,13.396871 0.28787,1.87413 0.12589,2.50865 -0.76165,2.98365 -1.72725,0.9244 -3.72792,0.0989 -5.09542,-2.10244 -1.21451,-1.95504 -6.81084,-7.681353 -6.29047,-6.436562 0.146,0.34925 1.18184,2.59045 2.30187,4.980442 2.31503,4.93993 2.51021,6.4787 0.92518,7.29391 -1.67104,0.85945 -2.64246,0.31914 -7.07386,-3.9345 -2.23168,-2.14217 -3.84608,-3.32335 -3.58753,-2.62485 0.25855,0.6985 1.1841,3.64509 2.05678,6.54798 1.5168,5.04546 1.53763,5.33219 0.47286,6.50875 -0.61261,0.67692 -1.48979,1.23077 -1.94929,1.23077 -0.4595,0 -2.29922,-1.82662 -4.08825,-4.05915 -3.15087,-3.93195 -3.30407,-4.03254 -4.88889,-3.21033 -1.13603,0.58938 -1.99133,0.6587 -2.79833,0.22681 -1.70464,-0.9123 -1.63174,-6.45783 0.10776,-8.19733 z"
       id="path6122" /><path
       style="fill:#354793;stroke-width:0.635"
       d="m 242.69695,223.54114 c 0.4191,-0.4191 1.10106,-0.762 1.51546,-0.762 0.93457,0 25.13025,8.56044 26.9532,9.53606 1.75414,0.93878 1.40905,3.19692 -0.65566,4.29039 -1.10576,0.58561 -3.03273,0.73614 -6.35,0.49606 l -4.7625,-0.34467 2.8575,1.42483 c 2.19597,1.09497 2.90361,1.82485 3.05666,3.15276 0.16563,1.43701 -0.15512,1.87693 -1.905,2.61282 l -2.10416,0.88487 1.74625,0.82287 c 2.72839,1.28566 2.05357,5.064 -0.90444,5.064 -0.61969,0 -1.55121,0.82093 -2.07007,1.82429 -1.09208,2.11185 -3.00821,2.82786 -4.55023,1.70031 -1.04351,-0.76303 -1.04104,-2.37235 0.007,-4.84298 0.33181,-0.78189 -0.54154,-1.38001 -3.99121,-2.73344 -2.42878,-0.9529 -4.58239,-2.16626 -4.78581,-2.69636 -0.61663,-1.6069 0.73989,-3.24876 3.15768,-3.82189 l 2.28823,-0.54243 -2.88028,-2.0296 c -2.2228,-1.56631 -2.81917,-2.3469 -2.61257,-3.41967 0.36466,-1.89349 0.576,-2.03545 3.65307,-2.45372 l 2.68695,-0.36524 -4.1275,-1.48715 c -2.27013,-0.81794 -4.77044,-1.89311 -5.55625,-2.38927 -1.56401,-0.98753 -1.85993,-2.72767 -0.66675,-3.92084 z"
       id="path6098" /><path
       style="fill:#354793;stroke-width:0.635"
       d="m 238.56593,269.04218 c 2.06714,-3.33125 6.88147,-4.30118 9.98075,-2.01079 2.04576,1.51183 2.91331,3.48947 2.91331,6.64112 0,2.08019 -0.41393,2.98755 -2.159,4.73262 -1.76993,1.76994 -2.6396,2.159 -4.826,2.159 -2.18639,0 -3.05606,-0.38906 -4.826,-2.159 -1.80274,-1.80274 -2.15621,-2.6148 -2.1421,-4.92125 0.009,-1.51924 0.48586,-3.518 1.05904,-4.4417 z"
       id="path6094" /><path
       style="fill:#354793;stroke-width:0.635"
       d="m 227.11276,13.864156 c 2.44487,-14.18528417 4.68431,-22.825233 6.11492,-23.5919472 1.32919,-0.7123508 3.37659,-0.2022259 3.81936,0.9516204 0.17018,0.4434796 -0.3767,3.3615392 -1.21529,6.4845769 -0.83859,3.12303824 -2.112,9.0991541 -2.82982,13.2802539 -0.71781,4.181106 -1.62026,7.98174 -2.00544,8.445855 -0.38518,0.464115 -1.43917,0.757961 -2.34218,0.652996 -1.39663,-0.162351 -1.6548,-0.522815 -1.72851,-2.413356 -0.0476,-1.222375 0.0365,-2.936874 0.18696,-3.809999 z"
       id="path6082" /><path
       style="fill:#354793;stroke-width:0.635"
       d="m 216.82936,186.78398 c 1.816,-4.17539 7.169,-5.2236 10.72615,-2.10037 3.93228,3.45258 3.45261,9.34109 -0.98111,12.04425 -2.54476,1.5515 -3.63264,1.59564 -6.43154,0.26094 -3.87275,-1.84679 -5.18753,-5.896 -3.3135,-10.20482 z"
       id="path6066" /><path
       style="fill:#354793;stroke-width:0.635"
       d="m 198.73338,34.673243 c 3.04948,-3.876795 9.01635,-3.700455 11.47952,0.339249 4.57712,7.506709 -4.18058,15.655454 -10.46029,9.73293 -2.01241,-1.897951 -2.26771,-2.495956 -2.26771,-5.311863 0,-2.193386 0.38548,-3.663201 1.24848,-4.760316 z"
       id="path6010" /><path
       style="fill:#354793;stroke-width:0.635"
       d="m 192.64731,23.275763 c 1.50154,-1.435989 10.63359,-8.476113 15.82992,-12.203689 5.39607,-3.8708456 7.16523,-4.3412408 8.0078,-2.1291678 0.71701,1.8824448 -0.10271,2.7829828 -7.57013,8.3164418 -3.31788,2.458593 -7.55888,5.700839 -9.42446,7.204989 -3.66433,2.954413 -6.01948,3.456768 -7.0632,1.506562 -0.84083,-1.57111 -0.83114,-1.689817 0.22007,-2.695136 z"
       id="path5994" /><path
       style="fill:#354793;stroke-width:0.635"
       d="m 180.4185,150.01131 c 1.34721,-1.20842 1.35442,-1.2035 6.985,4.77553 3.10003,3.29186 5.63641,6.38245 5.63641,6.86799 0,1.58203 -1.28889,3.33931 -2.44924,3.33931 -1.34871,0 -11.52076,-11.25231 -11.52076,-12.74426 0,-0.5659 0.60687,-1.57325 1.34859,-2.23857 z"
       id="path5972" /><path
       style="fill:#354793;stroke-width:0.635"
       d="m 180.3426,18.626655 c 0.6364,-2.444749 1.48276,-6.06329 1.8808,-8.041201 0.80415,-3.9958766 1.92173,-4.9065744 4.1941,-3.4176647 1.72591,1.130865 1.68931,1.7496788 -0.69258,11.7111577 -0.91675,3.834003 -2.07106,7.306411 -2.56516,7.716469 -0.50098,0.415772 -1.60419,0.568401 -2.49408,0.345052 -1.9405,-0.487038 -1.99506,-1.89089 -0.32308,-8.313813 z"
       id="path5970" /><path
       style="fill:#354793;stroke-width:0.635"
       d="m 156.17833,128.99842 c 1.55097,-2.54366 3.09052,-3.37428 6.25422,-3.37428 4.8607,0 8.11603,4.87736 6.50778,9.7504 -1.54596,4.6843 -7.60688,6.48857 -11.05664,3.29143 -3.10105,-2.87395 -3.71737,-6.3678 -1.70536,-9.66755 z"
       id="path5952" /><path
       style="fill:#354793;stroke-width:0.635"
       d="m 146.07391,4.9613169 c 2.71533,-1.4531973 3.60906,-0.3248469 6.30413,7.9591401 2.75757,8.476068 2.97493,9.801662 1.79989,10.976698 -1.00102,1.00102 -3.6614,0.979621 -3.94703,-0.03175 -0.12329,-0.436563 -1.4002,-4.541628 -2.83757,-9.122359 -1.43737,-4.580737 -2.6134,-8.4997467 -2.6134,-8.7089094 0,-0.2091626 0.5823,-0.6919277 1.29398,-1.0728197 z"
       id="path5930" /><path
       style="fill:#354793;stroke-width:0.635"
       d="m 140.91448,67.907121 c 0.77908,-1.230338 5.14402,-1.864341 16.28426,-2.365299 11.33672,-0.50979 14.03055,-0.151669 15.00877,1.995278 0.53518,1.174598 0.49992,1.774482 -0.15036,2.558027 -0.69477,0.837146 -1.66597,0.954767 -5.33211,0.645745 l -4.48261,-0.377838 3.16775,1.326959 c 3.15604,1.322051 4.10656,2.143538 4.12503,3.565049 0.0213,1.641303 -2.00015,2.590457 -6.45833,3.032416 l -4.64445,0.460426 2.2225,1.172159 c 1.22237,0.644684 4.29612,1.971745 6.83056,2.949023 2.53443,0.977271 4.75547,2.241327 4.93565,2.809017 0.50313,1.585246 -0.28455,2.993015 -1.99339,3.562623 -1.43448,0.478161 -1.29085,0.626961 1.95962,2.03012 3.06728,1.324083 3.50756,1.739112 3.50756,3.306387 0,1.041261 -0.46564,2.058785 -1.11125,2.428329 -2.85641,1.635004 -2.97825,1.799196 -2.11076,2.844463 0.48498,0.584365 0.6591,1.648995 0.42332,2.588395 -0.55067,2.19406 -2.68902,2.08235 -5.99603,-0.31323 -3.0256,-2.191732 -3.48699,-4.407444 -1.24484,-5.977913 1.62127,-1.135583 1.77831,-0.936504 -2.58171,-3.272802 -1.87758,-1.006094 -3.84406,-2.485942 -4.36995,-3.288551 -0.85809,-1.309617 -0.84989,-1.576736 0.08,-2.604274 1.18679,-1.311389 1.32103,-1.997481 0.39081,-1.997481 -0.35495,0 -3.32545,-1.252411 -6.6011,-2.783129 -4.12676,-1.928444 -6.08973,-3.205333 -6.39209,-4.157973 -0.60269,-1.89891 0.56861,-3.070206 3.69324,-3.693236 l 2.64283,-0.526955 -4.7625,-0.850671 c -2.61938,-0.467861 -5.40544,-1.092752 -6.19125,-1.38863 -1.47142,-0.554038 -1.83357,-2.121897 -0.8492,-3.676434 z"
       id="path5918" /><path
       style="fill:#354793;stroke-width:0.635"
       d="m 115.46623,219.11519 c 0.50305,-0.79259 11.97069,-3.32105 15.06233,-3.32105 1.07375,0 1.81334,0.51519 2.3126,1.61095 1.06836,2.34481 -0.33584,3.41466 -5.42842,4.13585 -2.3307,0.33008 -5.44874,0.87241 -6.92898,1.20519 -3.92655,0.88276 -6.63732,-1.07889 -5.01753,-3.63094 z"
       id="path5820" /><path
       style="fill:#354793;stroke-width:0.635"
       d="m 92.99248,263.44814 c 1.70063,-1.4114 3.3322,-0.36954 7.90993,5.05099 4.77865,5.65843 5.45019,7.68906 3.02377,9.14345 -0.99739,0.59784 -1.67603,0.14744 -4.68737,-3.11095 -4.24194,-4.58993 -7.16388,-8.48204 -7.16388,-9.54252 0,-0.42871 0.4129,-1.12215 0.91755,-1.54097 z"
       id="path5756" /><path
       style="fill:#354793;stroke-width:0.635"
       d="m 93.56772,133.8068 c 1.65994,-0.75632 4.36635,0.39525 12.35511,5.25709 2.33733,1.42246 4.464,2.71204 4.72594,2.86575 0.96987,0.56911 0.40568,-0.36857 -2.38125,-3.95758 -3.02562,-3.8964 -3.44639,-5.35367 -1.91325,-6.62607 1.22437,-1.01614 3.01022,-0.53715 9.109,2.44317 6.76006,3.30348 7.53913,3.46398 7.99513,1.64712 0.38556,-1.53619 2.40101,-2.57957 3.57788,-1.85223 0.37544,0.23204 1.521,1.57924 2.54568,2.99377 2.11337,2.91742 2.43294,5.84165 0.73755,6.74899 -1.41829,0.75905 -5.80694,-0.0317 -9.88089,-1.7804 -1.68788,-0.72449 -3.14921,-1.31727 -3.24738,-1.31727 -0.0982,0 0.49702,1.33431 1.32265,2.96512 1.75899,3.47446 1.87219,4.82643 0.49947,5.96568 -1.15365,0.95745 -4.9003,0.18391 -9.22157,-1.9039 l -2.4884,-1.20226 1.75152,3.11588 c 2.14983,3.82446 1.60888,5.24225 -2.11888,5.55336 -1.40437,0.11721 -2.96492,0.73455 -3.61167,1.42875 -0.62635,0.6723 -1.37489,1.22237 -1.66344,1.22237 -1.18869,0 -3.74912,-2.64309 -5.1881,-5.35562 -1.21603,-2.29223 -1.38749,-3.12762 -0.82277,-4.00877 0.73297,-1.14364 2.75641,-1.35224 4.99747,-0.51517 0.70975,0.2651 0.98268,0.23784 0.61869,-0.0618 -2.32205,-1.9115 -9.19119,-10.64258 -9.19119,-11.68256 0,-0.70994 0.65386,-1.56125 1.4927,-1.94344 z"
       id="path5754" /><path
       style="fill:#354793;stroke-width:0.635"
       d="m 84.29618,215.88183 c 0.61119,-0.3256 3.39725,-0.90765 6.19125,-1.29345 2.794,-0.38581 8.13247,-1.18063 11.86327,-1.76628 7.25945,-1.13957 8.77423,-0.83617 8.77423,1.75745 0,1.5401 -1.50711,2.28232 -6.59367,3.24723 -2.31073,0.43834 -4.19722,0.94613 -4.19218,1.12842 0.005,0.18229 1.4518,1.12722 3.21504,2.09985 2.77164,1.52889 3.17896,2.00141 3.0071,3.48844 -0.16722,1.44692 -0.7446,1.91566 -3.63631,2.95218 l -3.4375,1.23215 3.4375,1.14826 c 1.89064,0.63154 4.6218,1.5912 6.06925,2.13258 4.18207,1.56419 4.12351,4.86029 -0.10044,5.65271 -1.23699,0.23207 -2.08856,0.68166 -1.89237,0.99911 0.19619,0.31744 1.99007,1.45431 3.98639,2.52636 5.76682,3.09686 6.73478,4.01435 6.25441,5.92832 -0.31842,1.26866 -1.14834,1.91174 -3.58331,2.77657 -1.7429,0.61902 -3.16798,1.27273 -3.16684,1.4527 10e-4,0.17996 2.07282,1.16448 4.60375,2.18783 9.15771,3.70278 13.06274,6.51364 12.19407,8.77734 -0.44142,1.15033 -4.67952,3.01453 -6.85326,3.01453 -2.11318,0 -4.24492,-2.03451 -3.82286,-3.64848 0.42286,-1.61703 -0.29693,-2.09996 -7.88555,-5.2905 -6.93773,-2.91689 -9.03322,-4.36628 -9.03322,-6.248 0,-1.64337 1.04322,-2.26596 5.3517,-3.19392 3.69188,-0.79516 3.73721,-0.83072 2.35907,-1.85116 -0.77282,-0.57225 -3.81986,-2.03795 -6.7712,-3.25712 -2.95134,-1.21917 -5.51958,-2.61675 -5.70721,-3.10571 -0.63155,-1.64579 0.3895,-3.23106 2.42674,-3.76772 l 2.0234,-0.53302 -3.09697,-1.37968 c -1.70333,-0.75883 -3.27495,-1.38919 -3.4925,-1.40081 -0.85992,-0.0459 -3.25185,-2.45475 -3.23283,-3.25566 0.0376,-1.58239 1.59778,-2.93624 4.32569,-3.75354 3.32228,-0.99538 2.77302,-1.39191 -4.25218,-3.06983 -2.81771,-0.67299 -5.42025,-1.40726 -5.78341,-1.63171 -1.06434,-0.6578 -0.75816,-3.41132 0.45095,-4.05544 z"
       id="path5728" /><path
       style="fill:#354793;stroke-width:0.635"
       d="m 70.65974,127.86242 c 1.9259,-1.9259 2.65469,-2.23828 5.22201,-2.23828 2.48849,0 3.27559,0.31244 4.74209,1.88234 2.3132,2.47628 2.79625,5.12444 1.51767,8.31994 -1.83782,4.59319 -7.41084,5.90882 -11.09306,2.61876 -1.62082,-1.44821 -2.05592,-2.40133 -2.31179,-5.06423 -0.29687,-3.0896 -0.1851,-3.41035 1.92308,-5.51853 z"
       id="path5700" /><path
       style="fill:#354793;stroke-width:0.635"
       d="m 55.41384,245.4344 c 3.69513,-6.9343 4.65017,-7.84493 6.7126,-6.40035 1.66907,1.16906 1.74988,2.75464 0.24328,4.7732 -0.62167,0.83291 -2.12185,3.58248 -3.33375,6.11014 -2.23017,4.65147 -3.39502,5.65953 -5.69595,4.92924 -1.98237,-0.62917 -1.54241,-2.62596 2.07382,-9.41223 z"
       id="path5674" /><path
       style="fill:#354793;stroke-width:0.635"
       d="m 46.4586,-3.535922 c 0.75547,-0.5291512 1.73243,-0.759667 2.17103,-0.512257 0.71041,0.4007351 4.13625,6.3495656 8.00855,13.9065075 1.13364,2.2123525 1.22524,2.8287275 0.54261,3.6512495 -1.45768,1.756397 -3.54286,1.184726 -5.28589,-1.449171 -2.24564,-3.3933765 -6.80988,-12.5780994 -6.80988,-13.7036476 0,-0.5118233 0.61811,-1.3635303 1.37358,-1.8926814 z"
       id="path5654" /><path
       style="fill:#354793;stroke-width:0.635"
       d="m 34.73835,30.691654 c 0.75793,-2.977057 2.99098,-3.751275 4.86071,-1.685245 0.58348,0.644741 1.74387,2.573553 2.57864,4.286249 l 1.51777,3.113996 1.26791,-2.924575 c 1.95964,-4.520127 4.25657,-4.779791 6.09711,-0.689274 0.58005,1.28912 1.87504,4.915598 2.87775,8.058848 l 1.82312,5.715 0.0593,-7.045331 c 0.0503,-5.971247 0.23637,-7.205548 1.22058,-8.096249 0.63871,-0.578009 1.61334,-1.050919 2.16587,-1.050919 1.3024,0 3.30646,4.229849 4.66327,9.842499 1.36345,5.640076 1.92837,6.239529 2.61379,2.773585 0.52019,-2.630418 0.66116,-2.773585 2.73104,-2.773585 2.03761,0 2.26128,0.210833 3.36832,3.175 1.75839,4.708156 2.98275,11.860319 2.97176,17.359609 -0.0114,5.711145 -0.43311,6.628498 -2.91669,6.344989 -1.82631,-0.208483 -1.8379,-0.237356 -2.1751,-5.416943 -0.36121,-5.548458 -0.84575,-6.96125 -1.49723,-4.365555 -0.50202,2.000225 -2.53368,3.188208 -4.02506,2.35359 -0.59508,-0.333026 -1.69262,-2.367801 -2.43896,-4.521727 l -1.357,-3.916229 -0.3423,5.486533 c -0.27063,4.337881 -0.58914,5.673521 -1.52137,6.379686 -0.64848,0.491236 -1.39338,0.902239 -1.65532,0.913352 -1.78469,0.07568 -4.09489,-5.448693 -7.8252,-18.712305 l -1.07153,-3.81 -0.75336,2.180006 c -1.71857,4.973078 -4.29678,3.982414 -8.03088,-3.085821 -1.36305,-2.580087 -3.12166,-5.010549 -3.90803,-5.401023 -1.45365,-0.721824 -1.88145,-2.199996 -1.29892,-4.488161 z"
       id="path5638" /><path
       style="fill:#354793;stroke-width:0.635"
       d="m 21.61133,199.55547 c 0.37243,-1.00149 1.75675,-1.65096 5.79031,-2.71655 2.91547,-0.77022 7.44398,-2.08662 10.06336,-2.92533 4.60022,-1.47298 4.80263,-1.48574 5.94022,-0.37433 0.77199,0.75421 1.03534,1.59926 0.76441,2.45287 -0.41913,1.32057 -3.6281,2.58106 -14.87732,5.84384 -6.34626,1.84071 -8.92846,1.07406 -7.68098,-2.2805 z"
       id="path5620" /><path
       id="path5494"
       style="fill:#354793;stroke-width:0.635"
       d="m -4.6948039,270.54215 c -3.9964661,0.36515 -5.0483291,1.0817 -4.7945394,3.26491 0.17978,1.5466 0.4248051,2.07676 4.1594361,1.8309 0,0 3.6302914,-0.2152 5.44307859,-0.3558 1.07458201,-0.0833 3.22047521,-0.28913 3.22047521,-0.28913 3.9964661,-0.36515 5.0483292,-1.08118 4.7945394,-3.2644 -0.1797798,-1.54659 -0.4209597,-1.65281 -4.159436,-1.83089 0,0 -2.5715405,0.14296 -3.85557861,0.22237 -1.62257559,0.10036 -4.80797529,0.42204 -4.80797529,0.42204 z"
       sodipodi:nodetypes="cssscsssc" /><path
       style="fill:#354793;stroke-width:0.635"
       d="M 4.74853,41.467533 C 10.34525,40.94308 11.43,41.239606 11.43,43.293971 c 0,2.339009 -1.51495,3.120885 -6.69051,3.453034 L 0,47.051164 V 44.48184 41.912509 Z"
       id="path5488" /><path
       style="fill:#354793;stroke-width:0.635"
       d="m 503.67422,36.705235 c 1.22445,-2.71802 3.35452,-4.05022 6.47598,-4.05022 3.23072,0 5.60572,1.71407 6.61582,4.77463 0.9758,2.95653 0.3016,5.61711 -2.0087,7.92743 -2.02583,2.0258 -4.67916,2.46885 -7.76323,1.29628 -3.2627,-1.24047 -4.95634,-6.31552 -3.31987,-9.94812 z"
       id="path7804" /><path
       style="fill:#354793;stroke-width:0.635"
       d="m -2.5016626,202.42016 c 1.55097003,-2.54366 3.09052003,-3.37428 6.25422,-3.37428 4.8607003,0 8.1160306,4.87736 6.5077806,9.7504 -1.5459603,4.6843 -7.6068806,6.48857 -11.05664057,3.29143 -3.10105003,-2.87395 -3.71737003,-6.3678 -1.70536003,-9.66755 z"
       id="path8122" /></g></svg>
