<?xml version="1.0" encoding="UTF-8" standalone="no"?>
<!-- Created with Inkscape (http://www.inkscape.org/) -->

<svg
   width="936.30182mm"
   height="468.15091mm"
   viewBox="0 0 936.30184 468.1509"
   version="1.1"
   id="svg26228"
   xml:space="preserve"
   inkscape:version="1.2.2 (b0a8486541, 2022-12-01)"
   sodipodi:docname="BeKindRewind.svg"
   xmlns:inkscape="http://www.inkscape.org/namespaces/inkscape"
   xmlns:sodipodi="http://sodipodi.sourceforge.net/DTD/sodipodi-0.dtd"
   xmlns="http://www.w3.org/2000/svg"
   xmlns:svg="http://www.w3.org/2000/svg"><sodipodi:namedview
     id="namedview26230"
     pagecolor="#ffffff"
     bordercolor="#666666"
     borderopacity="1.0"
     inkscape:showpageshadow="2"
     inkscape:pageopacity="0.0"
     inkscape:pagecheckerboard="0"
     inkscape:deskcolor="#d1d1d1"
     inkscape:document-units="mm"
     showgrid="false"
     inkscape:zoom="0.36415706"
     inkscape:cx="2179.0048"
     inkscape:cy="1334.589"
     inkscape:window-width="2560"
     inkscape:window-height="1510"
     inkscape:window-x="1920"
     inkscape:window-y="54"
     inkscape:window-maximized="1"
     inkscape:current-layer="layer1" /><defs
     id="defs26225" /><g
     inkscape:label="Layer 1"
     inkscape:groupmode="layer"
     id="layer1"
     transform="translate(261.04108,367.2258)"><g
       id="g26724"
       transform="translate(13.227482,-205.4982)"><path
         style="fill:#eade3b;stroke-width:0.264583"
         d="m -119.07674,264.9055 c -3.46847,-0.28041 -10.18848,-1.25774 -12.83229,-1.86628 -1.30968,-0.30146 -3.03834,-0.65178 -3.84145,-0.77849 -0.8031,-0.12671 -1.87467,-0.40108 -2.38125,-0.60971 -0.50657,-0.20863 -1.45683,-0.46547 -2.11167,-0.57076 -1.62687,-0.26157 -10.83261,-3.34142 -13.36146,-4.47017 -0.43656,-0.19485 -1.68672,-0.73662 -2.77812,-1.20391 -1.09141,-0.4673 -2.32145,-1.01892 -2.73343,-1.22582 -0.41197,-0.20691 -0.87698,-0.3762 -1.03335,-0.3762 -0.15638,0 -0.65274,-0.28052 -1.10304,-0.62339 -0.4503,-0.34286 -1.11638,-0.71567 -1.48018,-0.82846 -0.36381,-0.11279 -0.97831,-0.42816 -1.36557,-0.70082 -0.38726,-0.27265 -1.28023,-0.76312 -1.98438,-1.08992 -0.70414,-0.3268 -1.75651,-0.9246 -2.3386,-1.32845 -0.58208,-0.40385 -1.9513,-1.32764 -3.0427,-2.05287 -1.9024,-1.26413 -3.02901,-2.05482 -5.9454,-4.17267 -1.94706,-1.41393 -6.83909,-5.34553 -7.18065,-5.77091 -0.16156,-0.20122 -0.37528,-0.36584 -0.47493,-0.36584 -0.33988,0 -11.34343,-11.23991 -12.43294,-12.7 -0.59723,-0.80037 -1.20494,-1.58955 -1.35046,-1.75374 -0.14552,-0.16419 -0.56224,-0.6784 -0.92604,-1.14267 -0.3638,-0.46428 -0.86982,-1.04101 -1.12448,-1.28163 -0.25466,-0.24061 -0.46302,-0.53642 -0.46302,-0.65735 0,-0.12092 -0.62508,-1.07792 -1.38906,-2.12665 -2.02367,-2.77793 -3.67447,-5.33319 -6.07915,-9.40986 -0.78723,-1.33459 -4.33028,-8.44015 -5.16135,-10.35102 -0.2848,-0.65484 -0.85527,-2.02406 -1.26771,-3.04271 -0.41245,-1.01864 -0.84757,-1.96519 -0.96694,-2.10343 -0.11937,-0.13825 -0.21704,-0.41791 -0.21704,-0.62147 0,-0.20357 -0.16477,-0.7453 -0.36616,-1.20386 -0.96938,-2.20721 -3.86717,-11.98677 -3.86717,-13.05105 0,-0.24481 -0.11053,-0.81075 -0.24561,-1.25765 -0.13509,-0.44689 -0.435,-1.7055 -0.66647,-2.79691 -0.74841,-3.52879 -0.94044,-4.83441 -1.67339,-11.37708 -0.10596,-0.94589 -0.19244,-5.82745 -0.19218,-10.84792 4.8e-4,-8.97047 0.29019,-13.28812 1.19838,-17.85937 0.14456,-0.72761 0.55171,-2.8112 0.90478,-4.63021 0.71963,-3.70749 0.94346,-4.61386 2.02551,-8.20208 1.70122,-5.6415 2.19222,-7.10412 3.04635,-9.0748 0.49186,-1.13483 0.8943,-2.24275 0.8943,-2.46203 0,-0.21929 0.41047,-1.1722 0.91217,-2.11759 0.50169,-0.94539 1.1459,-2.33778 1.43158,-3.09421 0.28568,-0.75643 0.93034,-2.20877 1.43259,-3.22742 0.50225,-1.018641 1.13106,-2.328328 1.39736,-2.910412 0.2663,-0.582083 0.75529,-1.421929 1.08664,-1.866326 0.33135,-0.444394 0.78639,-1.2183 1.0112,-1.719791 0.47065,-1.049888 3.06718,-5.100876 3.79285,-5.917422 0.26914,-0.302845 0.81234,-1.086408 1.20712,-1.741252 0.94861,-1.573525 1.8636,-2.833833 2.89309,-3.984926 0.46348,-0.518219 1.15896,-1.411187 1.54552,-1.984375 0.38656,-0.573186 1.25912,-1.63747 1.93903,-2.365074 0.67991,-0.727604 2.09004,-2.248844 3.13363,-3.380533 1.04358,-1.131689 2.71203,-2.858095 3.70768,-3.836458 0.99563,-0.978363 2.36485,-2.327953 3.0427,-2.999087 0.67785,-0.671134 1.42857,-1.325978 1.66825,-1.455208 0.23969,-0.12923 1.37079,-1.084217 2.51355,-2.122194 3.14477,-2.856415 6.69413,-5.638059 9.61837,-7.537931 2.65532,-1.72516 4.50675,-2.877963 4.62208,-2.877963 0.0626,0 0.64314,-0.357187 1.29,-0.79375 0.64687,-0.436562 1.27024,-0.79375 1.38528,-0.79375 0.11503,0 0.45495,-0.226483 0.75538,-0.503298 0.67093,-0.61821 6.31048,-3.522361 8.24714,-4.246957 0.77849,-0.291271 1.62645,-0.643839 1.88434,-0.783484 1.49812,-0.811191 4.06458,-1.797674 7.74494,-2.976956 0.94589,-0.303086 2.73182,-0.883967 3.96875,-1.290846 3.45639,-1.136959 12.3991,-3.198413 15.34583,-3.537489 0.80037,-0.0921 2.58631,-0.343126 3.96875,-0.557842 5.80593,-0.901753 19.46622,-1.067957 25.745686,-0.313246 2.009137,0.241473 3.762849,0.506946 3.897138,0.58994 0.134287,0.083 1.109824,0.255977 2.167855,0.384404 1.749103,0.212311 6.628127,1.222644 8.935156,1.850262 0.509323,0.13856 1.878542,0.509098 3.042709,0.823419 2.988632,0.806919 8.876733,2.770532 11.377082,3.794126 1.164167,0.476586 3.128698,1.264788 4.365625,1.751557 1.236927,0.48677 2.665677,1.119815 3.175,1.406764 0.509323,0.286948 1.684822,0.921972 2.61222,1.411163 0.927397,0.48919 3.408413,1.928114 5.513369,3.197608 2.104954,1.269492 4.203674,2.528123 4.663821,2.796958 0.92655,0.541324 7.409534,5.398616 8.244964,6.177433 0.291042,0.27132 1.837759,1.620851 3.437146,2.998957 5.207585,4.487098 15.215978,14.725036 15.215978,15.564963 0,0.121534 0.416719,0.650052 0.926042,1.174486 0.509322,0.524433 0.926041,1.012515 0.926041,1.084625 0,0.148404 3.123869,4.59405 3.649353,5.193471 0.691123,0.788369 2.23329,3.344765 2.964278,4.913784 0.413361,0.887248 0.937318,1.798933 1.164354,2.025967 0.790644,0.790646 5.1519718,9.882833 6.630765,13.823353 0.546108,1.45521 1.1589544,3.02102 1.3618792,3.47957 0.2029248,0.45856 0.3689535,0.94999 0.3689535,1.09208 0,0.14209 0.1665234,0.39655 0.3700515,0.56546 0.2035281,0.16892 0.4298791,0.74904 0.5030047,1.28917 0.073125,0.54013 0.5546989,2.35127 1.0701654,4.02476 0.51546651,1.67349 1.19341365,4.23334 1.50655065,5.68854 0.31313701,1.45521 0.74472532,3.41974 0.95908543,4.36563 1.17956802,5.20497 1.70188992,10.1621 1.88795542,17.91768 0.2198,9.16187 0.2116773,11.32659 -0.054388,14.49378 -0.238207,2.83554 -1.3570743,10.25185 -1.85611816,12.30312 -0.19471744,0.80036 -0.50305491,2.16958 -0.68518877,3.04271 -0.28079963,1.3461 -0.92366302,3.93439 -1.84003147,7.40833 -0.8012165,3.03741 -3.6620131,10.56095 -5.4327634,14.2875 -0.4840314,1.01865 -1.2420652,2.62599 -1.68452,3.57188 -1.649642,3.52662 -4.944946,9.07864 -8.030498,13.53001 -0.540964,0.78042 -1.466831,2.12022 -2.057482,2.97734 -2.42934,3.52533 -7.571488,9.30791 -13.193696,14.8369 -3.663373,3.60264 -7.080927,6.49469 -11.480354,9.71504 -0.836745,0.61249 -1.521355,1.20925 -1.521355,1.32612 0,0.11688 -0.17009,0.2125 -0.377975,0.2125 -0.207889,0 -0.582062,0.20409 -0.831501,0.45353 -0.705612,0.70561 -7.236841,4.72513 -10.299898,6.33888 -1.856261,0.97795 -6.023178,2.89842 -8.756255,4.03563 -1.760006,0.73232 -3.545943,1.51189 -3.96875,1.73238 -0.42281,0.2205 -0.934297,0.40164 -1.136639,0.40253 -0.202343,8e-4 -0.857187,0.23336 -1.455209,0.51659 -0.598022,0.28323 -2.813719,1.00699 -4.923771,1.60835 -2.110052,0.60137 -4.491302,1.32131 -5.291666,1.59987 -2.169658,0.75512 -10.353032,2.1572 -16.801041,2.87857 -3.101528,0.34698 -16.983388,0.52959 -20.240628,0.26626 z m 11.46639,-11.27492 c 0.6944,-0.11473 1.08217,-0.3438 1.22674,-0.72469 0.19039,-0.50157 0.7489,-3.17452 0.94565,-4.52569 0.0731,-0.50235 0.70987,-4.15784 1.1777,-6.76134 0.1191,-0.6628 0.33922,-1.67483 0.48916,-2.24896 0.14994,-0.57413 0.41261,-2.02613 0.58372,-3.22668 0.17111,-1.20054 0.39255,-2.18281 0.4921,-2.18281 0.0995,0 0.33184,0.44649 0.51621,0.99219 0.18438,0.5457 0.44599,1.23031 0.58137,1.52135 0.13538,0.29104 1.35579,3.86865 2.712008,7.95023 1.356222,4.08158 2.554303,7.56416 2.662398,7.73906 0.212432,0.34372 2.088494,0.38627 4.250666,0.0964 l 1.307235,-0.17526 0.443643,-1.85208 c 0.244001,-1.01865 0.825121,-3.87615 1.291378,-6.35 1.489673,-7.9039 2.07437,-10.96811 3.34595,-17.53499 0.68399,-3.53236 1.167095,-6.499 1.073568,-6.59253 -0.218064,-0.21807 -1.130342,-0.21048 -3.655401,0.0304 -1.446546,0.13799 -2.074746,0.3099 -2.185305,0.59801 -0.08534,0.22239 -0.573987,2.86223 -1.085887,5.86631 -0.511897,3.00409 -1.095904,6.41447 -1.297787,7.57864 -0.201885,1.16417 -0.513802,3.04318 -0.693147,4.17559 -0.293725,1.85459 -0.594466,2.57795 -0.931619,2.2408 -0.127013,-0.12701 -1.639435,-4.5962 -4.579445,-13.53222 -1.030608,-3.13248 -1.995305,-5.62708 -2.225995,-5.75618 -0.43447,-0.24314 -4.39478,0.22742 -4.76637,0.56633 -0.1191,0.10863 -0.31928,0.83825 -0.44484,1.62138 -0.12558,0.78314 -0.40927,2.55498 -0.63043,3.93743 -0.22117,1.38244 -0.52247,3.16838 -0.66957,3.96874 -0.14709,0.80037 -0.58457,3.18162 -0.97217,5.29167 -0.3876,2.11005 -0.78642,4.37224 -0.88626,5.02708 l -0.18153,1.19063 -0.34738,-0.79375 c -0.19106,-0.43656 -0.44213,-1.03188 -0.55793,-1.32292 -0.30077,-0.7559 -1.82638,-5.38296 -2.13731,-6.48229 -0.60759,-2.14817 -0.74352,-2.58333 -1.23965,-3.96875 -0.28662,-0.80036 -0.9172,-2.70536 -1.40128,-4.23333 -1.12902,-3.56365 -1.22183,-3.676 -2.81936,-3.413 -0.68975,0.11355 -1.88291,0.21355 -2.65146,0.22223 -0.88378,0.01 -1.44545,0.14109 -1.5282,0.35673 -0.14162,0.36905 0.46841,2.40943 1.59882,5.34758 0.39191,1.01865 0.74284,1.97115 0.77984,2.11667 0.31557,1.24102 0.50775,1.88716 0.61987,2.08411 0.17444,0.30644 2.97694,8.34741 3.14663,9.02839 0.0725,0.29104 0.23093,0.76729 0.35201,1.05833 0.12108,0.29104 0.7801,2.13651 1.4645,4.10104 0.6844,1.96453 1.5383,4.37555 1.89757,5.35781 l 0.65322,1.78594 1.63051,-0.003 c 0.89678,-0.002 2.08742,-0.0784 2.64586,-0.17067 z m -22.59761,-3.75156 c 0.92546,-3.01917 0.93649,-2.98147 -1.03961,-3.55474 -3.8794,-1.12544 -5.26214,-1.51329 -7.32486,-2.05462 -2.99364,-0.78562 -3.10281,-0.8863 -2.7254,-2.51368 0.38329,-1.65277 1.26205,-4.47984 1.75156,-5.63495 0.36137,-0.85275 0.41066,-0.87586 1.48181,-0.69489 0.6094,0.10296 1.29117,0.2776 1.51505,0.38808 0.62264,0.30729 4.15965,1.31842 6.18672,1.76861 1.34134,0.2979 1.8881,0.32502 2.10855,0.10457 0.46816,-0.46816 1.45478,-4.17307 1.21473,-4.56148 -0.11753,-0.19016 -0.96362,-0.53931 -1.8802,-0.77587 -2.53805,-0.65507 -8.1141,-2.30572 -8.41304,-2.49047 -0.1457,-0.09 -0.26492,-0.42485 -0.26492,-0.74399 0,-0.62546 1.47629,-5.98008 1.71437,-6.21816 0.11928,-0.11928 7.80618,1.96967 10.58876,2.87754 0.66358,0.21651 0.86466,0.17268 1.2262,-0.26727 0.5455,-0.66381 1.43454,-4.21732 1.12221,-4.48548 -0.12746,-0.10943 -0.76753,-0.35254 -1.42237,-0.54024 -0.65485,-0.1877 -1.48828,-0.43272 -1.85209,-0.54448 -0.3638,-0.11177 -1.1377,-0.33462 -1.71979,-0.49522 -1.78694,-0.49303 -3.87618,-1.11544 -5.95312,-1.7735 -1.09141,-0.3458 -2.69875,-0.79744 -3.57188,-1.00364 -0.87312,-0.2062 -1.7942,-0.45935 -2.04684,-0.56255 -0.34589,-0.14129 -0.53296,-0.001 -0.75738,0.56686 -0.33479,0.84753 -1.78682,5.75918 -1.94387,6.57534 -0.15147,0.78718 -2.9673,10.62092 -4.12902,14.41979 -0.55626,1.81901 -1.32509,4.34255 -1.70851,5.60788 -0.38341,1.26532 -0.65881,2.62185 -0.612,3.01451 0.0762,0.63942 0.27842,0.76822 1.93721,1.23406 1.01864,0.28607 2.03067,0.58471 2.24896,0.66364 0.40105,0.14502 2.91678,0.85374 7.27604,2.04979 1.30968,0.35934 3.15515,0.87166 4.10104,1.13849 0.94588,0.26683 1.86185,0.43662 2.03547,0.37731 0.17362,-0.0593 0.55892,-0.90136 0.85622,-1.87124 z m 60.608305,-4.23972 c 2.204717,-0.84592 2.447514,-1.22599 1.749956,-2.73931 -0.220509,-0.47838 -0.886801,-2.11994 -1.480653,-3.64791 -0.593852,-1.52797 -1.192768,-3.01625 -1.330923,-3.30729 -0.138155,-0.29105 -0.59681,-1.48167 -1.01923,-2.64584 -0.422423,-1.16416 -1.902947,-4.97416 -3.290054,-8.46666 -1.387107,-3.4925 -2.744711,-6.99459 -3.016896,-7.78241 -0.690943,-1.99991 -1.012277,-2.13882 -3.186697,-1.37759 -0.982829,0.34407 -2.060773,0.79628 -2.395431,1.00491 -0.712184,0.44398 -0.729009,0.35763 0.867317,4.45092 0.624261,1.60073 2.059435,5.29167 3.189274,8.20208 5.946018,15.3167 6.378784,16.39431 6.82938,17.00546 0.277027,0.37573 0.308009,0.36873 3.083957,-0.69636 z m -88.336475,-4.00899 c 0.17837,-1.27125 0.7238,-3.12829 2.09728,-7.14073 0.69462,-2.02926 0.86779,-2.96881 0.89875,-4.87648 l 0.0384,-2.36293 1.44219,-0.31228 c 3.0785,-0.66658 5.20973,-2.38156 6.60117,-5.31189 1.27197,-2.67872 1.24775,-4.59769 -0.0901,-7.13589 -0.5437,-1.03154 -1.50267,-2.36552 -2.13106,-2.96441 -1.02685,-0.97866 -4.96051,-3.75904 -5.31825,-3.75904 -0.079,0 -0.58778,-0.27561 -1.1306,-0.61247 -0.54281,-0.33687 -1.80564,-0.95644 -2.8063,-1.37683 l -1.81938,-0.76434 -0.56187,0.69053 c -0.64197,0.78897 -2.30136,3.38867 -6.3834,10.00061 -1.57221,2.54662 -3.47371,5.58271 -4.22556,6.74688 -0.75184,1.16416 -1.82399,2.9501 -2.38255,3.96875 -0.55855,1.01864 -1.34704,2.33982 -1.7522,2.93594 -1.39511,2.05268 -1.34768,2.21445 1.10746,3.77714 1.19513,0.7607 2.32045,1.32649 2.50072,1.25731 0.18027,-0.0692 1.10052,-1.41456 2.04501,-2.98975 3.46647,-5.78126 4.18188,-6.91588 4.55696,-7.22716 0.30916,-0.25659 0.67654,-0.12174 1.90646,0.69976 0.83793,0.55967 1.8061,1.43431 2.15149,1.94363 0.54698,0.80658 0.6081,1.13084 0.47381,2.51354 -0.0848,0.87313 -0.64037,3.01625 -1.23461,4.7625 -0.59425,1.74625 -1.14119,3.82985 -1.21544,4.63021 -0.15006,1.61748 -0.22914,1.52813 3.0806,3.48043 1.6166,0.95358 1.94924,0.86496 2.15102,-0.57303 z m -0.13416,-19.76501 c -0.56001,-0.14374 -2.65186,-1.29723 -3.60013,-1.9852 l -0.62615,-0.45427 0.5094,-0.95674 c 1.49984,-2.817 3.77595,-6.07791 4.2965,-6.15547 1.40174,-0.20886 4.51728,2.20466 5.2195,4.04338 0.59817,1.56628 0.34434,2.80317 -0.84552,4.12021 -1.21573,1.34566 -3.08171,1.86854 -4.9536,1.38809 z m 103.555416,16.9459 c 0.798423,-0.53353 1.723364,-1.25814 2.055424,-1.61024 l 0.603747,-0.64018 -0.923168,-1.23404 c -0.507741,-0.67872 -1.466168,-2.00794 -2.129832,-2.95383 -0.663668,-0.94588 -1.857251,-2.61276 -2.652411,-3.70417 -0.79516,-1.0914 -1.996461,-2.79355 -2.669559,-3.78255 -0.6731,-0.989 -1.687258,-2.38448 -2.253691,-3.10107 -1.551009,-1.96217 -1.38303,-2.24643 0.770578,-1.30401 0.683241,0.29899 1.48038,0.64313 1.771422,0.76476 0.654698,0.27361 5.362225,2.11778 6.085416,2.38395 0.291042,0.10712 1.184011,0.50038 1.984375,0.8739 2.194806,1.02431 9.181449,3.91473 10.097799,4.17754 0.711726,0.20412 1.028723,0.0802 2.72806,-1.06651 1.057519,-0.7136 1.995488,-1.48699 2.084377,-1.71863 0.170675,-0.44477 -0.563563,-1.58841 -3.440914,-5.35952 -0.917607,-1.20263 -1.590646,-2.1866 -1.495645,-2.1866 0.095,0 -0.0649,-0.2679 -0.35534,-0.59532 -0.290439,-0.32742 -0.980813,-1.24123 -1.534165,-2.03069 -0.553353,-0.78946 -1.112108,-1.56337 -1.241677,-1.71979 -0.129569,-0.15643 -1.070874,-1.53457 -2.091788,-3.06254 -1.020913,-1.52797 -2.868099,-4.14734 -4.104854,-5.82083 -1.236755,-1.67349 -2.544355,-3.48919 -2.905775,-4.0349 -0.361424,-0.5457 -0.759783,-0.99218 -0.885243,-0.99218 -0.425844,0 -4.263168,2.94485 -4.263168,3.27165 0,0.17869 0.183915,0.55746 0.408702,0.84172 1.174499,1.48525 5.941298,8.35716 5.941298,8.56509 0,0.13311 0.0893,0.28171 0.198437,0.33022 0.604499,0.26866 4.854882,6.57048 4.431588,6.57048 -0.100515,0 -0.498781,-0.17052 -0.885036,-0.37894 -1.157631,-0.62465 -3.757147,-1.76903 -5.184428,-2.28234 -0.736277,-0.26479 -2.529311,-0.97314 -3.984519,-1.57409 -1.455208,-0.60095 -3.360208,-1.36814 -4.233333,-1.70485 -0.873125,-0.33671 -2.758483,-1.10243 -4.189685,-1.70161 -1.431203,-0.59918 -2.887189,-1.08942 -3.235526,-1.08942 -0.659482,0 -4.204777,2.41819 -4.438589,3.02749 -0.136382,0.35541 1.745512,3.15668 9.253079,13.77355 0.823225,1.16417 2.114524,3.00964 2.869555,4.10104 0.75503,1.09141 1.839105,2.64647 2.409057,3.45568 0.569952,0.80921 1.512525,2.14726 2.094608,2.97343 0.582084,0.82617 1.238518,1.50354 1.458741,1.50526 0.220223,0.002 1.053661,-0.43339 1.852083,-0.96691 z m 29.267934,-24.76068 c 0.440148,-0.47295 1.356879,-1.63381 2.037178,-2.57969 0.6803,-0.94589 1.368936,-1.87791 1.530305,-2.07116 0.537737,-0.644 2.614144,-3.87912 2.614684,-4.07378 2.65e-4,-0.10549 0.35446,-0.96456 0.787037,-1.90904 0.992101,-2.16611 1.153684,-3.05734 1.178132,-6.4981 0.01775,-2.5004 -0.05785,-2.96328 -0.756404,-4.63021 -0.426879,-1.01865 -0.932895,-2.04005 -1.124479,-2.26979 -0.191585,-0.22974 -0.348338,-0.55493 -0.348338,-0.72265 0,-0.50981 -3.456093,-4.00437 -5.152699,-5.21004 -4.650909,-3.30511 -8.74977,-4.28799 -12.775948,-3.0636 -3.533055,1.07443 -6.483998,3.46919 -9.35832,7.59451 -2.188249,3.14063 -4.992198,8.0052 -4.992198,8.66095 0,0.22674 0.78599,0.98283 1.746645,1.68019 0.960654,0.69736 2.514771,1.83347 3.453595,2.5247 0.938824,0.69122 1.789941,1.26292 1.891377,1.27045 0.101433,0.008 1.077393,0.66386 2.1688,1.45853 2.071997,1.50867 2.285677,1.65384 7.011458,4.76352 1.600729,1.05332 3.556997,2.4029 4.347265,2.99907 0.790265,0.59617 1.554797,1.08395 1.698958,1.08395 0.144158,0 0.47039,0.18849 0.724953,0.41887 0.457256,0.41381 2.087288,1.38861 2.371191,1.41803 0.08059,0.008 0.506658,-0.37177 0.946808,-0.84471 z m -3.097781,-7.56903 c -0.665877,-0.38456 -1.677908,-1.06984 -2.248958,-1.52285 -0.571047,-0.453 -1.395457,-1.01934 -1.83202,-1.25852 -0.436562,-0.23919 -1.091406,-0.65602 -1.455208,-0.9263 -2.556555,-1.89932 -4.452181,-3.17049 -4.960937,-3.3267 -0.327422,-0.10053 -0.595313,-0.27603 -0.595313,-0.38999 0,-0.17878 -0.852477,-0.79454 -3.041573,-2.19698 -1.707547,-1.09393 -1.98551,-1.35108 -1.98551,-1.83683 0,-0.62205 0.643853,-1.83589 1.584489,-2.9872 0.656058,-0.80299 3.33167,-3.46668 4.011221,-3.99333 0.906695,-0.70271 2.723705,-1.17821 4.502192,-1.17821 1.621443,0 2.166548,0.13435 3.897251,0.96057 1.896335,0.90528 4.167312,2.57962 5.515594,4.06651 0.329891,0.36381 0.97976,1.43537 1.444157,2.38125 0.687935,1.40119 0.858342,2.09736 0.919845,3.75785 0.04201,1.1342 -0.0396,2.10917 -0.184007,2.19842 -0.142722,0.0882 -0.259493,0.39512 -0.259493,0.68202 0,1.19789 -3.211835,6.39179 -3.894521,6.29789 -0.113586,-0.0156 -0.751329,-0.34305 -1.417209,-0.7276 z m -75.733889,6.404 c 1.13712,-0.20186 2.72234,-0.47816 3.52271,-0.61402 3.368377,-0.57176 8.486715,-1.90904 10.186454,-2.66143 0.291042,-0.12882 1.508673,-0.60388 2.705846,-1.05567 1.197173,-0.45179 3.135723,-1.2901 4.307885,-1.86291 1.172165,-0.57281 2.177118,-1.04146 2.233231,-1.04146 0.324419,0 5.396463,-3.17236 8.347829,-5.22123 3.284974,-2.28047 8.539128,-7.1581 11.333678,-10.52148 0.967277,-1.16417 1.878764,-2.25838 2.025523,-2.43159 0.146761,-0.17321 0.564496,-0.74697 0.928298,-1.27501 0.363802,-0.52805 0.929349,-1.29649 1.256771,-1.70765 0.327422,-0.41115 0.595312,-0.82258 0.595312,-0.91429 0,-0.0917 0.461399,-0.90795 1.025332,-1.81388 1.045107,-1.67894 1.189419,-1.94424 2.69494,-4.95446 1.149493,-2.29835 3.118009,-7.30858 3.325701,-8.46451 0.09173,-0.51051 0.248867,-1.04726 0.3492,-1.19278 0.427694,-0.62031 1.116166,-3.6363 1.66093,-7.27604 0.504303,-3.3694 0.403981,-13.70883 -0.16687,-17.19792 -2.874833,-17.57121 -12.074318,-32.26062 -26.603845,-42.48007 -4.676693,-3.289385 -7.080432,-4.459938 -14.167678,-6.899256 -6.659557,-2.292115 -14.589977,-3.203535 -21.507817,-2.471833 -6.12318,0.64765 -9.88031,1.50459 -16.3276,3.724069 -2.88202,0.992131 -9.648,4.205144 -10.1527,4.821292 -0.19973,0.243819 -0.51864,0.443305 -0.70871,0.443305 -0.19007,0 -0.51116,0.165584 -0.71355,0.367963 -0.20238,0.20238 -1.19315,0.91134 -2.20171,1.57546 -5.48665,3.6129 -8.29221,6.00998 -12.43683,10.62608 -2.00334,2.23123 -3.194,3.75481 -5.83212,7.46286 -4.45951,6.26813 -8.44178,15.413 -9.88409,22.69784 -0.17287,0.87313 -0.42343,2.06375 -0.5568,2.64584 -0.13336,0.58208 -0.42135,2.56604 -0.63997,4.40879 -1.54829,13.05098 1.58165,26.58227 8.80299,38.05683 2.98134,4.7373 5.64063,7.78259 10.55851,12.0911 2.2717,1.99022 4.20535,3.3265 8.15457,5.63535 6.78252,3.96529 16.40358,6.98479 24.34166,7.63944 4.3025,0.35483 11.15811,0.2846 13.54292,-0.13873 z m -9.17729,-4.13987 c -0.0728,-0.0685 -1.20386,-0.19193 -2.51354,-0.27433 -7.61596,-0.47917 -14.17988,-2.23257 -21.16667,-5.65422 -3.70775,-1.8158 -9.22786,-5.47968 -11.60183,-7.70052 -2.10022,-1.96474 -5.46345,-5.66191 -6.12525,-6.73345 -0.14552,-0.23561 -0.87243,-1.29874 -1.61536,-2.36251 -1.31981,-1.88981 -4.13419,-7.10051 -4.83165,-8.94559 -2.44501,-6.46813 -3.00698,-8.56579 -3.75676,-14.02292 -0.98295,-7.15422 -0.38959,-15.05174 1.65987,-22.09271 0.42358,-1.4552 0.92375,-3.18161 1.11148,-3.83645 0.18774,-0.65485 0.65691,-1.87877 1.04261,-2.71983 0.3857,-0.84105 0.70127,-1.58335 0.70127,-1.64954 0,-0.21673 2.66697,-5.53287 3.18376,-6.34626 0.27737,-0.43656 0.70314,-1.15094 0.94615,-1.5875 0.24301,-0.43656 0.52646,-0.85328 0.62989,-0.92604 0.10344,-0.0728 0.3433,-0.42995 0.53303,-0.79375 0.44909,-0.86109 3.77912,-5.35965 4.85289,-6.55579 3.01268,-3.35605 8.62429,-8.37011 11.81469,-10.55664 3.44787,-2.36298 12.32582,-6.964653 13.43682,-6.964653 0.26414,0 0.59337,-0.107413 0.73162,-0.238694 0.52927,-0.502608 5.21717,-1.840267 8.58573,-2.44987 0.80036,-0.144841 3.72816,-0.454115 6.50623,-0.687279 5.5632,-0.466918 8.49943,-0.311174 14.218994,0.754208 6.957054,1.295892 15.604468,5.372348 21.475813,10.123858 2.342496,1.89572 7.281467,6.85606 8.468428,8.50507 0.418986,0.58208 0.888838,1.17739 1.04412,1.32291 0.96103,0.90063 6.759326,10.30514 6.759326,10.96325 0,0.10038 0.297656,0.79952 0.661458,1.55365 0.363802,0.75412 0.661458,1.4924 0.661458,1.64061 0,0.1482 0.109593,0.47621 0.243544,0.7289 0.497422,0.93836 1.587595,3.92952 1.758561,4.82505 0.09723,0.50932 0.244631,1.04007 0.327546,1.17943 0.08291,0.13937 0.178147,0.49656 0.211625,0.79375 0.03348,0.2972 0.308149,1.74638 0.610383,3.22041 0.788357,3.84492 1.170469,8.92648 0.982257,13.06266 -0.08939,1.96453 -0.215804,3.86953 -0.280913,4.23333 -0.06511,0.36381 -0.253339,1.43537 -0.418288,2.38125 -1.200425,6.88371 -3.99847,13.65581 -8.41753,20.37292 -2.18866,3.32683 -3.322749,4.78088 -5.732809,7.35021 -0.873125,0.93083 -1.62923,1.80707 -1.680231,1.94721 -0.051,0.14014 -1.360689,1.3399 -2.910417,2.66614 -2.662986,2.27895 -7.838585,5.87601 -10.755185,7.47489 -0.727604,0.39887 -1.441979,0.81418 -1.5875,0.92291 -0.805539,0.60188 -7.579457,3.32604 -11.112499,4.46894 -2.622928,0.84849 -6.879741,1.77496 -9.789581,2.13066 -2.61364,0.31949 -8.6836,0.64569 -8.86354,0.47633 z m 5.55625,-21.48962 c 4.04985,-0.28039 12.535592,-2.59461 15.136049,-4.1279 0.710271,-0.41879 1.337704,-0.76144 1.394299,-0.76144 0.119081,0 4.373292,-2.5317 4.768606,-2.83782 4.955733,-3.83757 9.151709,-8.65907 13.219376,-15.1901 2.597997,-4.17132 4.884547,-10.76168 5.449417,-15.70645 0.456194,-3.99343 0.03643,-7.14969 -1.455833,-10.94664 l -0.662715,-1.68622 0.814837,-0.76118 c 0.448162,-0.41864 0.921308,-0.76117 1.051441,-0.76117 0.415674,0 0.253574,-1.20462 -0.233611,-1.73605 -0.258617,-0.2821 -0.741193,-0.89736 -1.072393,-1.36725 l -0.602182,-0.85434 -1.060248,0.66931 c -1.386041,0.87497 -6.869933,4.93443 -7.451458,5.51595 -0.418716,0.41872 -0.420751,0.5143 -0.02755,1.29505 0.466479,0.92624 1.924539,2.56275 2.283314,2.56275 0.124696,0 0.664758,-0.29766 1.200142,-0.66146 0.535382,-0.3638 1.101595,-0.66146 1.25825,-0.66146 0.537866,0 1.502907,3.93419 1.519968,6.19647 0.02919,3.87013 -0.415904,6.28125 -1.859913,10.07541 -1.678506,4.4103 -3.040766,6.86807 -6.008838,10.84104 -4.672628,6.25464 -8.131121,9.29508 -13.805158,12.13642 -2.523392,1.26363 -8.50625,3.10322 -11.73914,3.60952 -0.80036,0.12535 -1.99099,0.35085 -2.64583,0.50112 -2.66362,0.61124 -9.4993,0.20593 -13.49375,-0.8001 -6.13795,-1.54587 -8.92039,-2.7362 -12.30312,-5.26326 -2.67404,-1.99763 -6.1222,-5.94128 -5.87538,-6.71965 0.0492,-0.1552 0.65184,-0.4714 1.33918,-0.70268 1.85426,-0.62392 1.92506,-0.75988 1.3628,-2.61691 -0.6028,-1.99092 -0.79652,-2.15876 -2.12732,-1.84314 -2.09369,0.49655 -4.79303,1.03145 -6.60553,1.30895 -2.98781,0.45745 -2.85942,0.35696 -2.65341,2.0767 0.34077,2.84456 0.26046,2.74205 2.0697,2.64175 l 1.59667,-0.0885 0.65815,1.19062 c 1.01741,1.84053 3.30251,4.77532 4.8584,6.23972 1.74898,1.64612 5.99037,4.61384 8.05757,5.6379 2.08493,1.03286 5.73815,2.22837 8.96083,2.93242 2.66928,0.58315 8.66893,1.07332 11.1125,0.9079 0.72761,-0.0493 2.33495,-0.15963 3.57188,-0.24527 z m -26.41079,-39.75585 c 1.46987,-0.55824 2.28707,-1.37807 3.12118,-3.1312 1.07323,-2.25571 0.90433,-7.79266 -0.30593,-10.02966 -1.50977,-2.7906 -5.14388,-4.25387 -7.65369,-3.08176 -1.33642,0.62413 -1.74039,0.93972 -2.55661,1.99732 -2.08637,2.70336 -1.2787,9.31276 1.5757,12.89447 1.46083,1.83306 3.37792,2.27807 5.81935,1.35083 z m 43.211827,-12.99657 c 0.582084,-0.27008 1.447046,-0.90002 1.92214,-1.39988 1.647642,-1.73353 2.08638,-6.54201 0.931265,-10.20646 -0.556051,-1.764 -1.97934,-3.30348 -3.866521,-4.18215 -1.792985,-0.83482 -3.091568,-0.81722 -4.710331,0.0638 -2.98526,1.62478 -4.09628,5.58575 -2.733413,9.74505 0.19073,0.58208 0.481314,1.57109 0.645744,2.1978 0.320019,1.21973 1.751521,3.00243 3.048617,3.79655 1.050223,0.64298 3.360359,0.63584 4.762499,-0.0147 z m -91.758157,4.205 c 0.33002,-0.50831 0.70636,-1.05216 0.8363,-1.20855 0.12995,-0.15639 0.4821,-0.81123 0.78256,-1.45521 0.30046,-0.64397 0.7242,-1.46852 0.94165,-1.83232 0.92669,-1.5504 1.91059,-4.01792 2.6375,-6.61458 0.85116,-3.04054 0.70932,-6.21271 -0.37103,-8.29789 -2.63565,-5.08703 -8.31584,-7.27931 -13.1392,-5.07111 -1.64491,0.75307 -2.19108,0.83143 -2.19108,0.31438 0,-0.7968 -1.67807,-3.63439 -2.68982,-4.54844 -1.73891,-1.571 -3.64274,-2.31067 -5.8804,-2.28461 -3.37374,0.0393 -5.66006,1.45939 -8.16414,5.071 -0.45402,0.65484 -0.90506,1.25016 -1.00229,1.32292 -0.17949,0.13431 -0.27678,0.34035 -1.94235,4.11377 -1.11881,2.53468 -2.00868,5.28284 -2.01341,6.21795 -0.003,0.60604 0.35209,0.84324 3.50231,2.33908 1.92815,0.91556 3.74386,1.79317 4.0349,1.95025 1.84243,0.99439 8.50656,4.16436 8.75461,4.16436 0.32521,0 12.93187,5.90444 14.13184,6.61878 0.65708,0.39115 1.14051,0.17296 1.77205,-0.79978 z m -6.54531,-8.74668 c -1.81309,-0.89222 -3.69219,-1.81889 -4.17579,-2.05925 -1.33106,-0.66159 -1.43553,-0.89939 -0.91046,-2.0726 0.93479,-2.08871 2.3393,-4.01498 3.51498,-4.82073 2.71494,-1.86068 6.65814,-0.57069 7.67515,2.51088 0.2263,0.68569 0.22679,1.36405 0.002,2.69544 -0.3375,1.99859 -1.77989,5.17732 -2.40167,5.29279 -0.2242,0.0416 -1.89108,-0.6543 -3.70417,-1.54653 z m -12.95547,-6.15963 c -2.92373,-1.28239 -5.00187,-2.33945 -5.29599,-2.69385 -0.38846,-0.46805 1.36169,-4.05577 2.60185,-5.33368 1.16683,-1.20233 1.97897,-1.45073 3.57629,-1.09385 1.59654,0.35671 2.25854,0.88464 2.86475,2.2846 0.66756,1.5416 0.54527,2.95846 -0.46118,5.34337 -1.06905,2.53325 -0.99339,2.49886 -3.28572,1.49341 z m 31.07035,-6.98612 c 0.53735,-0.69123 1.60202,-1.91162 2.36594,-2.71198 0.76392,-0.80037 2.76602,-3.06256 4.4491,-5.02709 1.68309,-1.96453 3.54793,-4.07928 4.1441,-4.69945 1.92733,-2.00491 1.92963,-1.97049 -0.27028,-4.04721 -1.06577,-1.006087 -2.11636,-1.828865 -2.33464,-1.828391 -0.21829,5.29e-4 -0.64412,0.355023 -0.94631,0.787881 -0.30219,0.432859 -1.0763,1.35353 -1.72025,2.04595 -0.64394,0.69241 -2.3957,2.64956 -3.89279,4.34922 -1.49709,1.69966 -2.8661,3.13886 -3.04226,3.19822 -0.28725,0.0968 -1.62709,-1.02198 -5.82735,-4.86594 l -1.33665,-1.22326 1.66798,-2.08403 c 0.91738,-1.146215 2.29767,-2.798403 3.0673,-3.671528 2.40361,-2.726849 3.29908,-3.874461 3.29908,-4.228031 0,-0.515141 -3.38591,-3.577177 -3.95553,-3.577177 -0.28641,0 -1.07729,0.699894 -1.8686,1.653645 -3.28355,3.957556 -6.59219,7.606771 -6.89685,7.606771 -0.18197,0 -3.43458,-2.740864 -5.07225,-4.274217 -0.40018,-0.374689 -0.72761,-0.875204 -0.72761,-1.112255 0,-0.384339 2.01893,-2.86118 4.77524,-5.858319 0.53531,-0.582084 1.58487,-1.724681 2.33236,-2.539106 0.74749,-0.814427 1.35907,-1.654352 1.35907,-1.8665 0,-0.333516 -2.94188,-3.188923 -3.83148,-3.718854 -0.41034,-0.244441 -4.19413,3.812715 -11.96736,12.83195 -0.90399,1.048901 -1.64813,2.046137 -1.65364,2.216078 -0.006,0.169942 0.78675,1.00338 1.76057,1.852084 0.97383,0.848704 2.78953,2.510612 4.0349,3.69313 1.24537,1.182519 3.69305,3.369489 5.4393,4.859919 1.74625,1.49044 4.29082,3.73762 5.6546,4.99372 3.28759,3.02804 3.37583,3.10599 5.48609,4.84644 1.00314,0.82736 2.29454,1.98822 2.86978,2.57969 0.57524,0.59147 1.18439,1.07541 1.35367,1.07541 0.16928,0 0.74743,-0.56555 1.28477,-1.25677 z m 24.21291,-22.149709 c 1.37348,-0.648499 2.58733,-1.34008 2.69745,-1.536848 0.20059,-0.358444 -1.71169,-4.695163 -2.88475,-6.542093 -0.32349,-0.509323 -0.58861,-1.01864 -0.58916,-1.131816 -5.2e-4,-0.113175 -0.4177,-1.048972 -0.92703,-2.079545 -0.98302,-1.989061 -1.20962,-3.750075 -0.60675,-4.715409 0.30804,-0.493261 0.38489,-0.477518 2.18281,0.447185 1.02494,0.527145 2.10165,1.154345 2.39269,1.393783 0.57105,0.469788 3.1199,1.971545 6.08542,3.585471 1.01865,0.554377 2.65697,1.522333 3.64073,2.151018 0.98375,0.628684 2.10126,1.143063 2.48336,1.143063 0.38209,0 1.70565,-0.498506 2.94123,-1.107794 2.16092,-1.06558 2.26047,-1.088731 2.61232,-0.607547 0.35641,0.487418 0.44378,0.481229 3.40605,-0.241258 3.45047,-0.841555 3.32877,-0.680175 2.6147,-3.467359 -0.22369,-0.873125 -0.50958,-2.06375 -0.63531,-2.645833 -0.53286,-2.467025 -1.33265,-5.887185 -1.57773,-6.746875 -0.1452,-0.509323 -0.57096,-2.29526 -0.94614,-3.96875 -1.07569,-4.798163 -2.84419,-12.38129 -4.14964,-17.793228 -0.36208,-1.501063 -0.47147,-1.517941 -4.03957,-0.623308 -2.90384,0.728083 -2.87131,0.630446 -1.74262,5.229323 0.44077,1.795936 1.10378,4.634557 1.47335,6.308047 0.36957,1.673489 0.79735,3.518958 0.95064,4.101041 0.3273,1.242891 0.76165,3.159147 0.93297,4.116113 0.0666,0.372091 0.3595,1.622247 0.65085,2.778125 0.8108,3.21669 1.61933,6.757092 2.00565,8.782324 0.26401,1.384089 -0.16598,1.22505 -5.17278,-1.913194 -1.68674,-1.057248 -3.84072,-2.336466 -4.7866,-2.842707 -7.15679,-3.83033 -8.79564,-4.863801 -8.63088,-5.442698 0.0706,-0.247984 0.31225,-1.165254 0.53705,-2.038379 0.22479,-0.873125 0.71542,-2.718594 1.09028,-4.101042 0.93678,-3.454741 3.07682,-11.642092 3.23312,-12.36927 0.18318,-0.852289 -0.26216,-0.769133 -2.98846,0.558009 -1.30308,0.634325 -2.82665,1.367454 -3.38572,1.629174 -0.55907,0.261721 -1.05145,0.60593 -1.09418,0.764911 -0.55361,2.05968 -0.98627,3.780316 -1.32011,5.249989 -1.26064,5.549693 -1.20628,5.329084 -2.54248,10.318749 -0.14613,0.545704 -0.40974,0.990084 -0.5858,0.987513 -0.17606,-0.0026 -0.60539,-0.627648 -0.95405,-1.389063 -1.92691,-4.207957 -4.78044,-9.946198 -5.01958,-10.093988 -0.45477,-0.281067 -5.59127,2.426861 -5.59127,2.94768 0,0.248028 0.58452,1.645928 1.29895,3.106441 2.01349,4.116221 5.70599,11.798514 6.23607,12.97423 0.26244,0.582083 1.10216,2.36802 1.86604,3.968749 0.76389,1.60073 2.00896,4.220104 2.76684,5.820834 0.75787,1.600729 1.73203,3.654557 2.16479,4.564062 0.43277,0.909505 0.92706,1.653109 1.09843,1.652452 0.17137,-5.29e-4 1.43534,-0.531783 2.80882,-1.180282 z m 80.886557,-5.140616 c 3.235028,-0.598961 7.237632,-3.247268 9.602879,-6.353704 1.150562,-1.511107 2.658388,-4.402767 3.599688,-6.90337 0.653947,-1.737231 0.755227,-2.400668 0.813208,-5.326859 0.08197,-4.137025 -0.274413,-5.525719 -2.231684,-8.696057 -2.285145,-3.701413 -6.558004,-6.790775 -12.088722,-8.740381 -4.165697,-1.468429 -7.387626,-2.392756 -8.069791,-2.315114 -0.585978,0.0667 -0.831469,0.497977 -2.151314,3.779453 -0.81942,2.037292 -1.613553,4.001823 -1.764739,4.365625 -0.151185,0.363802 -0.590981,1.494896 -0.977323,2.513542 -0.686641,1.810432 -2.501463,6.357318 -3.168134,7.937499 -0.184182,0.436563 -0.666528,1.627188 -1.07188,2.645834 -0.405349,1.018645 -1.028808,2.506927 -1.385461,3.307291 -1.392505,3.124912 -3.006588,7.44383 -2.926657,7.831074 0.09734,0.47162 0.700656,0.835049 3.25905,1.963227 1.018646,0.449193 2.447396,1.099179 3.175,1.444413 2.563953,1.216541 4.815493,1.917089 8.598958,2.675488 1.78404,0.357613 4.434176,0.307646 6.786922,-0.127961 z m -8.506714,-6.214784 c -2.554438,-0.713513 -5.159374,-1.924746 -5.159374,-2.398985 0,-0.329343 0.533479,-1.791428 1.06672,-2.923514 0.488133,-1.036322 2.672204,-6.374333 3.193537,-7.805208 0.291608,-0.800364 0.639429,-1.656281 0.772932,-1.902036 0.30525,-0.561904 3.03688,-7.525369 3.301712,-8.416713 0.346794,-1.167204 0.660609,-1.369484 1.820576,-1.173509 0.587931,0.09933 1.252136,0.277667 1.476013,0.396303 0.22388,0.118637 1.300019,0.631492 2.391426,1.139677 2.639655,1.229087 5.545055,4.029149 6.314431,6.085493 1.222592,3.267668 0.841714,6.635795 -1.172498,10.36852 -2.250236,4.170122 -3.955706,5.747787 -7.285334,6.739393 -2.228064,0.663546 -4.059615,0.633724 -6.720141,-0.109421 z m -15.916266,0.167605 c 0.159732,-0.259273 0.534707,-19.886275 0.55477,-29.038019 l 0.01566,-7.14375 -2.887795,-0.07554 c -1.588286,-0.04155 -2.985344,0.02201 -3.104573,0.14124 -0.119229,0.119229 -0.291695,5.27291 -0.383254,11.452622 -0.09156,6.179714 -0.213781,11.286682 -0.271598,11.34882 -0.139948,0.150405 -0.755927,-0.68996 -1.343403,-1.832769 -0.261824,-0.509323 -1.014732,-1.759479 -1.673132,-2.778125 -0.658392,-1.018646 -1.369192,-2.209271 -1.579542,-2.645833 -0.21035,-0.436563 -0.77299,-1.421141 -1.25031,-2.187951 -0.47731,-0.76681 -0.86785,-1.522346 -0.86785,-1.678969 0,-0.271211 -0.77908,-1.806956 -1.05833,-2.086205 -0.0728,-0.07276 -0.47965,-0.787135 -0.9042,-1.5875 -0.42455,-0.800364 -1.22823,-2.148236 -1.78594,-2.995271 -0.55772,-0.847037 -1.01403,-1.641573 -1.01403,-1.765638 0,-0.124066 -0.29928,-0.581253 -0.66507,-1.015974 -0.3658,-0.434718 -0.84364,-1.217761 -1.06189,-1.74009 -0.31506,-0.754047 -0.54597,-0.952672 -1.12086,-0.964153 -0.39823,-0.008 -1.75987,-0.03772 -3.02588,-0.06614 -1.2662,-0.02843 -2.41256,0.06735 -2.54794,0.212897 -0.37143,0.399288 -1.07004,34.099834 -0.7346,35.436329 0.17003,0.677466 0.17827,0.679294 3.06025,0.679294 1.58937,0 2.95085,-0.09884 3.02551,-0.219636 0.0746,-0.120798 0.21971,-5.364247 0.32235,-11.652106 0.10264,-6.28786 0.28368,-11.492458 0.4023,-11.565774 0.11863,-0.07332 0.48367,0.43679 0.81119,1.133571 0.32752,0.696777 1.58071,2.913332 2.78486,4.925676 1.20415,2.012341 2.18937,3.720576 2.18937,3.796075 0,0.0755 0.23812,0.439999 0.52916,0.809998 0.29104,0.369998 0.5315,0.865028 0.53435,1.100066 0.003,0.235037 0.44933,1.16681 0.99219,2.070608 0.54285,0.903795 1.93101,3.225514 3.0848,5.159375 2.925289,4.903051 2.655202,4.670538 5.546227,4.774675 1.325576,0.04775 2.611472,0.111525 2.857545,0.141727 0.246073,0.0302 0.50242,-0.03439 0.569661,-0.143526 z"
         id="path26728" /><path
         style="fill:#332a12;stroke-width:0.264583"
         d="m -112.53994,252.01822 c -0.35927,-0.98226 -1.21317,-3.39328 -1.89757,-5.35781 -0.6844,-1.96453 -1.34342,-3.81 -1.4645,-4.10104 -0.12108,-0.29104 -0.27948,-0.76729 -0.35201,-1.05833 -0.16969,-0.68098 -2.97219,-8.72195 -3.14663,-9.02839 -0.11212,-0.19695 -0.3043,-0.84309 -0.61987,-2.08411 -0.037,-0.14552 -0.38793,-1.09802 -0.77984,-2.11667 -1.13041,-2.93815 -1.74044,-4.97853 -1.59882,-5.34758 0.0828,-0.21564 0.64442,-0.34676 1.5282,-0.35673 0.76855,-0.009 1.96171,-0.10868 2.65146,-0.22223 1.59753,-0.263 1.69034,-0.15065 2.81936,3.413 0.48408,1.52797 1.11466,3.43297 1.40128,4.23333 0.49613,1.38542 0.63206,1.82058 1.23965,3.96875 0.31093,1.09933 1.83654,5.72639 2.13731,6.48229 0.1158,0.29104 0.36687,0.88636 0.55793,1.32292 l 0.34738,0.79375 0.18153,-1.19063 c 0.0998,-0.65484 0.49866,-2.91703 0.88626,-5.02708 0.3876,-2.11005 0.82508,-4.4913 0.97217,-5.29167 0.1471,-0.80036 0.4484,-2.5863 0.66957,-3.96874 0.22116,-1.38245 0.50485,-3.15429 0.63043,-3.93743 0.12556,-0.78313 0.32574,-1.51275 0.44484,-1.62138 0.37159,-0.33891 4.3319,-0.80947 4.76637,-0.56633 0.23069,0.1291 1.195387,2.6237 2.225995,5.75618 2.94001,8.93602 4.452432,13.40521 4.579445,13.53222 0.337153,0.33715 0.637894,-0.38621 0.931619,-2.2408 0.179345,-1.13241 0.491262,-3.01142 0.693147,-4.17559 0.201883,-1.16417 0.78589,-4.57455 1.297787,-7.57864 0.5119,-3.00408 1.000548,-5.64392 1.085887,-5.86631 0.110559,-0.28811 0.738759,-0.46002 2.185305,-0.59801 2.525059,-0.24087 3.437337,-0.24846 3.655401,-0.0304 0.09353,0.0935 -0.389578,3.06017 -1.073568,6.59253 -1.27158,6.56688 -1.856277,9.63109 -3.34595,17.53499 -0.466257,2.47385 -1.047377,5.33135 -1.291378,6.35 l -0.443643,1.85208 -1.307235,0.17526 c -2.162172,0.28988 -4.038234,0.24733 -4.250666,-0.0964 -0.108095,-0.1749 -1.306176,-3.65748 -2.662398,-7.73906 -1.356218,-4.08158 -2.576628,-7.65919 -2.712008,-7.95023 -0.13538,-0.29104 -0.39699,-0.97565 -0.58137,-1.52135 -0.18437,-0.5457 -0.41667,-0.99219 -0.51621,-0.99219 -0.0996,0 -0.32099,0.98227 -0.4921,2.18281 -0.17111,1.20055 -0.43378,2.65255 -0.58372,3.22668 -0.14994,0.57413 -0.37006,1.58616 -0.48916,2.24896 -0.46783,2.6035 -1.10455,6.25899 -1.1777,6.76134 -0.19675,1.35117 -0.75526,4.02412 -0.94565,4.52569 -0.24262,0.6392 -1.33093,0.89082 -3.8726,0.89536 l -1.63051,0.003 -0.65322,-1.78594 z m -20.55971,-0.64527 c -0.94589,-0.26683 -2.79136,-0.77915 -4.10104,-1.13849 -4.35926,-1.19605 -6.87499,-1.90477 -7.27604,-2.04979 -0.21829,-0.0789 -1.23032,-0.37757 -2.24896,-0.66364 -1.65879,-0.46584 -1.86097,-0.59464 -1.93721,-1.23406 -0.0468,-0.39266 0.22859,-1.74919 0.612,-3.01451 0.38342,-1.26533 1.15225,-3.78887 1.70851,-5.60788 1.16172,-3.79887 3.97755,-13.63261 4.12902,-14.41979 0.15705,-0.81616 1.60908,-5.72781 1.94387,-6.57534 0.22442,-0.56814 0.41149,-0.70815 0.75738,-0.56686 0.25264,0.1032 1.17372,0.35635 2.04684,0.56255 0.87313,0.2062 2.48047,0.65784 3.57188,1.00364 2.07694,0.65806 4.16618,1.28047 5.95312,1.7735 0.58209,0.1606 1.35599,0.38345 1.71979,0.49522 0.36381,0.11176 1.19724,0.35678 1.85209,0.54448 0.65484,0.1877 1.29491,0.43081 1.42237,0.54024 0.31233,0.26816 -0.57671,3.82167 -1.12221,4.48548 -0.36154,0.43995 -0.56262,0.48378 -1.2262,0.26727 -2.78258,-0.90787 -10.46948,-2.99682 -10.58876,-2.87754 -0.23808,0.23808 -1.71437,5.5927 -1.71437,6.21816 0,0.31914 0.11922,0.65394 0.26492,0.74399 0.29894,0.18475 5.87499,1.8354 8.41304,2.49047 0.91658,0.23656 1.76267,0.58571 1.8802,0.77587 0.24005,0.38841 -0.74657,4.09332 -1.21473,4.56148 -0.22045,0.22045 -0.76721,0.19333 -2.10855,-0.10457 -2.02707,-0.45019 -5.56408,-1.46132 -6.18672,-1.76861 -0.22388,-0.11048 -0.90565,-0.28512 -1.51505,-0.38808 -1.07115,-0.18097 -1.12044,-0.15786 -1.48181,0.69489 -0.48951,1.15511 -1.36827,3.98218 -1.75156,5.63495 -0.37741,1.62738 -0.26824,1.72806 2.7254,2.51368 2.06272,0.54133 3.44546,0.92918 7.32486,2.05462 1.5533,0.45062 1.71303,0.56148 1.64997,1.14513 -0.12947,1.19823 -1.1483,4.17213 -1.46658,4.28085 -0.17362,0.0593 -1.08959,-0.11048 -2.03547,-0.37731 z m 60.416038,-5.03729 c -0.450596,-0.61115 -0.883362,-1.68876 -6.82938,-17.00546 -1.129839,-2.91041 -2.565013,-6.60135 -3.189274,-8.20208 -1.596326,-4.09329 -1.579501,-4.00694 -0.867317,-4.45092 0.334658,-0.20863 1.412602,-0.66084 2.395431,-1.00491 2.17442,-0.76123 2.495754,-0.62232 3.186697,1.37759 0.272185,0.78782 1.629789,4.28991 3.016896,7.78241 1.387107,3.4925 2.867631,7.3025 3.290054,8.46666 0.42242,1.16417 0.881075,2.35479 1.01923,2.64584 0.138155,0.29104 0.737071,1.77932 1.330923,3.30729 0.593852,1.52797 1.260144,3.16953 1.480653,3.64791 0.697558,1.51332 0.454761,1.89339 -1.749956,2.73931 -2.775948,1.06509 -2.80693,1.07209 -3.083957,0.69636 z m -87.403538,-4.13232 c -3.30974,-1.9523 -3.23066,-1.86295 -3.0806,-3.48043 0.0743,-0.80036 0.62119,-2.88396 1.21544,-4.63021 0.59424,-1.74625 1.14981,-3.88937 1.23461,-4.7625 0.13429,-1.3827 0.0732,-1.70696 -0.47381,-2.51354 -0.34539,-0.50932 -1.31356,-1.38396 -2.15149,-1.94363 -1.22992,-0.8215 -1.5973,-0.95635 -1.90646,-0.69976 -0.37508,0.31128 -1.09049,1.4459 -4.55696,7.22716 -0.94449,1.57519 -1.86474,2.92058 -2.04501,2.98975 -0.18027,0.0692 -1.30559,-0.49661 -2.50072,-1.25731 -2.45514,-1.56269 -2.50257,-1.72446 -1.10746,-3.77714 0.40516,-0.59612 1.19365,-1.9173 1.7522,-2.93594 0.55856,-1.01865 1.63071,-2.80459 2.38255,-3.96875 0.75185,-1.16417 2.65335,-4.20026 4.22556,-6.74688 4.08204,-6.61194 5.74143,-9.21164 6.3834,-10.00061 l 0.56187,-0.69053 1.81938,0.76434 c 1.00066,0.42039 2.26349,1.03996 2.8063,1.37683 0.54282,0.33686 1.05159,0.61247 1.1306,0.61247 0.35774,0 4.2914,2.78038 5.31825,3.75904 0.62839,0.59889 1.58736,1.93287 2.13106,2.96441 1.33781,2.5382 1.36203,4.45717 0.0901,7.13589 -1.39144,2.93033 -3.52267,4.64531 -6.60117,5.31189 l -1.44219,0.31228 -0.0384,2.36293 c -0.031,1.90767 -0.20413,2.84722 -0.89875,4.87648 -1.37348,4.01244 -1.91891,5.86948 -2.09728,7.14073 -0.20178,1.43799 -0.53442,1.52661 -2.15102,0.57303 z m 5.06718,-20.42048 c 1.22971,-0.34156 2.7831,-2.03745 3.01925,-3.2962 0.26866,-1.43208 -0.47786,-3.09866 -1.95569,-4.366 -1.46757,-1.25855 -2.76461,-1.92172 -3.53426,-1.80704 -0.52055,0.0776 -2.79666,3.33847 -4.2965,6.15547 l -0.5094,0.95674 0.62615,0.45427 c 0.94827,0.68797 3.04012,1.84146 3.60013,1.9852 0.87678,0.22504 2.05827,0.19311 3.05032,-0.0824 z m 97.194272,16.48999 c -0.582083,-0.82617 -1.524656,-2.16422 -2.094608,-2.97343 -0.569952,-0.80921 -1.654027,-2.36427 -2.409057,-3.45568 -0.755031,-1.0914 -2.04633,-2.93687 -2.869555,-4.10104 -7.507567,-10.61687 -9.389461,-13.41814 -9.253079,-13.77355 0.233812,-0.6093 3.779107,-3.02749 4.438589,-3.02749 0.348337,0 1.804323,0.49024 3.235526,1.08942 1.431202,0.59918 3.31656,1.3649 4.189685,1.70161 0.873125,0.33671 2.778125,1.1039 4.233333,1.70485 1.455208,0.60095 3.248242,1.3093 3.984519,1.57409 1.427281,0.51331 4.026797,1.65769 5.184428,2.28234 0.386255,0.20842 0.784521,0.37894 0.885036,0.37894 0.423294,0 -3.827089,-6.30182 -4.431588,-6.57048 -0.10914,-0.0485 -0.198437,-0.19711 -0.198437,-0.33022 0,-0.20793 -4.766799,-7.07984 -5.941298,-8.56509 -0.224787,-0.28426 -0.408702,-0.66303 -0.408702,-0.84172 0,-0.3268 3.837324,-3.27165 4.263168,-3.27165 0.12546,0 0.523819,0.44648 0.885243,0.99218 0.36142,0.54571 1.66902,2.36141 2.905775,4.0349 1.236755,1.67349 3.083941,4.29286 4.104854,5.82083 1.020914,1.52797 1.962219,2.90611 2.091788,3.06254 0.129569,0.15642 0.688324,0.93033 1.241677,1.71979 0.553352,0.78946 1.243726,1.70327 1.534165,2.03069 0.290438,0.32742 0.450342,0.59532 0.35534,0.59532 -0.095,0 0.578038,0.98397 1.495645,2.1866 2.877351,3.77111 3.611589,4.91475 3.440914,5.35952 -0.08889,0.23164 -1.026858,1.00503 -2.084377,1.71863 -1.699337,1.1467 -2.016334,1.27063 -2.72806,1.06651 -0.91635,-0.26281 -7.902993,-3.15323 -10.097799,-4.17754 -0.800364,-0.37352 -1.693333,-0.76678 -1.984375,-0.8739 -0.723191,-0.26617 -5.430718,-2.11034 -6.085416,-2.38395 -0.291042,-0.12163 -1.088181,-0.46577 -1.771422,-0.76476 -2.153608,-0.94242 -2.321587,-0.65816 -0.770578,1.30401 0.566433,0.71659 1.580591,2.11207 2.253691,3.10107 0.673098,0.989 1.874399,2.69115 2.669559,3.78255 0.79516,1.09141 1.988743,2.75829 2.652411,3.70417 0.663664,0.94589 1.622091,2.27511 2.129832,2.95383 l 0.923168,1.23404 -0.603747,0.64018 c -0.82159,0.87118 -3.414067,2.58101 -3.907507,2.57715 -0.220223,-0.002 -0.876657,-0.67909 -1.458741,-1.50526 z m 30.604509,-23.8848 c -0.4845,-0.27059 -1.089186,-0.68048 -1.34375,-0.91085 -0.254563,-0.23038 -0.580795,-0.41887 -0.724953,-0.41887 -0.144161,0 -0.908693,-0.48778 -1.698958,-1.08395 -0.790268,-0.59617 -2.746536,-1.94575 -4.347265,-2.99907 -4.725781,-3.10968 -4.939461,-3.25485 -7.011458,-4.76352 -1.091407,-0.79467 -2.067367,-1.45101 -2.1688,-1.45853 -0.101436,-0.008 -0.952553,-0.57923 -1.891377,-1.27045 -0.938824,-0.69123 -2.492941,-1.82734 -3.453595,-2.5247 -0.960655,-0.69736 -1.746645,-1.45345 -1.746645,-1.68019 0,-0.65575 2.803949,-5.52032 4.992198,-8.66095 2.874322,-4.12532 5.825265,-6.52008 9.35832,-7.59451 4.026178,-1.22439 8.125039,-0.24151 12.775948,3.0636 1.696606,1.20567 5.152699,4.70023 5.152699,5.21004 0,0.16772 0.156753,0.49291 0.348338,0.72265 0.191584,0.22974 0.6976,1.25114 1.124479,2.26979 0.69855,1.66693 0.774168,2.12981 0.756404,4.63021 -0.02445,3.44076 -0.186031,4.33199 -1.178132,6.4981 -0.432577,0.94448 -0.786746,1.80355 -0.787037,1.90904 -5.29e-4,0.19466 -2.076947,3.42978 -2.614684,4.07378 -0.161369,0.19325 -0.850005,1.12527 -1.530305,2.07116 -1.292256,1.79675 -2.733217,3.45039 -2.983986,3.4244 -0.08059,-0.008 -0.542944,-0.23658 -1.027441,-0.50718 z m 1.317958,-8.08193 c 0.98442,-1.12119 2.87024,-4.66579 2.87024,-5.39492 0,-0.2869 0.116771,-0.59381 0.259493,-0.68202 0.144412,-0.0893 0.226017,-1.06422 0.184007,-2.19842 -0.0615,-1.66049 -0.23191,-2.35666 -0.919845,-3.75785 -0.464397,-0.94588 -1.114266,-2.01744 -1.444157,-2.38125 -1.348282,-1.48689 -3.619259,-3.16123 -5.515594,-4.06651 -1.730703,-0.82622 -2.275808,-0.96057 -3.897251,-0.96057 -1.778487,0 -3.595497,0.4755 -4.502192,1.17821 -0.679551,0.52665 -3.355163,3.19034 -4.011221,3.99333 -0.940636,1.15131 -1.584489,2.36515 -1.584489,2.9872 0,0.48575 0.277963,0.7429 1.98551,1.83683 2.189096,1.40244 3.041573,2.0182 3.041573,2.19698 0,0.11396 0.267891,0.28946 0.595313,0.38999 0.508756,0.15621 2.404382,1.42738 4.960937,3.3267 0.363802,0.27028 1.018646,0.68711 1.455208,0.9263 0.436563,0.23918 1.260973,0.80552 1.83202,1.25852 1.036836,0.82251 3.275542,2.19672 3.666167,2.25045 0.113586,0.0156 0.574514,-0.39072 1.024281,-0.90297 z m -91.718299,6.7181 c -11.44269,-0.94368 -24.51767,-6.28484 -32.49623,-13.27479 -4.91788,-4.30851 -7.57717,-7.3538 -10.55851,-12.0911 -4.77605,-7.58905 -7.566,-15.44922 -8.81574,-24.8367 -0.64989,-4.88169 -0.33802,-13.30484 0.65272,-17.62892 0.13337,-0.58209 0.38393,-1.77271 0.5568,-2.64584 2.01992,-10.20224 7.8612,-21.41214 15.71621,-30.1607 4.14462,-4.6161 6.95018,-7.01318 12.43683,-10.62608 1.00856,-0.66412 1.99933,-1.37308 2.20171,-1.57546 0.20239,-0.202379 0.52348,-0.367963 0.71355,-0.367963 0.19007,0 0.50898,-0.199486 0.70871,-0.443305 0.5047,-0.616148 7.27068,-3.829161 10.1527,-4.821292 10.31309,-3.550275 18.42621,-4.626266 27.170273,-3.603419 5.269857,0.616447 8.74709,1.522659 15.030769,3.917206 6.196137,2.361187 12.782952,6.860063 18.660363,12.745263 9.415303,9.42778 15.526347,21.50419 17.745535,35.06804 0.570851,3.48909 0.671173,13.82852 0.16687,17.19792 -0.544764,3.63974 -1.233236,6.65573 -1.66093,7.27604 -0.100333,0.14552 -0.257474,0.68227 -0.3492,1.19278 -0.207692,1.15593 -2.176208,6.16616 -3.325701,8.46451 -1.505521,3.01022 -1.649833,3.27552 -2.69494,4.95446 -0.563933,0.90593 -1.025332,1.72218 -1.025332,1.81388 0,0.0917 -0.26789,0.50314 -0.595312,0.91429 -0.327422,0.41116 -0.892969,1.1796 -1.256771,1.70765 -0.363802,0.52804 -0.781537,1.1018 -0.928298,1.27501 -0.146759,0.17321 -1.058246,1.26742 -2.025523,2.43159 -2.79455,3.36338 -8.048704,8.24101 -11.333678,10.52148 -2.951366,2.04887 -8.02341,5.22123 -8.347829,5.22123 -0.05611,0 -1.061066,0.46865 -2.233231,1.04146 -1.172162,0.57281 -3.110712,1.41112 -4.307885,1.86291 -1.197173,0.45179 -2.414804,0.92685 -2.705846,1.05567 -1.699739,0.75239 -6.818077,2.08967 -10.186454,2.66143 -0.80037,0.13586 -2.38559,0.41216 -3.52271,0.61402 -2.38481,0.42333 -9.24042,0.49356 -13.54292,0.13873 z m 13.22917,-4.75493 c 2.90984,-0.3557 7.166653,-1.28217 9.789581,-2.13066 3.533042,-1.1429 10.30696,-3.86706 11.112499,-4.46894 0.145521,-0.10873 0.859896,-0.52404 1.5875,-0.92291 2.9166,-1.59888 8.092199,-5.19594 10.755185,-7.47489 1.549728,-1.32624 2.859416,-2.526 2.910417,-2.66614 0.051,-0.14014 0.807106,-1.01638 1.680231,-1.94721 2.41006,-2.56933 3.544149,-4.02338 5.732809,-7.35021 4.41906,-6.71711 7.217105,-13.48921 8.41753,-20.37292 0.164949,-0.94588 0.353179,-2.01744 0.418288,-2.38125 0.06511,-0.3638 0.191521,-2.2688 0.280913,-4.23333 0.188212,-4.13618 -0.1939,-9.21774 -0.982257,-13.06266 -0.302234,-1.47403 -0.576906,-2.92321 -0.610383,-3.22041 -0.03348,-0.29719 -0.12871,-0.65438 -0.211625,-0.79375 -0.08291,-0.13936 -0.230312,-0.67011 -0.327546,-1.17943 -0.170966,-0.89553 -1.261139,-3.88669 -1.758561,-4.82505 -0.133951,-0.25269 -0.243544,-0.5807 -0.243544,-0.7289 0,-0.14821 -0.297656,-0.88649 -0.661458,-1.64061 -0.363802,-0.75413 -0.661458,-1.45327 -0.661458,-1.55365 0,-0.65811 -5.798296,-10.06262 -6.759326,-10.96325 -0.155282,-0.14552 -0.625134,-0.74083 -1.04412,-1.32291 -1.186961,-1.64901 -6.125932,-6.60935 -8.468428,-8.50507 -5.871345,-4.75151 -14.518759,-8.827966 -21.475813,-10.123858 -5.719564,-1.065382 -8.655794,-1.221126 -14.218994,-0.754208 -2.77807,0.233164 -5.70587,0.542438 -6.50623,0.687279 -3.36856,0.609603 -8.05646,1.947262 -8.58573,2.44987 -0.13825,0.131281 -0.46748,0.238694 -0.73162,0.238694 -1.111,0 -9.98895,4.601673 -13.43682,6.964653 -3.1904,2.18653 -8.80201,7.20059 -11.81469,10.55664 -1.07377,1.19614 -4.4038,5.6947 -4.85289,6.55579 -0.18973,0.3638 -0.42959,0.72099 -0.53303,0.79375 -0.10343,0.0728 -0.38688,0.48948 -0.62989,0.92604 -0.24301,0.43656 -0.66878,1.15094 -0.94615,1.5875 -0.51679,0.81339 -3.18376,6.12953 -3.18376,6.34626 0,0.0662 -0.31557,0.80849 -0.70127,1.64954 -0.3857,0.84106 -0.85487,2.06498 -1.04261,2.71983 -0.18773,0.65484 -0.6879,2.38125 -1.11148,3.83645 -2.04946,7.04097 -2.64282,14.93849 -1.65987,22.09271 0.74978,5.45713 1.31175,7.55479 3.75676,14.02292 0.69746,1.84508 3.51184,7.05578 4.83165,8.94559 0.74293,1.06377 1.46984,2.1269 1.61536,2.36251 0.6618,1.07154 4.02503,4.76871 6.12525,6.73345 2.37397,2.22084 7.89408,5.88472 11.60183,7.70052 6.98679,3.42165 13.55071,5.17505 21.16667,5.65422 1.30968,0.0824 2.44078,0.20585 2.51354,0.27433 0.17994,0.16936 6.2499,-0.15684 8.86354,-0.47633 z m -11.77396,-20.88818 c -5.29693,-0.311 -11.23424,-1.76619 -15.17854,-3.72016 -2.0672,-1.02406 -6.30859,-3.99178 -8.05757,-5.6379 -1.55589,-1.4644 -3.84099,-4.39919 -4.8584,-6.23972 l -0.65815,-1.19062 -1.59667,0.0885 c -1.80924,0.1003 -1.72893,0.20281 -2.0697,-2.64175 -0.20601,-1.71974 -0.3344,-1.61925 2.65341,-2.0767 1.8125,-0.2775 4.51184,-0.8124 6.60553,-1.30895 1.3308,-0.31562 1.52452,-0.14778 2.12732,1.84314 0.56226,1.85703 0.49146,1.99299 -1.3628,2.61691 -0.68734,0.23128 -1.28997,0.54748 -1.33918,0.70268 -0.24682,0.77837 3.20134,4.72202 5.87538,6.71965 3.38273,2.52706 6.16517,3.71739 12.30312,5.26326 3.99445,1.00603 10.83013,1.41134 13.49375,0.8001 0.65484,-0.15027 1.84547,-0.37577 2.64583,-0.50112 3.23289,-0.5063 9.21575,-2.34589 11.739142,-3.60952 5.674037,-2.84134 9.13253,-5.88178 13.805158,-12.13642 2.968072,-3.97297 4.330332,-6.43074 6.008838,-10.84104 1.444009,-3.79416 1.889099,-6.20528 1.859913,-10.07541 -0.01706,-2.26228 -0.982102,-6.19647 -1.519968,-6.19647 -0.156655,0 -0.722868,0.29766 -1.25825,0.66146 -0.535384,0.3638 -1.075446,0.66146 -1.200142,0.66146 -0.358775,0 -1.816835,-1.63651 -2.283314,-2.56275 -0.393203,-0.78075 -0.391168,-0.87633 0.02755,-1.29505 0.581525,-0.58152 6.065417,-4.64098 7.451458,-5.51595 l 1.060248,-0.66931 0.602182,0.85434 c 0.3312,0.46989 0.813776,1.08515 1.072393,1.36725 0.487185,0.53143 0.649285,1.73605 0.233611,1.73605 -0.130133,0 -0.603279,0.34253 -1.051441,0.76117 l -0.814837,0.76118 0.662715,1.68622 c 2.050767,5.21801 2.151285,10.02196 0.344966,16.48631 -2.57426,9.2126 -9.354327,19.00426 -17.557926,25.35688 -0.395314,0.30612 -4.649525,2.83782 -4.768606,2.83782 -0.0566,0 -0.684028,0.34265 -1.394299,0.76144 -2.600457,1.53329 -11.086201,3.84751 -15.136051,4.1279 -1.23693,0.0856 -2.84427,0.19601 -3.57188,0.24527 -0.7276,0.0493 -2.93026,-0.005 -4.89479,-0.12016 z m -22.09271,-39.78115 c -2.28199,-1.00669 -4.36434,-5.66059 -4.41271,-9.86206 -0.0382,-3.32101 1.0632,-5.23827 3.72286,-6.48037 2.50981,-1.17211 6.14392,0.29116 7.65369,3.08176 0.73123,1.35157 1.02053,3.14112 0.96974,5.99863 -0.0524,2.95016 -0.56187,4.55019 -1.91288,6.00796 -1.2885,1.39031 -4.29317,2.01617 -6.0207,1.25408 z m 42.597918,-13.08165 c -1.297096,-0.79412 -2.728598,-2.57682 -3.048617,-3.79655 -0.16443,-0.62671 -0.455014,-1.61572 -0.645744,-2.1978 -1.362867,-4.1593 -0.251847,-8.12027 2.733413,-9.74505 1.618763,-0.88104 2.917346,-0.89864 4.710331,-0.0638 1.887181,0.87867 3.31047,2.41815 3.866521,4.18215 1.155115,3.66445 0.716377,8.47293 -0.931265,10.20646 -0.475094,0.49986 -1.340056,1.1298 -1.92214,1.39988 -1.40214,0.65057 -3.712276,0.65771 -4.762499,0.0147 z m -88.767708,4.99005 c -1.19997,-0.71434 -13.80663,-6.61878 -14.13184,-6.61878 -0.24805,0 -6.91218,-3.16997 -8.75461,-4.16436 -0.29104,-0.15708 -2.10675,-1.03469 -4.0349,-1.95025 -3.15022,-1.49584 -3.50538,-1.73304 -3.50231,-2.33908 0.005,-0.93511 0.8946,-3.68327 2.01341,-6.21795 1.66557,-3.77342 1.76286,-3.97946 1.94235,-4.11377 0.0972,-0.0728 0.54827,-0.66808 1.00229,-1.32292 2.50408,-3.61161 4.7904,-5.03172 8.16414,-5.071 2.23766,-0.0261 4.14149,0.71361 5.8804,2.28461 1.01175,0.91405 2.68982,3.75164 2.68982,4.54844 0,0.51705 0.54617,0.43869 2.19108,-0.31438 4.82336,-2.2082 10.50355,-0.0159 13.1392,5.07111 1.08035,2.08518 1.22219,5.25735 0.37103,8.29789 -0.72691,2.59666 -1.71081,5.06418 -2.6375,6.61458 -0.21745,0.3638 -0.64119,1.18835 -0.94165,1.83232 -0.30046,0.64398 -0.65261,1.29882 -0.78256,1.45521 -0.12994,0.15639 -0.50628,0.70024 -0.8363,1.20855 -0.63154,0.97274 -1.11497,1.19093 -1.77205,0.79978 z m 0.18534,-9.7946 c 1.06549,-2.1629 1.57182,-4.90112 1.14528,-6.19356 -0.70081,-2.12347 -2.50271,-3.31468 -5.02932,-3.32481 -1.19286,-0.005 -1.66168,0.13944 -2.64583,0.81393 -1.17568,0.80575 -2.58019,2.73202 -3.51498,4.82073 -0.52507,1.17321 -0.4206,1.41101 0.91046,2.0726 5.60653,2.78664 7.53617,3.66963 7.87996,3.60578 0.2242,-0.0416 0.78869,-0.84924 1.25443,-1.79467 z m -14.62835,-7.4049 c 1.00645,-2.38491 1.12874,-3.80177 0.46118,-5.34337 -0.60621,-1.39996 -1.26821,-1.92789 -2.86475,-2.2846 -1.59732,-0.35688 -2.40946,-0.10848 -3.57629,1.09385 -1.24016,1.27791 -2.99031,4.86563 -2.60185,5.33368 0.29412,0.3544 2.37226,1.41146 5.29599,2.69385 2.29233,1.00545 2.21667,1.03984 3.28572,-1.49341 z m 25.14619,-5.31135 c -0.57524,-0.59147 -1.86664,-1.75233 -2.86978,-2.57969 -2.11026,-1.74045 -2.1985,-1.8184 -5.48609,-4.84644 -1.36378,-1.2561 -3.90835,-3.50328 -5.6546,-4.99372 -1.74625,-1.49043 -4.19393,-3.6774 -5.4393,-4.859919 -1.24537,-1.182518 -3.06107,-2.844426 -4.0349,-3.69313 -0.97382,-0.848704 -1.76608,-1.682142 -1.76057,-1.852084 0.005,-0.169941 0.74965,-1.167177 1.65364,-2.216078 7.77323,-9.019235 11.55702,-13.076391 11.96736,-12.83195 0.8896,0.529931 3.83148,3.385338 3.83148,3.718854 0,0.212148 -0.61158,1.052073 -1.35907,1.8665 -0.74749,0.814425 -1.79705,1.957022 -2.33236,2.539106 -2.75631,2.997139 -4.77524,5.47398 -4.77524,5.858319 0,0.237051 0.32743,0.737566 0.72761,1.112255 1.63767,1.533353 4.89028,4.274217 5.07225,4.274217 0.30466,0 3.6133,-3.649215 6.89685,-7.606771 0.79131,-0.953751 1.58219,-1.653645 1.8686,-1.653645 0.56962,0 3.95553,3.062036 3.95553,3.577177 0,0.35357 -0.89547,1.501182 -3.29908,4.228031 -0.76963,0.873125 -2.14992,2.525313 -3.0673,3.671528 l -1.66798,2.08403 1.33665,1.22326 c 4.20026,3.84396 5.5401,4.96275 5.82735,4.86594 0.17616,-0.0594 1.54517,-1.49856 3.04226,-3.19822 1.49709,-1.69966 3.24885,-3.65681 3.89279,-4.34922 0.64395,-0.69242 1.41806,-1.613091 1.72025,-2.04595 0.30219,-0.432858 0.72802,-0.787405 0.94631,-0.787881 0.21828,-5.29e-4 1.26887,0.822304 2.33464,1.828391 2.19991,2.07672 2.19761,2.0423 0.27028,4.04721 -0.59617,0.62017 -2.46101,2.73492 -4.1441,4.69945 -1.68308,1.96453 -3.68518,4.22672 -4.4491,5.02709 -0.76392,0.80036 -1.82859,2.02075 -2.36594,2.71198 -0.53734,0.69122 -1.11549,1.25677 -1.28477,1.25677 -0.16928,0 -0.77843,-0.48394 -1.35367,-1.07541 z m 22.9441,-22.803239 c -0.43276,-0.909505 -1.40692,-2.963333 -2.16479,-4.564062 -0.75788,-1.60073 -2.00295,-4.220104 -2.76684,-5.820834 -0.76388,-1.600729 -1.6036,-3.386666 -1.86604,-3.968749 -0.53008,-1.175716 -4.22258,-8.858009 -6.23607,-12.97423 -0.71443,-1.460513 -1.29895,-2.858413 -1.29895,-3.106441 0,-0.520819 5.1365,-3.228747 5.59127,-2.94768 0.23914,0.14779 3.09267,5.886031 5.01958,10.093988 0.34866,0.761415 0.77799,1.386494 0.95405,1.389063 0.17606,0.0026 0.43967,-0.441809 0.5858,-0.987513 1.04896,-3.91706 1.3709,-5.172818 1.7297,-6.746874 0.2239,-0.982266 0.58965,-2.58961 0.81278,-3.571875 0.33384,-1.469673 0.7665,-3.190309 1.32011,-5.249989 0.0427,-0.158981 0.53511,-0.50319 1.09418,-0.764911 0.55907,-0.26172 2.08264,-0.994849 3.38572,-1.629174 2.7263,-1.327142 3.17164,-1.410298 2.98846,-0.558009 -0.1563,0.727178 -2.29634,8.914529 -3.23312,12.36927 -0.37486,1.382448 -0.86549,3.227917 -1.09028,4.101042 -0.2248,0.873125 -0.46647,1.790395 -0.53705,2.038379 -0.16476,0.578897 1.47409,1.612368 8.63088,5.442698 0.94588,0.506241 3.09986,1.785459 4.7866,2.842707 5.0068,3.138244 5.43679,3.297283 5.17278,1.913194 -0.38632,-2.025232 -1.19485,-5.565634 -2.00565,-8.782324 -0.29135,-1.155878 -0.58423,-2.406034 -0.65085,-2.778125 -0.17132,-0.956966 -0.60567,-2.873222 -0.93297,-4.116113 -0.15329,-0.582083 -0.58107,-2.427552 -0.95064,-4.101041 -0.36957,-1.67349 -1.03258,-4.512111 -1.47335,-6.308047 -1.12869,-4.598877 -1.16122,-4.50124 1.74262,-5.229323 3.5681,-0.894633 3.67749,-0.877755 4.03957,0.623308 1.30545,5.411938 3.07395,12.995065 4.14964,17.793228 0.37518,1.67349 0.80094,3.459427 0.94614,3.96875 0.24508,0.85969 1.04487,4.27985 1.57773,6.746875 0.12573,0.582083 0.41162,1.772708 0.63531,2.645833 0.71407,2.787184 0.83577,2.625804 -2.6147,3.467359 -2.96227,0.722487 -3.04964,0.728676 -3.40605,0.241258 -0.35185,-0.481184 -0.4514,-0.458033 -2.61232,0.607547 -1.23558,0.609288 -2.55914,1.107794 -2.94123,1.107794 -0.3821,0 -1.49961,-0.514379 -2.48336,-1.143063 -0.98376,-0.628685 -2.62208,-1.596641 -3.64073,-2.151018 -2.96552,-1.613926 -5.51437,-3.115683 -6.08542,-3.585471 -0.29104,-0.239438 -1.36775,-0.866638 -2.39269,-1.393783 -1.79792,-0.924703 -1.87477,-0.940446 -2.18281,-0.447185 -0.60287,0.965334 -0.37627,2.726348 0.60675,4.715409 0.50933,1.030573 0.92649,1.96637 0.92703,2.079545 5.3e-4,0.113176 0.26567,0.622493 0.58916,1.131816 1.17306,1.84693 3.08534,6.183649 2.88475,6.542093 -0.20776,0.371245 -4.95744,2.715027 -5.50627,2.71713 -0.17137,5.3e-4 -0.66566,-0.742947 -1.09843,-1.652452 z m 78.006885,-4.540485 c -3.783465,-0.758399 -6.035005,-1.458947 -8.598958,-2.675488 -0.727604,-0.345234 -2.156354,-0.99522 -3.175,-1.444413 -2.558394,-1.128178 -3.161707,-1.491607 -3.25905,-1.963227 -0.07993,-0.387244 1.534152,-4.706162 2.926657,-7.831074 0.356653,-0.800364 0.980112,-2.288646 1.385461,-3.307291 0.405352,-1.018646 0.887698,-2.209271 1.07188,-2.645834 0.666671,-1.580181 2.481493,-6.127067 3.168134,-7.937499 0.386342,-1.018646 0.826138,-2.14974 0.977323,-2.513542 0.151186,-0.363802 0.945319,-2.328333 1.764739,-4.365625 1.319845,-3.281476 1.565336,-3.712757 2.151314,-3.779453 0.682165,-0.07764 3.904094,0.846685 8.069791,2.315114 5.530718,1.949606 9.803577,5.038968 12.088722,8.740381 1.957271,3.170338 2.313654,4.559032 2.231684,8.696057 -0.05798,2.926191 -0.159261,3.589628 -0.813208,5.326859 -1.649925,4.383092 -3.389415,7.077601 -6.219375,9.63395 -3.57656,3.230763 -8.998116,4.707638 -13.770114,3.751085 z m 5.000349,-6.233324 c 3.329628,-0.991606 5.035098,-2.569271 7.285334,-6.739393 2.014212,-3.732725 2.39509,-7.100852 1.172498,-10.36852 -0.769376,-2.056344 -3.674776,-4.856406 -6.314431,-6.085493 -1.091407,-0.508185 -2.167546,-1.02104 -2.391426,-1.139677 -0.223877,-0.118636 -0.888082,-0.296973 -1.476013,-0.396303 -1.159967,-0.195975 -1.473782,0.0063 -1.820576,1.173509 -0.264832,0.891344 -2.996462,7.854809 -3.301712,8.416713 -0.133503,0.245755 -0.481324,1.101672 -0.772932,1.902036 -0.521333,1.430875 -2.705404,6.768886 -3.193537,7.805208 -0.533241,1.132086 -1.06672,2.594171 -1.06672,2.923514 0,0.86727 6.090887,2.973855 8.702724,3.009916 0.784675,0.01082 2.214232,-0.214847 3.176791,-0.50151 z m -26.063613,0.05998 c -2.891025,-0.104137 -2.620938,0.128376 -5.546227,-4.774675 -1.153794,-1.933861 -2.541954,-4.25558 -3.084804,-5.159375 -0.54286,-0.903798 -0.98934,-1.835571 -0.99219,-2.070608 -0.003,-0.235038 -0.24331,-0.730068 -0.53435,-1.100066 -0.29104,-0.369999 -0.52916,-0.734499 -0.52916,-0.809998 0,-0.0755 -0.98522,-1.783734 -2.18937,-3.796075 -1.20415,-2.012344 -2.45734,-4.228899 -2.78486,-4.925676 -0.32752,-0.696781 -0.69256,-1.206887 -0.81119,-1.133571 -0.11862,0.07332 -0.29966,5.277914 -0.4023,11.565774 -0.10264,6.287859 -0.2477,11.531308 -0.32235,11.652106 -0.0747,0.120801 -1.43614,0.219636 -3.02551,0.219636 -2.88198,0 -2.89022,-0.0019 -3.06025,-0.679294 -0.33544,-1.336495 0.36317,-35.037041 0.7346,-35.436329 0.13538,-0.145542 1.28174,-0.24133 2.54794,-0.212897 1.26601,0.02843 2.62765,0.05819 3.02588,0.06614 0.57489,0.01148 0.8058,0.210106 1.12086,0.964153 0.21825,0.522329 0.69609,1.305372 1.06189,1.74009 0.36579,0.434721 0.66507,0.891908 0.66507,1.015974 0,0.124065 0.45631,0.918601 1.01403,1.765638 0.55771,0.847035 1.36139,2.194907 1.78594,2.995271 0.42455,0.800365 0.83144,1.51474 0.9042,1.5875 0.27925,0.279249 1.05833,1.814994 1.05833,2.086205 0,0.156623 0.39054,0.912159 0.86785,1.678969 0.47732,0.76681 1.03996,1.751388 1.25031,2.187951 0.21035,0.436562 0.92115,1.627187 1.579546,2.645833 0.6584,1.018646 1.411308,2.268802 1.673132,2.778125 0.587476,1.142809 1.203455,1.983174 1.343403,1.832769 0.05782,-0.06214 0.180036,-5.169106 0.271598,-11.34882 0.09156,-6.179712 0.264025,-11.333393 0.383254,-11.452622 0.119229,-0.119229 1.516287,-0.182787 3.104573,-0.14124 l 2.887795,0.07554 -0.01566,7.14375 c -0.02005,9.151744 -0.395038,28.778746 -0.55477,29.038019 -0.06724,0.109141 -0.323588,0.173728 -0.569661,0.143526 -0.246073,-0.0302 -1.531969,-0.09398 -2.857545,-0.141727 z"
         id="path26726" /></g></g></svg>
